<svg width="16" height="21" viewBox="0 0 16 21" fill="none" xmlns="http://www.w3.org/2000/svg">
<path d="M1.5028 3.49813L1.5 5.62109V16.1253C1.5 17.9202 2.95507 19.3753 4.75 19.3753L13.3663 19.3756C13.0573 20.2493 12.224 20.8753 11.2444 20.8753H4.75C2.12665 20.8753 0 18.7487 0 16.1253V5.62109C0 4.64038 0.627445 3.80622 1.5028 3.49813ZM13.75 0.871094C14.9926 0.871094 16 1.87845 16 3.12109V16.1211C16 17.3637 14.9926 18.3711 13.75 18.3711H4.75C3.50736 18.3711 2.5 17.3637 2.5 16.1211V3.12109C2.5 1.87845 3.50736 0.871094 4.75 0.871094H13.75Z" fill="#202020"/>
<path d="M1.5028 3.49813L1.5 5.62109V16.1253C1.5 17.9202 2.95507 19.3753 4.75 19.3753L13.3663 19.3756C13.0573 20.2493 12.224 20.8753 11.2444 20.8753H4.75C2.12665 20.8753 0 18.7487 0 16.1253V5.62109C0 4.64038 0.627445 3.80622 1.5028 3.49813ZM13.75 0.871094C14.9926 0.871094 16 1.87845 16 3.12109V16.1211C16 17.3637 14.9926 18.3711 13.75 18.3711H4.75C3.50736 18.3711 2.5 17.3637 2.5 16.1211V3.12109C2.5 1.87845 3.50736 0.871094 4.75 0.871094H13.75Z" fill="black" fill-opacity="0.2"/>
<path d="M1.5028 3.49813L1.5 5.62109V16.1253C1.5 17.9202 2.95507 19.3753 4.75 19.3753L13.3663 19.3756C13.0573 20.2493 12.224 20.8753 11.2444 20.8753H4.75C2.12665 20.8753 0 18.7487 0 16.1253V5.62109C0 4.64038 0.627445 3.80622 1.5028 3.49813ZM13.75 0.871094C14.9926 0.871094 16 1.87845 16 3.12109V16.1211C16 17.3637 14.9926 18.3711 13.75 18.3711H4.75C3.50736 18.3711 2.5 17.3637 2.5 16.1211V3.12109C2.5 1.87845 3.50736 0.871094 4.75 0.871094H13.75Z" fill="black" fill-opacity="0.2"/>
<path d="M1.5028 3.49813L1.5 5.62109V16.1253C1.5 17.9202 2.95507 19.3753 4.75 19.3753L13.3663 19.3756C13.0573 20.2493 12.224 20.8753 11.2444 20.8753H4.75C2.12665 20.8753 0 18.7487 0 16.1253V5.62109C0 4.64038 0.627445 3.80622 1.5028 3.49813ZM13.75 0.871094C14.9926 0.871094 16 1.87845 16 3.12109V16.1211C16 17.3637 14.9926 18.3711 13.75 18.3711H4.75C3.50736 18.3711 2.5 17.3637 2.5 16.1211V3.12109C2.5 1.87845 3.50736 0.871094 4.75 0.871094H13.75Z" fill="black" fill-opacity="0.2"/>
<path d="M1.5028 3.49813L1.5 5.62109V16.1253C1.5 17.9202 2.95507 19.3753 4.75 19.3753L13.3663 19.3756C13.0573 20.2493 12.224 20.8753 11.2444 20.8753H4.75C2.12665 20.8753 0 18.7487 0 16.1253V5.62109C0 4.64038 0.627445 3.80622 1.5028 3.49813ZM13.75 0.871094C14.9926 0.871094 16 1.87845 16 3.12109V16.1211C16 17.3637 14.9926 18.3711 13.75 18.3711H4.75C3.50736 18.3711 2.5 17.3637 2.5 16.1211V3.12109C2.5 1.87845 3.50736 0.871094 4.75 0.871094H13.75Z" fill="black" fill-opacity="0.2"/>
<path d="M1.5028 3.49813L1.5 5.62109V16.1253C1.5 17.9202 2.95507 19.3753 4.75 19.3753L13.3663 19.3756C13.0573 20.2493 12.224 20.8753 11.2444 20.8753H4.75C2.12665 20.8753 0 18.7487 0 16.1253V5.62109C0 4.64038 0.627445 3.80622 1.5028 3.49813ZM13.75 0.871094C14.9926 0.871094 16 1.87845 16 3.12109V16.1211C16 17.3637 14.9926 18.3711 13.75 18.3711H4.75C3.50736 18.3711 2.5 17.3637 2.5 16.1211V3.12109C2.5 1.87845 3.50736 0.871094 4.75 0.871094H13.75Z" fill="black" fill-opacity="0.2"/>
<path d="M1.5028 3.49813L1.5 5.62109V16.1253C1.5 17.9202 2.95507 19.3753 4.75 19.3753L13.3663 19.3756C13.0573 20.2493 12.224 20.8753 11.2444 20.8753H4.75C2.12665 20.8753 0 18.7487 0 16.1253V5.62109C0 4.64038 0.627445 3.80622 1.5028 3.49813ZM13.75 0.871094C14.9926 0.871094 16 1.87845 16 3.12109V16.1211C16 17.3637 14.9926 18.3711 13.75 18.3711H4.75C3.50736 18.3711 2.5 17.3637 2.5 16.1211V3.12109C2.5 1.87845 3.50736 0.871094 4.75 0.871094H13.75Z" fill="black" fill-opacity="0.2"/>
<path d="M1.5028 3.49813L1.5 5.62109V16.1253C1.5 17.9202 2.95507 19.3753 4.75 19.3753L13.3663 19.3756C13.0573 20.2493 12.224 20.8753 11.2444 20.8753H4.75C2.12665 20.8753 0 18.7487 0 16.1253V5.62109C0 4.64038 0.627445 3.80622 1.5028 3.49813ZM13.75 0.871094C14.9926 0.871094 16 1.87845 16 3.12109V16.1211C16 17.3637 14.9926 18.3711 13.75 18.3711H4.75C3.50736 18.3711 2.5 17.3637 2.5 16.1211V3.12109C2.5 1.87845 3.50736 0.871094 4.75 0.871094H13.75Z" fill="black" fill-opacity="0.2"/>
<path d="M1.5028 3.49813L1.5 5.62109V16.1253C1.5 17.9202 2.95507 19.3753 4.75 19.3753L13.3663 19.3756C13.0573 20.2493 12.224 20.8753 11.2444 20.8753H4.75C2.12665 20.8753 0 18.7487 0 16.1253V5.62109C0 4.64038 0.627445 3.80622 1.5028 3.49813ZM13.75 0.871094C14.9926 0.871094 16 1.87845 16 3.12109V16.1211C16 17.3637 14.9926 18.3711 13.75 18.3711H4.75C3.50736 18.3711 2.5 17.3637 2.5 16.1211V3.12109C2.5 1.87845 3.50736 0.871094 4.75 0.871094H13.75Z" fill="black" fill-opacity="0.2"/>
</svg>
