<svg width="82" height="82" viewBox="0 0 82 82" fill="none" xmlns="http://www.w3.org/2000/svg">
<path d="M0 40C0 21.1438 0 11.7157 5.85786 5.85786C11.7157 0 21.1438 0 40 0H42C60.8562 0 70.2843 0 76.1421 5.85786C82 11.7157 82 21.1438 82 40V42C82 60.8562 82 70.2843 76.1421 76.1421C70.2843 82 60.8562 82 42 82H40C21.1438 82 11.7157 82 5.85786 76.1421C0 70.2843 0 60.8562 0 42V40Z" fill="#09A74C" fill-opacity="0.42"/>
<path opacity="0.2" d="M49.0391 31.2891C49.7901 32.6567 50.185 34.1913 50.1875 35.7516V36.3914C50.1901 36.984 49.9897 37.5595 49.6195 38.0222C49.2493 38.4849 48.7318 38.8069 48.1531 38.9344C45.8055 39.4591 43.4054 39.7123 41 39.6891C38.5946 39.7123 36.1945 39.4591 33.8469 38.9344C33.2682 38.8069 32.7507 38.4849 32.3805 38.0222C32.0103 37.5595 31.8099 36.984 31.8125 36.3914V35.8828C31.8135 34.2724 32.2317 32.6897 33.0266 31.2891C26.8742 32.5523 22.625 35.2594 22.625 38.3766C22.625 42.7242 30.8445 46.2516 41 46.2516C51.1555 46.2516 59.375 42.7242 59.375 38.3766C59.375 35.2594 55.1586 32.5688 49.0391 31.2891Z" fill="white"/>
<path d="M47.6934 50.957L48.3332 54.8289" stroke="white" stroke-width="2" stroke-linecap="round" stroke-linejoin="round"/>
<path d="M41 51.5V56.75" stroke="white" stroke-width="2" stroke-linecap="round" stroke-linejoin="round"/>
<path d="M34.3059 50.957L33.666 54.8289" stroke="white" stroke-width="2" stroke-linecap="round" stroke-linejoin="round"/>
<path d="M49.0391 31.2891C55.1586 32.5688 59.375 35.2594 59.375 38.3766C59.375 42.7242 51.1555 46.2516 41 46.2516C30.8445 46.2516 22.625 42.7242 22.625 38.3766C22.625 35.2594 26.8742 32.5523 33.0266 31.2891" stroke="white" stroke-width="2" stroke-linecap="round" stroke-linejoin="round"/>
<path d="M31.8125 36.3906C31.8099 36.9831 32.0104 37.5587 32.3805 38.0214C32.7507 38.4841 33.2682 38.806 33.8469 38.9335C36.1945 39.4582 38.5946 39.7115 41 39.6882C43.4054 39.7115 45.8056 39.4582 48.1532 38.9335C48.7318 38.806 49.2494 38.4841 49.6195 38.0214C49.9897 37.5587 50.1902 36.9831 50.1875 36.3906V35.7507C50.1876 34.5345 49.9462 33.3303 49.4773 32.2081C49.0085 31.0859 48.3214 30.0679 47.4561 29.2132C46.5908 28.3586 45.5643 27.6842 44.4364 27.2293C43.3084 26.7744 42.1013 26.548 40.8852 26.5632C35.8321 26.6288 31.8125 30.8452 31.8125 35.882V36.3906Z" stroke="white" stroke-width="2" stroke-linecap="round" stroke-linejoin="round"/>
</svg>
