<svg width="82" height="82" viewBox="0 0 82 82" fill="none" xmlns="http://www.w3.org/2000/svg">
<path d="M0 40C0 21.1438 0 11.7157 5.85786 5.85786C11.7157 0 21.1438 0 40 0H42C60.8562 0 70.2843 0 76.1421 5.85786C82 11.7157 82 21.1438 82 40V42C82 60.8562 82 70.2843 76.1421 76.1421C70.2843 82 60.8562 82 42 82H40C21.1438 82 11.7157 82 5.85786 76.1421C0 70.2843 0 60.8562 0 42V40Z" fill="#F8D57E" fill-opacity="0.42"/>
<path opacity="0.2" d="M36.8003 52.5492L29.4503 45.1992L26.2182 54.1078C26.1289 54.3416 26.1091 54.5962 26.1613 54.841C26.2135 55.0857 26.3355 55.3101 26.5124 55.4871C26.6894 55.664 26.9138 55.786 27.1585 55.8382C27.4033 55.8904 27.6579 55.8706 27.8917 55.7812L36.8003 52.5492Z" fill="white"/>
<path opacity="0.2" d="M52.6203 44.8326L52.6204 44.8328C52.7701 44.9811 52.8798 45.1649 52.9393 45.367C52.9989 45.5691 53.0065 45.7829 52.9613 45.9887C52.916 46.1945 52.8196 46.3855 52.6808 46.544C52.542 46.7025 52.3653 46.8233 52.1673 46.8953L45.4782 49.3262L32.6719 36.52L35.1029 29.8309C35.1748 29.6328 35.2957 29.4562 35.4542 29.3174C35.6127 29.1786 35.8037 29.0821 36.0095 29.0369C36.2153 28.9917 36.4291 28.9993 36.6312 29.0588C36.8333 29.1184 37.017 29.2281 37.1654 29.3777L37.1656 29.3779L52.6203 44.8326Z" fill="white" stroke="white" stroke-width="0.125"/>
<path d="M26.2182 54.1072L35.0448 29.8095C35.1204 29.6016 35.2473 29.4162 35.4137 29.2704C35.5801 29.1247 35.7807 29.0234 35.9967 28.9759C36.2128 28.9284 36.4374 28.9363 36.6496 28.9989C36.8617 29.0615 37.0547 29.1766 37.2104 29.3337L52.6651 44.7884C52.8222 44.9442 52.9374 45.1371 53 45.3493C53.0625 45.5615 53.0704 45.786 53.023 46.0021C52.9755 46.2182 52.8742 46.4187 52.7284 46.5852C52.5827 46.7516 52.3973 46.8785 52.1893 46.954L27.8917 55.7806C27.6579 55.87 27.4033 55.8897 27.1585 55.8375C26.9138 55.7853 26.6894 55.6634 26.5124 55.4864C26.3355 55.3095 26.2135 55.0851 26.1613 54.8403C26.1091 54.5956 26.1289 54.3409 26.2182 54.1072V54.1072Z" stroke="white" stroke-width="2" stroke-linecap="round" stroke-linejoin="round"/>
<path d="M47.5625 31.8125C47.5625 31.8125 47.5625 27.875 51.5 27.875C55.4375 27.875 55.4375 23.9375 55.4375 23.9375" stroke="white" stroke-width="2" stroke-linecap="round" stroke-linejoin="round"/>
<path d="M36.8002 52.5492L29.4502 45.1992" stroke="white" stroke-width="2" stroke-linecap="round" stroke-linejoin="round"/>
<path d="M43.625 22.625V26.5625" stroke="white" stroke-width="2" stroke-linecap="round" stroke-linejoin="round"/>
<path d="M55.4375 38.375L58.0625 41" stroke="white" stroke-width="2" stroke-linecap="round" stroke-linejoin="round"/>
<path d="M55.4375 33.125L59.375 31.8125" stroke="white" stroke-width="2" stroke-linecap="round" stroke-linejoin="round"/>
<path d="M32.5996 36.5391L45.4621 49.4016" stroke="white" stroke-width="2" stroke-linecap="round" stroke-linejoin="round"/>
</svg>
