<svg width="16" height="16" viewBox="0 0 16 16" fill="none" xmlns="http://www.w3.org/2000/svg">
<path d="M8.00006 0C12.4183 0 16.0001 3.58172 16.0001 8C16.0001 12.4183 12.4183 16 8.00006 16C3.58178 16 6.10352e-05 12.4183 6.10352e-05 8C6.10352e-05 3.58172 3.58178 0 8.00006 0ZM8.00006 1C4.13407 1 1.00006 4.13401 1.00006 8C1.00006 11.866 4.13407 15 8.00006 15C11.8661 15 15.0001 11.866 15.0001 8C15.0001 4.13401 11.8661 1 8.00006 1ZM5.80949 5.11372L5.87874 5.17157L8.00006 7.29289L10.1214 5.17157C10.2949 4.99801 10.5644 4.97872 10.7592 5.11372L10.8285 5.17157C11.0021 5.34514 11.0213 5.61456 10.8863 5.80943L10.8285 5.87868L8.70717 8L10.8285 10.1213C11.0021 10.2949 11.0213 10.5643 10.8863 10.7592L10.8285 10.8284C10.6549 11.002 10.3855 11.0213 10.1906 10.8863L10.1214 10.8284L8.00006 8.70711L5.87874 10.8284C5.70517 11.002 5.43575 11.0213 5.24088 10.8863L5.17163 10.8284C4.99807 10.6549 4.97878 10.3854 5.11378 10.1906L5.17163 10.1213L7.29295 8L5.17163 5.87868C4.99807 5.70511 4.97878 5.43569 5.11378 5.24082L5.17163 5.17157C5.3452 4.99801 5.61462 4.97872 5.80949 5.11372Z" fill="#202020"/>
<path d="M8.00006 0C12.4183 0 16.0001 3.58172 16.0001 8C16.0001 12.4183 12.4183 16 8.00006 16C3.58178 16 6.10352e-05 12.4183 6.10352e-05 8C6.10352e-05 3.58172 3.58178 0 8.00006 0ZM8.00006 1C4.13407 1 1.00006 4.13401 1.00006 8C1.00006 11.866 4.13407 15 8.00006 15C11.8661 15 15.0001 11.866 15.0001 8C15.0001 4.13401 11.8661 1 8.00006 1ZM5.80949 5.11372L5.87874 5.17157L8.00006 7.29289L10.1214 5.17157C10.2949 4.99801 10.5644 4.97872 10.7592 5.11372L10.8285 5.17157C11.0021 5.34514 11.0213 5.61456 10.8863 5.80943L10.8285 5.87868L8.70717 8L10.8285 10.1213C11.0021 10.2949 11.0213 10.5643 10.8863 10.7592L10.8285 10.8284C10.6549 11.002 10.3855 11.0213 10.1906 10.8863L10.1214 10.8284L8.00006 8.70711L5.87874 10.8284C5.70517 11.002 5.43575 11.0213 5.24088 10.8863L5.17163 10.8284C4.99807 10.6549 4.97878 10.3854 5.11378 10.1906L5.17163 10.1213L7.29295 8L5.17163 5.87868C4.99807 5.70511 4.97878 5.43569 5.11378 5.24082L5.17163 5.17157C5.3452 4.99801 5.61462 4.97872 5.80949 5.11372Z" fill="black" fill-opacity="0.2"/>
<path d="M8.00006 0C12.4183 0 16.0001 3.58172 16.0001 8C16.0001 12.4183 12.4183 16 8.00006 16C3.58178 16 6.10352e-05 12.4183 6.10352e-05 8C6.10352e-05 3.58172 3.58178 0 8.00006 0ZM8.00006 1C4.13407 1 1.00006 4.13401 1.00006 8C1.00006 11.866 4.13407 15 8.00006 15C11.8661 15 15.0001 11.866 15.0001 8C15.0001 4.13401 11.8661 1 8.00006 1ZM5.80949 5.11372L5.87874 5.17157L8.00006 7.29289L10.1214 5.17157C10.2949 4.99801 10.5644 4.97872 10.7592 5.11372L10.8285 5.17157C11.0021 5.34514 11.0213 5.61456 10.8863 5.80943L10.8285 5.87868L8.70717 8L10.8285 10.1213C11.0021 10.2949 11.0213 10.5643 10.8863 10.7592L10.8285 10.8284C10.6549 11.002 10.3855 11.0213 10.1906 10.8863L10.1214 10.8284L8.00006 8.70711L5.87874 10.8284C5.70517 11.002 5.43575 11.0213 5.24088 10.8863L5.17163 10.8284C4.99807 10.6549 4.97878 10.3854 5.11378 10.1906L5.17163 10.1213L7.29295 8L5.17163 5.87868C4.99807 5.70511 4.97878 5.43569 5.11378 5.24082L5.17163 5.17157C5.3452 4.99801 5.61462 4.97872 5.80949 5.11372Z" fill="black" fill-opacity="0.2"/>
<path d="M8.00006 0C12.4183 0 16.0001 3.58172 16.0001 8C16.0001 12.4183 12.4183 16 8.00006 16C3.58178 16 6.10352e-05 12.4183 6.10352e-05 8C6.10352e-05 3.58172 3.58178 0 8.00006 0ZM8.00006 1C4.13407 1 1.00006 4.13401 1.00006 8C1.00006 11.866 4.13407 15 8.00006 15C11.8661 15 15.0001 11.866 15.0001 8C15.0001 4.13401 11.8661 1 8.00006 1ZM5.80949 5.11372L5.87874 5.17157L8.00006 7.29289L10.1214 5.17157C10.2949 4.99801 10.5644 4.97872 10.7592 5.11372L10.8285 5.17157C11.0021 5.34514 11.0213 5.61456 10.8863 5.80943L10.8285 5.87868L8.70717 8L10.8285 10.1213C11.0021 10.2949 11.0213 10.5643 10.8863 10.7592L10.8285 10.8284C10.6549 11.002 10.3855 11.0213 10.1906 10.8863L10.1214 10.8284L8.00006 8.70711L5.87874 10.8284C5.70517 11.002 5.43575 11.0213 5.24088 10.8863L5.17163 10.8284C4.99807 10.6549 4.97878 10.3854 5.11378 10.1906L5.17163 10.1213L7.29295 8L5.17163 5.87868C4.99807 5.70511 4.97878 5.43569 5.11378 5.24082L5.17163 5.17157C5.3452 4.99801 5.61462 4.97872 5.80949 5.11372Z" fill="black" fill-opacity="0.2"/>
<path d="M8.00006 0C12.4183 0 16.0001 3.58172 16.0001 8C16.0001 12.4183 12.4183 16 8.00006 16C3.58178 16 6.10352e-05 12.4183 6.10352e-05 8C6.10352e-05 3.58172 3.58178 0 8.00006 0ZM8.00006 1C4.13407 1 1.00006 4.13401 1.00006 8C1.00006 11.866 4.13407 15 8.00006 15C11.8661 15 15.0001 11.866 15.0001 8C15.0001 4.13401 11.8661 1 8.00006 1ZM5.80949 5.11372L5.87874 5.17157L8.00006 7.29289L10.1214 5.17157C10.2949 4.99801 10.5644 4.97872 10.7592 5.11372L10.8285 5.17157C11.0021 5.34514 11.0213 5.61456 10.8863 5.80943L10.8285 5.87868L8.70717 8L10.8285 10.1213C11.0021 10.2949 11.0213 10.5643 10.8863 10.7592L10.8285 10.8284C10.6549 11.002 10.3855 11.0213 10.1906 10.8863L10.1214 10.8284L8.00006 8.70711L5.87874 10.8284C5.70517 11.002 5.43575 11.0213 5.24088 10.8863L5.17163 10.8284C4.99807 10.6549 4.97878 10.3854 5.11378 10.1906L5.17163 10.1213L7.29295 8L5.17163 5.87868C4.99807 5.70511 4.97878 5.43569 5.11378 5.24082L5.17163 5.17157C5.3452 4.99801 5.61462 4.97872 5.80949 5.11372Z" fill="black" fill-opacity="0.2"/>
<path d="M8.00006 0C12.4183 0 16.0001 3.58172 16.0001 8C16.0001 12.4183 12.4183 16 8.00006 16C3.58178 16 6.10352e-05 12.4183 6.10352e-05 8C6.10352e-05 3.58172 3.58178 0 8.00006 0ZM8.00006 1C4.13407 1 1.00006 4.13401 1.00006 8C1.00006 11.866 4.13407 15 8.00006 15C11.8661 15 15.0001 11.866 15.0001 8C15.0001 4.13401 11.8661 1 8.00006 1ZM5.80949 5.11372L5.87874 5.17157L8.00006 7.29289L10.1214 5.17157C10.2949 4.99801 10.5644 4.97872 10.7592 5.11372L10.8285 5.17157C11.0021 5.34514 11.0213 5.61456 10.8863 5.80943L10.8285 5.87868L8.70717 8L10.8285 10.1213C11.0021 10.2949 11.0213 10.5643 10.8863 10.7592L10.8285 10.8284C10.6549 11.002 10.3855 11.0213 10.1906 10.8863L10.1214 10.8284L8.00006 8.70711L5.87874 10.8284C5.70517 11.002 5.43575 11.0213 5.24088 10.8863L5.17163 10.8284C4.99807 10.6549 4.97878 10.3854 5.11378 10.1906L5.17163 10.1213L7.29295 8L5.17163 5.87868C4.99807 5.70511 4.97878 5.43569 5.11378 5.24082L5.17163 5.17157C5.3452 4.99801 5.61462 4.97872 5.80949 5.11372Z" fill="black" fill-opacity="0.2"/>
<path d="M8.00006 0C12.4183 0 16.0001 3.58172 16.0001 8C16.0001 12.4183 12.4183 16 8.00006 16C3.58178 16 6.10352e-05 12.4183 6.10352e-05 8C6.10352e-05 3.58172 3.58178 0 8.00006 0ZM8.00006 1C4.13407 1 1.00006 4.13401 1.00006 8C1.00006 11.866 4.13407 15 8.00006 15C11.8661 15 15.0001 11.866 15.0001 8C15.0001 4.13401 11.8661 1 8.00006 1ZM5.80949 5.11372L5.87874 5.17157L8.00006 7.29289L10.1214 5.17157C10.2949 4.99801 10.5644 4.97872 10.7592 5.11372L10.8285 5.17157C11.0021 5.34514 11.0213 5.61456 10.8863 5.80943L10.8285 5.87868L8.70717 8L10.8285 10.1213C11.0021 10.2949 11.0213 10.5643 10.8863 10.7592L10.8285 10.8284C10.6549 11.002 10.3855 11.0213 10.1906 10.8863L10.1214 10.8284L8.00006 8.70711L5.87874 10.8284C5.70517 11.002 5.43575 11.0213 5.24088 10.8863L5.17163 10.8284C4.99807 10.6549 4.97878 10.3854 5.11378 10.1906L5.17163 10.1213L7.29295 8L5.17163 5.87868C4.99807 5.70511 4.97878 5.43569 5.11378 5.24082L5.17163 5.17157C5.3452 4.99801 5.61462 4.97872 5.80949 5.11372Z" fill="black" fill-opacity="0.2"/>
<path d="M8.00006 0C12.4183 0 16.0001 3.58172 16.0001 8C16.0001 12.4183 12.4183 16 8.00006 16C3.58178 16 6.10352e-05 12.4183 6.10352e-05 8C6.10352e-05 3.58172 3.58178 0 8.00006 0ZM8.00006 1C4.13407 1 1.00006 4.13401 1.00006 8C1.00006 11.866 4.13407 15 8.00006 15C11.8661 15 15.0001 11.866 15.0001 8C15.0001 4.13401 11.8661 1 8.00006 1ZM5.80949 5.11372L5.87874 5.17157L8.00006 7.29289L10.1214 5.17157C10.2949 4.99801 10.5644 4.97872 10.7592 5.11372L10.8285 5.17157C11.0021 5.34514 11.0213 5.61456 10.8863 5.80943L10.8285 5.87868L8.70717 8L10.8285 10.1213C11.0021 10.2949 11.0213 10.5643 10.8863 10.7592L10.8285 10.8284C10.6549 11.002 10.3855 11.0213 10.1906 10.8863L10.1214 10.8284L8.00006 8.70711L5.87874 10.8284C5.70517 11.002 5.43575 11.0213 5.24088 10.8863L5.17163 10.8284C4.99807 10.6549 4.97878 10.3854 5.11378 10.1906L5.17163 10.1213L7.29295 8L5.17163 5.87868C4.99807 5.70511 4.97878 5.43569 5.11378 5.24082L5.17163 5.17157C5.3452 4.99801 5.61462 4.97872 5.80949 5.11372Z" fill="black" fill-opacity="0.2"/>
<path d="M8.00006 0C12.4183 0 16.0001 3.58172 16.0001 8C16.0001 12.4183 12.4183 16 8.00006 16C3.58178 16 6.10352e-05 12.4183 6.10352e-05 8C6.10352e-05 3.58172 3.58178 0 8.00006 0ZM8.00006 1C4.13407 1 1.00006 4.13401 1.00006 8C1.00006 11.866 4.13407 15 8.00006 15C11.8661 15 15.0001 11.866 15.0001 8C15.0001 4.13401 11.8661 1 8.00006 1ZM5.80949 5.11372L5.87874 5.17157L8.00006 7.29289L10.1214 5.17157C10.2949 4.99801 10.5644 4.97872 10.7592 5.11372L10.8285 5.17157C11.0021 5.34514 11.0213 5.61456 10.8863 5.80943L10.8285 5.87868L8.70717 8L10.8285 10.1213C11.0021 10.2949 11.0213 10.5643 10.8863 10.7592L10.8285 10.8284C10.6549 11.002 10.3855 11.0213 10.1906 10.8863L10.1214 10.8284L8.00006 8.70711L5.87874 10.8284C5.70517 11.002 5.43575 11.0213 5.24088 10.8863L5.17163 10.8284C4.99807 10.6549 4.97878 10.3854 5.11378 10.1906L5.17163 10.1213L7.29295 8L5.17163 5.87868C4.99807 5.70511 4.97878 5.43569 5.11378 5.24082L5.17163 5.17157C5.3452 4.99801 5.61462 4.97872 5.80949 5.11372Z" fill="black" fill-opacity="0.2"/>
</svg>
