<svg width="10" height="10" viewBox="0 0 10 10" fill="none" xmlns="http://www.w3.org/2000/svg">
<path d="M6.85355 3.14645C7.04882 3.34171 7.04882 3.65829 6.85355 3.85355L5.70711 5L6.85355 6.14645C7.04882 6.34171 7.04882 6.65829 6.85355 6.85355C6.65829 7.04882 6.34171 7.04882 6.14645 6.85355L5 5.70711L3.85355 6.85355C3.65829 7.04882 3.34171 7.04882 3.14645 6.85355C2.95118 6.65829 2.95118 6.34171 3.14645 6.14645L4.29289 5L3.14645 3.85355C2.95118 3.65829 2.95118 3.34171 3.14645 3.14645C3.34171 2.95118 3.65829 2.95118 3.85355 3.14645L5 4.29289L6.14645 3.14645C6.34171 2.95118 6.65829 2.95118 6.85355 3.14645ZM5 0C2.23858 0 0 2.23858 0 5C0 7.76142 2.23858 10 5 10C7.76142 10 10 7.76142 10 5C10 2.23858 7.76142 0 5 0ZM1 5C1 2.79086 2.79086 1 5 1C7.20914 1 9 2.79086 9 5C9 7.20914 7.20914 9 5 9C2.79086 9 1 7.20914 1 5Z" fill="#202020"/>
<path d="M6.85355 3.14645C7.04882 3.34171 7.04882 3.65829 6.85355 3.85355L5.70711 5L6.85355 6.14645C7.04882 6.34171 7.04882 6.65829 6.85355 6.85355C6.65829 7.04882 6.34171 7.04882 6.14645 6.85355L5 5.70711L3.85355 6.85355C3.65829 7.04882 3.34171 7.04882 3.14645 6.85355C2.95118 6.65829 2.95118 6.34171 3.14645 6.14645L4.29289 5L3.14645 3.85355C2.95118 3.65829 2.95118 3.34171 3.14645 3.14645C3.34171 2.95118 3.65829 2.95118 3.85355 3.14645L5 4.29289L6.14645 3.14645C6.34171 2.95118 6.65829 2.95118 6.85355 3.14645ZM5 0C2.23858 0 0 2.23858 0 5C0 7.76142 2.23858 10 5 10C7.76142 10 10 7.76142 10 5C10 2.23858 7.76142 0 5 0ZM1 5C1 2.79086 2.79086 1 5 1C7.20914 1 9 2.79086 9 5C9 7.20914 7.20914 9 5 9C2.79086 9 1 7.20914 1 5Z" fill="black" fill-opacity="0.2"/>
<path d="M6.85355 3.14645C7.04882 3.34171 7.04882 3.65829 6.85355 3.85355L5.70711 5L6.85355 6.14645C7.04882 6.34171 7.04882 6.65829 6.85355 6.85355C6.65829 7.04882 6.34171 7.04882 6.14645 6.85355L5 5.70711L3.85355 6.85355C3.65829 7.04882 3.34171 7.04882 3.14645 6.85355C2.95118 6.65829 2.95118 6.34171 3.14645 6.14645L4.29289 5L3.14645 3.85355C2.95118 3.65829 2.95118 3.34171 3.14645 3.14645C3.34171 2.95118 3.65829 2.95118 3.85355 3.14645L5 4.29289L6.14645 3.14645C6.34171 2.95118 6.65829 2.95118 6.85355 3.14645ZM5 0C2.23858 0 0 2.23858 0 5C0 7.76142 2.23858 10 5 10C7.76142 10 10 7.76142 10 5C10 2.23858 7.76142 0 5 0ZM1 5C1 2.79086 2.79086 1 5 1C7.20914 1 9 2.79086 9 5C9 7.20914 7.20914 9 5 9C2.79086 9 1 7.20914 1 5Z" fill="black" fill-opacity="0.2"/>
<path d="M6.85355 3.14645C7.04882 3.34171 7.04882 3.65829 6.85355 3.85355L5.70711 5L6.85355 6.14645C7.04882 6.34171 7.04882 6.65829 6.85355 6.85355C6.65829 7.04882 6.34171 7.04882 6.14645 6.85355L5 5.70711L3.85355 6.85355C3.65829 7.04882 3.34171 7.04882 3.14645 6.85355C2.95118 6.65829 2.95118 6.34171 3.14645 6.14645L4.29289 5L3.14645 3.85355C2.95118 3.65829 2.95118 3.34171 3.14645 3.14645C3.34171 2.95118 3.65829 2.95118 3.85355 3.14645L5 4.29289L6.14645 3.14645C6.34171 2.95118 6.65829 2.95118 6.85355 3.14645ZM5 0C2.23858 0 0 2.23858 0 5C0 7.76142 2.23858 10 5 10C7.76142 10 10 7.76142 10 5C10 2.23858 7.76142 0 5 0ZM1 5C1 2.79086 2.79086 1 5 1C7.20914 1 9 2.79086 9 5C9 7.20914 7.20914 9 5 9C2.79086 9 1 7.20914 1 5Z" fill="black" fill-opacity="0.2"/>
<path d="M6.85355 3.14645C7.04882 3.34171 7.04882 3.65829 6.85355 3.85355L5.70711 5L6.85355 6.14645C7.04882 6.34171 7.04882 6.65829 6.85355 6.85355C6.65829 7.04882 6.34171 7.04882 6.14645 6.85355L5 5.70711L3.85355 6.85355C3.65829 7.04882 3.34171 7.04882 3.14645 6.85355C2.95118 6.65829 2.95118 6.34171 3.14645 6.14645L4.29289 5L3.14645 3.85355C2.95118 3.65829 2.95118 3.34171 3.14645 3.14645C3.34171 2.95118 3.65829 2.95118 3.85355 3.14645L5 4.29289L6.14645 3.14645C6.34171 2.95118 6.65829 2.95118 6.85355 3.14645ZM5 0C2.23858 0 0 2.23858 0 5C0 7.76142 2.23858 10 5 10C7.76142 10 10 7.76142 10 5C10 2.23858 7.76142 0 5 0ZM1 5C1 2.79086 2.79086 1 5 1C7.20914 1 9 2.79086 9 5C9 7.20914 7.20914 9 5 9C2.79086 9 1 7.20914 1 5Z" fill="black" fill-opacity="0.2"/>
<path d="M6.85355 3.14645C7.04882 3.34171 7.04882 3.65829 6.85355 3.85355L5.70711 5L6.85355 6.14645C7.04882 6.34171 7.04882 6.65829 6.85355 6.85355C6.65829 7.04882 6.34171 7.04882 6.14645 6.85355L5 5.70711L3.85355 6.85355C3.65829 7.04882 3.34171 7.04882 3.14645 6.85355C2.95118 6.65829 2.95118 6.34171 3.14645 6.14645L4.29289 5L3.14645 3.85355C2.95118 3.65829 2.95118 3.34171 3.14645 3.14645C3.34171 2.95118 3.65829 2.95118 3.85355 3.14645L5 4.29289L6.14645 3.14645C6.34171 2.95118 6.65829 2.95118 6.85355 3.14645ZM5 0C2.23858 0 0 2.23858 0 5C0 7.76142 2.23858 10 5 10C7.76142 10 10 7.76142 10 5C10 2.23858 7.76142 0 5 0ZM1 5C1 2.79086 2.79086 1 5 1C7.20914 1 9 2.79086 9 5C9 7.20914 7.20914 9 5 9C2.79086 9 1 7.20914 1 5Z" fill="black" fill-opacity="0.2"/>
<path d="M6.85355 3.14645C7.04882 3.34171 7.04882 3.65829 6.85355 3.85355L5.70711 5L6.85355 6.14645C7.04882 6.34171 7.04882 6.65829 6.85355 6.85355C6.65829 7.04882 6.34171 7.04882 6.14645 6.85355L5 5.70711L3.85355 6.85355C3.65829 7.04882 3.34171 7.04882 3.14645 6.85355C2.95118 6.65829 2.95118 6.34171 3.14645 6.14645L4.29289 5L3.14645 3.85355C2.95118 3.65829 2.95118 3.34171 3.14645 3.14645C3.34171 2.95118 3.65829 2.95118 3.85355 3.14645L5 4.29289L6.14645 3.14645C6.34171 2.95118 6.65829 2.95118 6.85355 3.14645ZM5 0C2.23858 0 0 2.23858 0 5C0 7.76142 2.23858 10 5 10C7.76142 10 10 7.76142 10 5C10 2.23858 7.76142 0 5 0ZM1 5C1 2.79086 2.79086 1 5 1C7.20914 1 9 2.79086 9 5C9 7.20914 7.20914 9 5 9C2.79086 9 1 7.20914 1 5Z" fill="black" fill-opacity="0.2"/>
<path d="M6.85355 3.14645C7.04882 3.34171 7.04882 3.65829 6.85355 3.85355L5.70711 5L6.85355 6.14645C7.04882 6.34171 7.04882 6.65829 6.85355 6.85355C6.65829 7.04882 6.34171 7.04882 6.14645 6.85355L5 5.70711L3.85355 6.85355C3.65829 7.04882 3.34171 7.04882 3.14645 6.85355C2.95118 6.65829 2.95118 6.34171 3.14645 6.14645L4.29289 5L3.14645 3.85355C2.95118 3.65829 2.95118 3.34171 3.14645 3.14645C3.34171 2.95118 3.65829 2.95118 3.85355 3.14645L5 4.29289L6.14645 3.14645C6.34171 2.95118 6.65829 2.95118 6.85355 3.14645ZM5 0C2.23858 0 0 2.23858 0 5C0 7.76142 2.23858 10 5 10C7.76142 10 10 7.76142 10 5C10 2.23858 7.76142 0 5 0ZM1 5C1 2.79086 2.79086 1 5 1C7.20914 1 9 2.79086 9 5C9 7.20914 7.20914 9 5 9C2.79086 9 1 7.20914 1 5Z" fill="black" fill-opacity="0.2"/>
<path d="M6.85355 3.14645C7.04882 3.34171 7.04882 3.65829 6.85355 3.85355L5.70711 5L6.85355 6.14645C7.04882 6.34171 7.04882 6.65829 6.85355 6.85355C6.65829 7.04882 6.34171 7.04882 6.14645 6.85355L5 5.70711L3.85355 6.85355C3.65829 7.04882 3.34171 7.04882 3.14645 6.85355C2.95118 6.65829 2.95118 6.34171 3.14645 6.14645L4.29289 5L3.14645 3.85355C2.95118 3.65829 2.95118 3.34171 3.14645 3.14645C3.34171 2.95118 3.65829 2.95118 3.85355 3.14645L5 4.29289L6.14645 3.14645C6.34171 2.95118 6.65829 2.95118 6.85355 3.14645ZM5 0C2.23858 0 0 2.23858 0 5C0 7.76142 2.23858 10 5 10C7.76142 10 10 7.76142 10 5C10 2.23858 7.76142 0 5 0ZM1 5C1 2.79086 2.79086 1 5 1C7.20914 1 9 2.79086 9 5C9 7.20914 7.20914 9 5 9C2.79086 9 1 7.20914 1 5Z" fill="black" fill-opacity="0.2"/>
</svg>
