<svg width="16" height="16" viewBox="0 0 16 16" fill="none" xmlns="http://www.w3.org/2000/svg">
<path d="M7.99994 0C12.4182 0 15.9999 3.58172 15.9999 8C15.9999 12.4183 12.4182 16 7.99994 16C3.58166 16 -6.10352e-05 12.4183 -6.10352e-05 8C-6.10352e-05 3.58172 3.58166 0 7.99994 0ZM11.3584 5.64645C11.1848 5.47288 10.9154 5.4536 10.7205 5.58859L10.6513 5.64645L6.99994 9.298L5.35349 7.65131L5.28424 7.59346C5.08938 7.45846 4.81995 7.47775 4.64639 7.65131C4.47282 7.82488 4.45353 8.09431 4.58853 8.28917L4.64639 8.35842L6.64639 10.3584L6.71563 10.4163C6.88614 10.5344 7.11373 10.5344 7.28424 10.4163L7.35349 10.3584L11.3584 6.35355L11.4162 6.28431C11.5512 6.08944 11.5319 5.82001 11.3584 5.64645Z" fill="white"/>
</svg>
