<svg width="9" height="15" viewBox="0 0 9 15" fill="none" xmlns="http://www.w3.org/2000/svg">
<path d="M0.980659 6.9993C0.9802 6.76565 1.06198 6.53921 1.2118 6.3593L6.23657 0.359299C6.40715 0.155083 6.65227 0.0266581 6.91801 0.00227838C7.18375 -0.0221014 7.44833 0.0595606 7.65356 0.229299C7.85879 0.399038 7.98785 0.642949 8.01235 0.907375C8.03685 1.1718 7.95478 1.43508 7.7842 1.6393L3.28201 6.9993L7.62341 12.3593C7.70689 12.4616 7.76923 12.5793 7.80684 12.7056C7.84446 12.832 7.85662 12.9645 7.84261 13.0955C7.8286 13.2265 7.78871 13.3535 7.72522 13.4691C7.66173 13.5848 7.5759 13.6868 7.47267 13.7693C7.36934 13.8609 7.24811 13.9302 7.11659 13.973C6.98507 14.0158 6.84608 14.0311 6.70834 14.018C6.5706 14.0048 6.43707 13.9635 6.31611 13.8967C6.19516 13.8298 6.08939 13.7387 6.00543 13.6293L1.1515 7.6293C1.02536 7.44422 0.965211 7.2224 0.980659 6.9993Z" fill="#202020"/>
<path d="M0.980659 6.9993C0.9802 6.76565 1.06198 6.53921 1.2118 6.3593L6.23657 0.359299C6.40715 0.155083 6.65227 0.0266581 6.91801 0.00227838C7.18375 -0.0221014 7.44833 0.0595606 7.65356 0.229299C7.85879 0.399038 7.98785 0.642949 8.01235 0.907375C8.03685 1.1718 7.95478 1.43508 7.7842 1.6393L3.28201 6.9993L7.62341 12.3593C7.70689 12.4616 7.76923 12.5793 7.80684 12.7056C7.84446 12.832 7.85662 12.9645 7.84261 13.0955C7.8286 13.2265 7.78871 13.3535 7.72522 13.4691C7.66173 13.5848 7.5759 13.6868 7.47267 13.7693C7.36934 13.8609 7.24811 13.9302 7.11659 13.973C6.98507 14.0158 6.84608 14.0311 6.70834 14.018C6.5706 14.0048 6.43707 13.9635 6.31611 13.8967C6.19516 13.8298 6.08939 13.7387 6.00543 13.6293L1.1515 7.6293C1.02536 7.44422 0.965211 7.2224 0.980659 6.9993Z" fill="black" fill-opacity="0.2"/>
<path d="M0.980659 6.9993C0.9802 6.76565 1.06198 6.53921 1.2118 6.3593L6.23657 0.359299C6.40715 0.155083 6.65227 0.0266581 6.91801 0.00227838C7.18375 -0.0221014 7.44833 0.0595606 7.65356 0.229299C7.85879 0.399038 7.98785 0.642949 8.01235 0.907375C8.03685 1.1718 7.95478 1.43508 7.7842 1.6393L3.28201 6.9993L7.62341 12.3593C7.70689 12.4616 7.76923 12.5793 7.80684 12.7056C7.84446 12.832 7.85662 12.9645 7.84261 13.0955C7.8286 13.2265 7.78871 13.3535 7.72522 13.4691C7.66173 13.5848 7.5759 13.6868 7.47267 13.7693C7.36934 13.8609 7.24811 13.9302 7.11659 13.973C6.98507 14.0158 6.84608 14.0311 6.70834 14.018C6.5706 14.0048 6.43707 13.9635 6.31611 13.8967C6.19516 13.8298 6.08939 13.7387 6.00543 13.6293L1.1515 7.6293C1.02536 7.44422 0.965211 7.2224 0.980659 6.9993Z" fill="black" fill-opacity="0.2"/>
<path d="M0.980659 6.9993C0.9802 6.76565 1.06198 6.53921 1.2118 6.3593L6.23657 0.359299C6.40715 0.155083 6.65227 0.0266581 6.91801 0.00227838C7.18375 -0.0221014 7.44833 0.0595606 7.65356 0.229299C7.85879 0.399038 7.98785 0.642949 8.01235 0.907375C8.03685 1.1718 7.95478 1.43508 7.7842 1.6393L3.28201 6.9993L7.62341 12.3593C7.70689 12.4616 7.76923 12.5793 7.80684 12.7056C7.84446 12.832 7.85662 12.9645 7.84261 13.0955C7.8286 13.2265 7.78871 13.3535 7.72522 13.4691C7.66173 13.5848 7.5759 13.6868 7.47267 13.7693C7.36934 13.8609 7.24811 13.9302 7.11659 13.973C6.98507 14.0158 6.84608 14.0311 6.70834 14.018C6.5706 14.0048 6.43707 13.9635 6.31611 13.8967C6.19516 13.8298 6.08939 13.7387 6.00543 13.6293L1.1515 7.6293C1.02536 7.44422 0.965211 7.2224 0.980659 6.9993Z" fill="black" fill-opacity="0.2"/>
<path d="M0.980659 6.9993C0.9802 6.76565 1.06198 6.53921 1.2118 6.3593L6.23657 0.359299C6.40715 0.155083 6.65227 0.0266581 6.91801 0.00227838C7.18375 -0.0221014 7.44833 0.0595606 7.65356 0.229299C7.85879 0.399038 7.98785 0.642949 8.01235 0.907375C8.03685 1.1718 7.95478 1.43508 7.7842 1.6393L3.28201 6.9993L7.62341 12.3593C7.70689 12.4616 7.76923 12.5793 7.80684 12.7056C7.84446 12.832 7.85662 12.9645 7.84261 13.0955C7.8286 13.2265 7.78871 13.3535 7.72522 13.4691C7.66173 13.5848 7.5759 13.6868 7.47267 13.7693C7.36934 13.8609 7.24811 13.9302 7.11659 13.973C6.98507 14.0158 6.84608 14.0311 6.70834 14.018C6.5706 14.0048 6.43707 13.9635 6.31611 13.8967C6.19516 13.8298 6.08939 13.7387 6.00543 13.6293L1.1515 7.6293C1.02536 7.44422 0.965211 7.2224 0.980659 6.9993Z" fill="black" fill-opacity="0.2"/>
<path d="M0.980659 6.9993C0.9802 6.76565 1.06198 6.53921 1.2118 6.3593L6.23657 0.359299C6.40715 0.155083 6.65227 0.0266581 6.91801 0.00227838C7.18375 -0.0221014 7.44833 0.0595606 7.65356 0.229299C7.85879 0.399038 7.98785 0.642949 8.01235 0.907375C8.03685 1.1718 7.95478 1.43508 7.7842 1.6393L3.28201 6.9993L7.62341 12.3593C7.70689 12.4616 7.76923 12.5793 7.80684 12.7056C7.84446 12.832 7.85662 12.9645 7.84261 13.0955C7.8286 13.2265 7.78871 13.3535 7.72522 13.4691C7.66173 13.5848 7.5759 13.6868 7.47267 13.7693C7.36934 13.8609 7.24811 13.9302 7.11659 13.973C6.98507 14.0158 6.84608 14.0311 6.70834 14.018C6.5706 14.0048 6.43707 13.9635 6.31611 13.8967C6.19516 13.8298 6.08939 13.7387 6.00543 13.6293L1.1515 7.6293C1.02536 7.44422 0.965211 7.2224 0.980659 6.9993Z" fill="black" fill-opacity="0.2"/>
<path d="M0.980659 6.9993C0.9802 6.76565 1.06198 6.53921 1.2118 6.3593L6.23657 0.359299C6.40715 0.155083 6.65227 0.0266581 6.91801 0.00227838C7.18375 -0.0221014 7.44833 0.0595606 7.65356 0.229299C7.85879 0.399038 7.98785 0.642949 8.01235 0.907375C8.03685 1.1718 7.95478 1.43508 7.7842 1.6393L3.28201 6.9993L7.62341 12.3593C7.70689 12.4616 7.76923 12.5793 7.80684 12.7056C7.84446 12.832 7.85662 12.9645 7.84261 13.0955C7.8286 13.2265 7.78871 13.3535 7.72522 13.4691C7.66173 13.5848 7.5759 13.6868 7.47267 13.7693C7.36934 13.8609 7.24811 13.9302 7.11659 13.973C6.98507 14.0158 6.84608 14.0311 6.70834 14.018C6.5706 14.0048 6.43707 13.9635 6.31611 13.8967C6.19516 13.8298 6.08939 13.7387 6.00543 13.6293L1.1515 7.6293C1.02536 7.44422 0.965211 7.2224 0.980659 6.9993Z" fill="black" fill-opacity="0.2"/>
<path d="M0.980659 6.9993C0.9802 6.76565 1.06198 6.53921 1.2118 6.3593L6.23657 0.359299C6.40715 0.155083 6.65227 0.0266581 6.91801 0.00227838C7.18375 -0.0221014 7.44833 0.0595606 7.65356 0.229299C7.85879 0.399038 7.98785 0.642949 8.01235 0.907375C8.03685 1.1718 7.95478 1.43508 7.7842 1.6393L3.28201 6.9993L7.62341 12.3593C7.70689 12.4616 7.76923 12.5793 7.80684 12.7056C7.84446 12.832 7.85662 12.9645 7.84261 13.0955C7.8286 13.2265 7.78871 13.3535 7.72522 13.4691C7.66173 13.5848 7.5759 13.6868 7.47267 13.7693C7.36934 13.8609 7.24811 13.9302 7.11659 13.973C6.98507 14.0158 6.84608 14.0311 6.70834 14.018C6.5706 14.0048 6.43707 13.9635 6.31611 13.8967C6.19516 13.8298 6.08939 13.7387 6.00543 13.6293L1.1515 7.6293C1.02536 7.44422 0.965211 7.2224 0.980659 6.9993Z" fill="black" fill-opacity="0.2"/>
<path d="M0.980659 6.9993C0.9802 6.76565 1.06198 6.53921 1.2118 6.3593L6.23657 0.359299C6.40715 0.155083 6.65227 0.0266581 6.91801 0.00227838C7.18375 -0.0221014 7.44833 0.0595606 7.65356 0.229299C7.85879 0.399038 7.98785 0.642949 8.01235 0.907375C8.03685 1.1718 7.95478 1.43508 7.7842 1.6393L3.28201 6.9993L7.62341 12.3593C7.70689 12.4616 7.76923 12.5793 7.80684 12.7056C7.84446 12.832 7.85662 12.9645 7.84261 13.0955C7.8286 13.2265 7.78871 13.3535 7.72522 13.4691C7.66173 13.5848 7.5759 13.6868 7.47267 13.7693C7.36934 13.8609 7.24811 13.9302 7.11659 13.973C6.98507 14.0158 6.84608 14.0311 6.70834 14.018C6.5706 14.0048 6.43707 13.9635 6.31611 13.8967C6.19516 13.8298 6.08939 13.7387 6.00543 13.6293L1.1515 7.6293C1.02536 7.44422 0.965211 7.2224 0.980659 6.9993Z" fill="black" fill-opacity="0.2"/>
</svg>
