<svg width="9" height="15" viewBox="0 0 9 15" fill="none" xmlns="http://www.w3.org/2000/svg">
<path d="M8.01934 8.0007C8.0198 8.23435 7.93802 8.46079 7.7882 8.6407L2.76343 14.6407C2.59285 14.8449 2.34773 14.9733 2.08199 14.9977C1.81625 15.0221 1.55167 14.9404 1.34644 14.7707C1.14121 14.601 1.01215 14.3571 0.987651 14.0926C0.96315 13.8282 1.04522 13.5649 1.2158 13.3607L5.71799 8.0007L1.37659 2.6407C1.29311 2.53841 1.23077 2.42072 1.19316 2.29438C1.15554 2.16804 1.14338 2.03555 1.15739 1.90452C1.1714 1.77349 1.21129 1.64651 1.27478 1.53087C1.33827 1.41523 1.4241 1.31322 1.52733 1.2307C1.63066 1.13912 1.75189 1.06976 1.88341 1.02697C2.01493 0.984176 2.15392 0.968872 2.29166 0.982016C2.4294 0.995158 2.56293 1.03646 2.68389 1.10335C2.80484 1.17023 2.91061 1.26125 2.99457 1.3707L7.8485 7.3707C7.97464 7.55578 8.03479 7.7776 8.01934 8.0007Z" fill="#202020" fill-opacity="0.5"/>
</svg>
