<svg width="20" height="20" viewBox="0 0 20 20" fill="none" xmlns="http://www.w3.org/2000/svg">
<path d="M8.3089 0C5.68669 0 3.56096 2.15613 3.56096 4.81586C3.56096 7.47558 5.68669 9.63172 8.3089 9.63172C10.9311 9.63172 13.0568 7.47558 13.0568 4.81586C13.0568 2.15613 10.9311 0 8.3089 0ZM4.74794 4.81586C4.74794 2.82106 6.34224 1.20396 8.3089 1.20396C10.2756 1.20396 11.8699 2.82106 11.8699 4.81586C11.8699 6.81065 10.2756 8.42775 8.3089 8.42775C6.34224 8.42775 4.74794 6.81065 4.74794 4.81586ZM2.38433 10.8357C1.07203 10.8357 0 11.9034 0 13.2436C0 15.2798 0.988534 16.8149 2.53421 17.8146C4.05589 18.7987 6.10735 19.2634 8.3089 19.2634C8.79658 19.2634 9.27689 19.2406 9.74572 19.1944C9.46382 18.8386 9.21742 18.4526 9.01199 18.042C8.7813 18.0536 8.54679 18.0595 8.3089 18.0595C6.24935 18.0595 4.4431 17.6212 3.17236 16.7994C1.92561 15.9931 1.18699 14.8194 1.18699 13.2436C1.18699 12.5775 1.71859 12.0396 2.38433 12.0396L9.02075 12.0397C9.23784 11.6089 9.50008 11.2054 9.80113 10.8357L2.38433 10.8357ZM10.2497 14.3512C11.5411 14.0166 12.3079 12.6694 11.9479 11.3678L11.7625 10.6974C12.0641 10.4623 12.391 10.2609 12.7381 10.0985L13.1385 10.5295C14.075 11.5373 15.6546 11.5382 16.5921 10.5313L16.9774 10.1174C17.3309 10.2866 17.663 10.4964 17.9684 10.7411L17.8186 11.2496C17.4277 12.5765 18.2182 13.9636 19.5469 14.2823L19.9612 14.3816C19.9868 14.6005 20 14.8233 20 15.0494C20 15.2372 19.9909 15.4228 19.9731 15.6057L19.4265 15.7473C18.1351 16.0819 17.3683 17.429 17.7283 18.7307L17.9136 19.4009C17.6121 19.6361 17.2852 19.8376 16.9381 20L16.5377 19.569C15.6012 18.5612 14.0216 18.5603 13.0841 19.5672L12.6983 19.9815C12.3449 19.8124 12.0129 19.6026 11.7076 19.358L11.8576 18.8489C12.2485 17.522 11.458 16.1349 10.1292 15.8162L9.71433 15.7167C9.68874 15.498 9.67556 15.2753 9.67556 15.0494C9.67556 14.8615 9.68467 14.6759 9.70245 14.493L10.2497 14.3512ZM16.0248 15.0494C16.0248 14.3845 15.4933 13.8454 14.8378 13.8454C14.1822 13.8454 13.6508 14.3845 13.6508 15.0494C13.6508 15.7143 14.1822 16.2534 14.8378 16.2534C15.4933 16.2534 16.0248 15.7143 16.0248 15.0494Z" fill="white"/>
</svg>
