<svg width="26" height="25" viewBox="0 0 26 25" fill="none" xmlns="http://www.w3.org/2000/svg">
<path d="M13.6136 23.7189C13.2181 23.3107 12.8685 22.8578 12.5733 22.3684C11.9185 22.4543 11.2255 22.5 10.5 22.5C5.38879 22.5 2 20.389 2 17.7146V17L2.00687 16.8555C2.07955 16.0949 2.7203 15.5 3.5 15.5H12.1241C12.358 14.9645 12.6527 14.4616 12.9995 14H3.5C1.84315 14 0.5 15.3431 0.5 17V17.7146C0.5 21.4333 4.71053 24 10.5 24C11.601 24 12.6449 23.9021 13.6136 23.7189ZM16.5 6C16.5 2.68629 13.8137 0 10.5 0C7.18629 0 4.5 2.68629 4.5 6C4.5 9.31371 7.18629 12 10.5 12C13.8137 12 16.5 9.31371 16.5 6ZM6 6C6 3.51472 8.01472 1.5 10.5 1.5C12.9853 1.5 15 3.51472 15 6C15 8.48528 12.9853 10.5 10.5 10.5C8.01472 10.5 6 8.48528 6 6ZM19 25C22.5899 25 25.5 22.0899 25.5 18.5C25.5 14.9101 22.5899 12 19 12C15.4101 12 12.5 14.9101 12.5 18.5C12.5 22.0899 15.4101 25 19 25ZM19 14C19.2761 14 19.5 14.2239 19.5 14.5V18H23C23.2761 18 23.5 18.2239 23.5 18.5C23.5 18.7761 23.2761 19 23 19H19.5V22.5C19.5 22.7761 19.2761 23 19 23C18.7239 23 18.5 22.7761 18.5 22.5V19H15C14.7239 19 14.5 18.7761 14.5 18.5C14.5 18.2239 14.7239 18 15 18H18.5V14.5C18.5 14.2239 18.7239 14 19 14Z" fill="#202020"/>
<path d="M13.6136 23.7189C13.2181 23.3107 12.8685 22.8578 12.5733 22.3684C11.9185 22.4543 11.2255 22.5 10.5 22.5C5.38879 22.5 2 20.389 2 17.7146V17L2.00687 16.8555C2.07955 16.0949 2.7203 15.5 3.5 15.5H12.1241C12.358 14.9645 12.6527 14.4616 12.9995 14H3.5C1.84315 14 0.5 15.3431 0.5 17V17.7146C0.5 21.4333 4.71053 24 10.5 24C11.601 24 12.6449 23.9021 13.6136 23.7189ZM16.5 6C16.5 2.68629 13.8137 0 10.5 0C7.18629 0 4.5 2.68629 4.5 6C4.5 9.31371 7.18629 12 10.5 12C13.8137 12 16.5 9.31371 16.5 6ZM6 6C6 3.51472 8.01472 1.5 10.5 1.5C12.9853 1.5 15 3.51472 15 6C15 8.48528 12.9853 10.5 10.5 10.5C8.01472 10.5 6 8.48528 6 6ZM19 25C22.5899 25 25.5 22.0899 25.5 18.5C25.5 14.9101 22.5899 12 19 12C15.4101 12 12.5 14.9101 12.5 18.5C12.5 22.0899 15.4101 25 19 25ZM19 14C19.2761 14 19.5 14.2239 19.5 14.5V18H23C23.2761 18 23.5 18.2239 23.5 18.5C23.5 18.7761 23.2761 19 23 19H19.5V22.5C19.5 22.7761 19.2761 23 19 23C18.7239 23 18.5 22.7761 18.5 22.5V19H15C14.7239 19 14.5 18.7761 14.5 18.5C14.5 18.2239 14.7239 18 15 18H18.5V14.5C18.5 14.2239 18.7239 14 19 14Z" fill="black" fill-opacity="0.2"/>
<path d="M13.6136 23.7189C13.2181 23.3107 12.8685 22.8578 12.5733 22.3684C11.9185 22.4543 11.2255 22.5 10.5 22.5C5.38879 22.5 2 20.389 2 17.7146V17L2.00687 16.8555C2.07955 16.0949 2.7203 15.5 3.5 15.5H12.1241C12.358 14.9645 12.6527 14.4616 12.9995 14H3.5C1.84315 14 0.5 15.3431 0.5 17V17.7146C0.5 21.4333 4.71053 24 10.5 24C11.601 24 12.6449 23.9021 13.6136 23.7189ZM16.5 6C16.5 2.68629 13.8137 0 10.5 0C7.18629 0 4.5 2.68629 4.5 6C4.5 9.31371 7.18629 12 10.5 12C13.8137 12 16.5 9.31371 16.5 6ZM6 6C6 3.51472 8.01472 1.5 10.5 1.5C12.9853 1.5 15 3.51472 15 6C15 8.48528 12.9853 10.5 10.5 10.5C8.01472 10.5 6 8.48528 6 6ZM19 25C22.5899 25 25.5 22.0899 25.5 18.5C25.5 14.9101 22.5899 12 19 12C15.4101 12 12.5 14.9101 12.5 18.5C12.5 22.0899 15.4101 25 19 25ZM19 14C19.2761 14 19.5 14.2239 19.5 14.5V18H23C23.2761 18 23.5 18.2239 23.5 18.5C23.5 18.7761 23.2761 19 23 19H19.5V22.5C19.5 22.7761 19.2761 23 19 23C18.7239 23 18.5 22.7761 18.5 22.5V19H15C14.7239 19 14.5 18.7761 14.5 18.5C14.5 18.2239 14.7239 18 15 18H18.5V14.5C18.5 14.2239 18.7239 14 19 14Z" fill="black" fill-opacity="0.2"/>
<path d="M13.6136 23.7189C13.2181 23.3107 12.8685 22.8578 12.5733 22.3684C11.9185 22.4543 11.2255 22.5 10.5 22.5C5.38879 22.5 2 20.389 2 17.7146V17L2.00687 16.8555C2.07955 16.0949 2.7203 15.5 3.5 15.5H12.1241C12.358 14.9645 12.6527 14.4616 12.9995 14H3.5C1.84315 14 0.5 15.3431 0.5 17V17.7146C0.5 21.4333 4.71053 24 10.5 24C11.601 24 12.6449 23.9021 13.6136 23.7189ZM16.5 6C16.5 2.68629 13.8137 0 10.5 0C7.18629 0 4.5 2.68629 4.5 6C4.5 9.31371 7.18629 12 10.5 12C13.8137 12 16.5 9.31371 16.5 6ZM6 6C6 3.51472 8.01472 1.5 10.5 1.5C12.9853 1.5 15 3.51472 15 6C15 8.48528 12.9853 10.5 10.5 10.5C8.01472 10.5 6 8.48528 6 6ZM19 25C22.5899 25 25.5 22.0899 25.5 18.5C25.5 14.9101 22.5899 12 19 12C15.4101 12 12.5 14.9101 12.5 18.5C12.5 22.0899 15.4101 25 19 25ZM19 14C19.2761 14 19.5 14.2239 19.5 14.5V18H23C23.2761 18 23.5 18.2239 23.5 18.5C23.5 18.7761 23.2761 19 23 19H19.5V22.5C19.5 22.7761 19.2761 23 19 23C18.7239 23 18.5 22.7761 18.5 22.5V19H15C14.7239 19 14.5 18.7761 14.5 18.5C14.5 18.2239 14.7239 18 15 18H18.5V14.5C18.5 14.2239 18.7239 14 19 14Z" fill="black" fill-opacity="0.2"/>
<path d="M13.6136 23.7189C13.2181 23.3107 12.8685 22.8578 12.5733 22.3684C11.9185 22.4543 11.2255 22.5 10.5 22.5C5.38879 22.5 2 20.389 2 17.7146V17L2.00687 16.8555C2.07955 16.0949 2.7203 15.5 3.5 15.5H12.1241C12.358 14.9645 12.6527 14.4616 12.9995 14H3.5C1.84315 14 0.5 15.3431 0.5 17V17.7146C0.5 21.4333 4.71053 24 10.5 24C11.601 24 12.6449 23.9021 13.6136 23.7189ZM16.5 6C16.5 2.68629 13.8137 0 10.5 0C7.18629 0 4.5 2.68629 4.5 6C4.5 9.31371 7.18629 12 10.5 12C13.8137 12 16.5 9.31371 16.5 6ZM6 6C6 3.51472 8.01472 1.5 10.5 1.5C12.9853 1.5 15 3.51472 15 6C15 8.48528 12.9853 10.5 10.5 10.5C8.01472 10.5 6 8.48528 6 6ZM19 25C22.5899 25 25.5 22.0899 25.5 18.5C25.5 14.9101 22.5899 12 19 12C15.4101 12 12.5 14.9101 12.5 18.5C12.5 22.0899 15.4101 25 19 25ZM19 14C19.2761 14 19.5 14.2239 19.5 14.5V18H23C23.2761 18 23.5 18.2239 23.5 18.5C23.5 18.7761 23.2761 19 23 19H19.5V22.5C19.5 22.7761 19.2761 23 19 23C18.7239 23 18.5 22.7761 18.5 22.5V19H15C14.7239 19 14.5 18.7761 14.5 18.5C14.5 18.2239 14.7239 18 15 18H18.5V14.5C18.5 14.2239 18.7239 14 19 14Z" fill="black" fill-opacity="0.2"/>
<path d="M13.6136 23.7189C13.2181 23.3107 12.8685 22.8578 12.5733 22.3684C11.9185 22.4543 11.2255 22.5 10.5 22.5C5.38879 22.5 2 20.389 2 17.7146V17L2.00687 16.8555C2.07955 16.0949 2.7203 15.5 3.5 15.5H12.1241C12.358 14.9645 12.6527 14.4616 12.9995 14H3.5C1.84315 14 0.5 15.3431 0.5 17V17.7146C0.5 21.4333 4.71053 24 10.5 24C11.601 24 12.6449 23.9021 13.6136 23.7189ZM16.5 6C16.5 2.68629 13.8137 0 10.5 0C7.18629 0 4.5 2.68629 4.5 6C4.5 9.31371 7.18629 12 10.5 12C13.8137 12 16.5 9.31371 16.5 6ZM6 6C6 3.51472 8.01472 1.5 10.5 1.5C12.9853 1.5 15 3.51472 15 6C15 8.48528 12.9853 10.5 10.5 10.5C8.01472 10.5 6 8.48528 6 6ZM19 25C22.5899 25 25.5 22.0899 25.5 18.5C25.5 14.9101 22.5899 12 19 12C15.4101 12 12.5 14.9101 12.5 18.5C12.5 22.0899 15.4101 25 19 25ZM19 14C19.2761 14 19.5 14.2239 19.5 14.5V18H23C23.2761 18 23.5 18.2239 23.5 18.5C23.5 18.7761 23.2761 19 23 19H19.5V22.5C19.5 22.7761 19.2761 23 19 23C18.7239 23 18.5 22.7761 18.5 22.5V19H15C14.7239 19 14.5 18.7761 14.5 18.5C14.5 18.2239 14.7239 18 15 18H18.5V14.5C18.5 14.2239 18.7239 14 19 14Z" fill="black" fill-opacity="0.2"/>
<path d="M13.6136 23.7189C13.2181 23.3107 12.8685 22.8578 12.5733 22.3684C11.9185 22.4543 11.2255 22.5 10.5 22.5C5.38879 22.5 2 20.389 2 17.7146V17L2.00687 16.8555C2.07955 16.0949 2.7203 15.5 3.5 15.5H12.1241C12.358 14.9645 12.6527 14.4616 12.9995 14H3.5C1.84315 14 0.5 15.3431 0.5 17V17.7146C0.5 21.4333 4.71053 24 10.5 24C11.601 24 12.6449 23.9021 13.6136 23.7189ZM16.5 6C16.5 2.68629 13.8137 0 10.5 0C7.18629 0 4.5 2.68629 4.5 6C4.5 9.31371 7.18629 12 10.5 12C13.8137 12 16.5 9.31371 16.5 6ZM6 6C6 3.51472 8.01472 1.5 10.5 1.5C12.9853 1.5 15 3.51472 15 6C15 8.48528 12.9853 10.5 10.5 10.5C8.01472 10.5 6 8.48528 6 6ZM19 25C22.5899 25 25.5 22.0899 25.5 18.5C25.5 14.9101 22.5899 12 19 12C15.4101 12 12.5 14.9101 12.5 18.5C12.5 22.0899 15.4101 25 19 25ZM19 14C19.2761 14 19.5 14.2239 19.5 14.5V18H23C23.2761 18 23.5 18.2239 23.5 18.5C23.5 18.7761 23.2761 19 23 19H19.5V22.5C19.5 22.7761 19.2761 23 19 23C18.7239 23 18.5 22.7761 18.5 22.5V19H15C14.7239 19 14.5 18.7761 14.5 18.5C14.5 18.2239 14.7239 18 15 18H18.5V14.5C18.5 14.2239 18.7239 14 19 14Z" fill="black" fill-opacity="0.2"/>
<path d="M13.6136 23.7189C13.2181 23.3107 12.8685 22.8578 12.5733 22.3684C11.9185 22.4543 11.2255 22.5 10.5 22.5C5.38879 22.5 2 20.389 2 17.7146V17L2.00687 16.8555C2.07955 16.0949 2.7203 15.5 3.5 15.5H12.1241C12.358 14.9645 12.6527 14.4616 12.9995 14H3.5C1.84315 14 0.5 15.3431 0.5 17V17.7146C0.5 21.4333 4.71053 24 10.5 24C11.601 24 12.6449 23.9021 13.6136 23.7189ZM16.5 6C16.5 2.68629 13.8137 0 10.5 0C7.18629 0 4.5 2.68629 4.5 6C4.5 9.31371 7.18629 12 10.5 12C13.8137 12 16.5 9.31371 16.5 6ZM6 6C6 3.51472 8.01472 1.5 10.5 1.5C12.9853 1.5 15 3.51472 15 6C15 8.48528 12.9853 10.5 10.5 10.5C8.01472 10.5 6 8.48528 6 6ZM19 25C22.5899 25 25.5 22.0899 25.5 18.5C25.5 14.9101 22.5899 12 19 12C15.4101 12 12.5 14.9101 12.5 18.5C12.5 22.0899 15.4101 25 19 25ZM19 14C19.2761 14 19.5 14.2239 19.5 14.5V18H23C23.2761 18 23.5 18.2239 23.5 18.5C23.5 18.7761 23.2761 19 23 19H19.5V22.5C19.5 22.7761 19.2761 23 19 23C18.7239 23 18.5 22.7761 18.5 22.5V19H15C14.7239 19 14.5 18.7761 14.5 18.5C14.5 18.2239 14.7239 18 15 18H18.5V14.5C18.5 14.2239 18.7239 14 19 14Z" fill="black" fill-opacity="0.2"/>
<path d="M13.6136 23.7189C13.2181 23.3107 12.8685 22.8578 12.5733 22.3684C11.9185 22.4543 11.2255 22.5 10.5 22.5C5.38879 22.5 2 20.389 2 17.7146V17L2.00687 16.8555C2.07955 16.0949 2.7203 15.5 3.5 15.5H12.1241C12.358 14.9645 12.6527 14.4616 12.9995 14H3.5C1.84315 14 0.5 15.3431 0.5 17V17.7146C0.5 21.4333 4.71053 24 10.5 24C11.601 24 12.6449 23.9021 13.6136 23.7189ZM16.5 6C16.5 2.68629 13.8137 0 10.5 0C7.18629 0 4.5 2.68629 4.5 6C4.5 9.31371 7.18629 12 10.5 12C13.8137 12 16.5 9.31371 16.5 6ZM6 6C6 3.51472 8.01472 1.5 10.5 1.5C12.9853 1.5 15 3.51472 15 6C15 8.48528 12.9853 10.5 10.5 10.5C8.01472 10.5 6 8.48528 6 6ZM19 25C22.5899 25 25.5 22.0899 25.5 18.5C25.5 14.9101 22.5899 12 19 12C15.4101 12 12.5 14.9101 12.5 18.5C12.5 22.0899 15.4101 25 19 25ZM19 14C19.2761 14 19.5 14.2239 19.5 14.5V18H23C23.2761 18 23.5 18.2239 23.5 18.5C23.5 18.7761 23.2761 19 23 19H19.5V22.5C19.5 22.7761 19.2761 23 19 23C18.7239 23 18.5 22.7761 18.5 22.5V19H15C14.7239 19 14.5 18.7761 14.5 18.5C14.5 18.2239 14.7239 18 15 18H18.5V14.5C18.5 14.2239 18.7239 14 19 14Z" fill="black" fill-opacity="0.2"/>
</svg>
