<svg width="16" height="16" viewBox="0 0 16 16" fill="none" xmlns="http://www.w3.org/2000/svg">
<path d="M4.46551 0.317174C4.39034 0.125831 4.20571 0 4.00013 0C3.79456 0 3.60993 0.125831 3.53476 0.317174L0.784758 7.31717C0.683786 7.57419 0.810288 7.8644 1.06731 7.96538C1.32433 8.06635 1.61454 7.93985 1.71551 7.68283L2.37662 6H5.62365L6.28476 7.68283C6.38573 7.93985 6.67594 8.06635 6.93296 7.96538C7.18998 7.8644 7.31648 7.57419 7.21551 7.31717L4.46551 0.317174ZM4.00013 1.86742L5.23079 5H2.76948L4.00013 1.86742ZM2.00012 9C1.72398 9 1.50012 9.22386 1.50012 9.5C1.50012 9.77614 1.72398 10 2.00012 10H5.06586L1.5841 15.2227C1.48181 15.3761 1.47228 15.5734 1.55929 15.7359C1.6463 15.8985 1.81573 16 2.00012 16H6.00012C6.27627 16 6.50012 15.7761 6.50012 15.5C6.50012 15.2239 6.27627 15 6.00012 15H2.93438L6.41615 9.77735C6.51843 9.62392 6.52797 9.42665 6.44096 9.26407C6.35395 9.10149 6.18452 9 6.00012 9H2.00012ZM12.5 0C12.7761 0 13 0.223858 13 0.5V14.2929L15.1464 12.1464C15.3417 11.9512 15.6583 11.9512 15.8536 12.1464C16.0488 12.3417 16.0488 12.6583 15.8536 12.8536L12.8536 15.8536C12.6583 16.0488 12.3417 16.0488 12.1464 15.8536L9.14645 12.8536C8.95118 12.6583 8.95118 12.3417 9.14645 12.1464C9.34171 11.9512 9.65829 11.9512 9.85355 12.1464L12 14.2929V0.5C12 0.223858 12.2239 0 12.5 0Z" fill="#242424"/>
</svg>
