<svg width="18" height="20" viewBox="0 0 18 20" fill="none" xmlns="http://www.w3.org/2000/svg">
<path d="M8.99987 -0.00376892C13.0498 -0.00376892 16.3565 3.19097 16.4957 7.24528L16.4999 7.49623V11.5932L17.8799 14.7492C17.9489 14.9071 17.9846 15.0776 17.9846 15.25C17.9846 15.9404 17.4249 16.5 16.7346 16.5L11.9999 16.5015C11.9999 18.1584 10.6567 19.5015 8.99987 19.5015C7.40219 19.5015 6.09621 18.2526 6.00496 16.6778L5.99941 16.4992L1.27473 16.5C1.10339 16.5 0.933883 16.4648 0.77673 16.3965C0.143528 16.1215 -0.146821 15.3852 0.128218 14.752L1.49987 11.5942V7.49612C1.50046 3.34133 4.85195 -0.00376892 8.99987 -0.00376892ZM10.4994 16.4992L7.49987 16.5015C7.49987 17.3299 8.17144 18.0015 8.99987 18.0015C9.77956 18.0015 10.4203 17.4066 10.493 16.646L10.4994 16.4992ZM8.99987 1.49623C5.67971 1.49623 3.00034 4.17048 2.99987 7.49623V11.9059L1.65589 15H16.3524L14.9999 11.9068L15 7.50909L14.9962 7.28389C14.8852 4.05041 12.2414 1.49623 8.99987 1.49623Z" fill="#242424"/>
</svg>
