<svg width="18" height="14" viewBox="0 0 18 14" fill="none" xmlns="http://www.w3.org/2000/svg">
<path d="M0 0.75C0 0.335786 0.335786 0 0.75 0H17.25C17.6642 0 18 0.335786 18 0.75C18 1.16421 17.6642 1.5 17.25 1.5H0.75C0.335786 1.5 0 1.16421 0 0.75ZM0 6.75C0 6.33579 0.335786 6 0.75 6H17.25C17.6642 6 18 6.33579 18 6.75C18 7.16421 17.6642 7.5 17.25 7.5H0.75C0.335786 7.5 0 7.16421 0 6.75ZM0 12.75C0 12.3358 0.335786 12 0.75 12H17.25C17.6642 12 18 12.3358 18 12.75C18 13.1642 17.6642 13.5 17.25 13.5H0.75C0.335786 13.5 0 13.1642 0 12.75Z" fill="white"/>
</svg>
