<svg width="16" height="17" viewBox="0 0 16 17" fill="none" xmlns="http://www.w3.org/2000/svg">
<path d="M8 0.871094C12.4183 0.871094 16 4.45282 16 8.87109C16 13.2894 12.4183 16.8711 8 16.8711C3.58172 16.8711 0 13.2894 0 8.87109C0 4.45282 3.58172 0.871094 8 0.871094ZM8 1.87109C4.13401 1.87109 1 5.0051 1 8.87109C1 12.7371 4.13401 15.8711 8 15.8711C11.866 15.8711 15 12.7371 15 8.87109C15 5.0051 11.866 1.87109 8 1.87109ZM7.5 3.87109C7.74546 3.87109 7.94961 4.04797 7.99194 4.28122L8 4.37109V8.87109H10.5C10.7761 8.87109 11 9.09495 11 9.37109C11 9.61655 10.8231 9.8207 10.5899 9.86304L10.5 9.87109H7.5C7.25454 9.87109 7.05039 9.69422 7.00806 9.46097L7 9.37109V4.37109C7 4.09495 7.22386 3.87109 7.5 3.87109Z" fill="#202020"/>
<path d="M8 0.871094C12.4183 0.871094 16 4.45282 16 8.87109C16 13.2894 12.4183 16.8711 8 16.8711C3.58172 16.8711 0 13.2894 0 8.87109C0 4.45282 3.58172 0.871094 8 0.871094ZM8 1.87109C4.13401 1.87109 1 5.0051 1 8.87109C1 12.7371 4.13401 15.8711 8 15.8711C11.866 15.8711 15 12.7371 15 8.87109C15 5.0051 11.866 1.87109 8 1.87109ZM7.5 3.87109C7.74546 3.87109 7.94961 4.04797 7.99194 4.28122L8 4.37109V8.87109H10.5C10.7761 8.87109 11 9.09495 11 9.37109C11 9.61655 10.8231 9.8207 10.5899 9.86304L10.5 9.87109H7.5C7.25454 9.87109 7.05039 9.69422 7.00806 9.46097L7 9.37109V4.37109C7 4.09495 7.22386 3.87109 7.5 3.87109Z" fill="black" fill-opacity="0.2"/>
<path d="M8 0.871094C12.4183 0.871094 16 4.45282 16 8.87109C16 13.2894 12.4183 16.8711 8 16.8711C3.58172 16.8711 0 13.2894 0 8.87109C0 4.45282 3.58172 0.871094 8 0.871094ZM8 1.87109C4.13401 1.87109 1 5.0051 1 8.87109C1 12.7371 4.13401 15.8711 8 15.8711C11.866 15.8711 15 12.7371 15 8.87109C15 5.0051 11.866 1.87109 8 1.87109ZM7.5 3.87109C7.74546 3.87109 7.94961 4.04797 7.99194 4.28122L8 4.37109V8.87109H10.5C10.7761 8.87109 11 9.09495 11 9.37109C11 9.61655 10.8231 9.8207 10.5899 9.86304L10.5 9.87109H7.5C7.25454 9.87109 7.05039 9.69422 7.00806 9.46097L7 9.37109V4.37109C7 4.09495 7.22386 3.87109 7.5 3.87109Z" fill="black" fill-opacity="0.2"/>
<path d="M8 0.871094C12.4183 0.871094 16 4.45282 16 8.87109C16 13.2894 12.4183 16.8711 8 16.8711C3.58172 16.8711 0 13.2894 0 8.87109C0 4.45282 3.58172 0.871094 8 0.871094ZM8 1.87109C4.13401 1.87109 1 5.0051 1 8.87109C1 12.7371 4.13401 15.8711 8 15.8711C11.866 15.8711 15 12.7371 15 8.87109C15 5.0051 11.866 1.87109 8 1.87109ZM7.5 3.87109C7.74546 3.87109 7.94961 4.04797 7.99194 4.28122L8 4.37109V8.87109H10.5C10.7761 8.87109 11 9.09495 11 9.37109C11 9.61655 10.8231 9.8207 10.5899 9.86304L10.5 9.87109H7.5C7.25454 9.87109 7.05039 9.69422 7.00806 9.46097L7 9.37109V4.37109C7 4.09495 7.22386 3.87109 7.5 3.87109Z" fill="black" fill-opacity="0.2"/>
<path d="M8 0.871094C12.4183 0.871094 16 4.45282 16 8.87109C16 13.2894 12.4183 16.8711 8 16.8711C3.58172 16.8711 0 13.2894 0 8.87109C0 4.45282 3.58172 0.871094 8 0.871094ZM8 1.87109C4.13401 1.87109 1 5.0051 1 8.87109C1 12.7371 4.13401 15.8711 8 15.8711C11.866 15.8711 15 12.7371 15 8.87109C15 5.0051 11.866 1.87109 8 1.87109ZM7.5 3.87109C7.74546 3.87109 7.94961 4.04797 7.99194 4.28122L8 4.37109V8.87109H10.5C10.7761 8.87109 11 9.09495 11 9.37109C11 9.61655 10.8231 9.8207 10.5899 9.86304L10.5 9.87109H7.5C7.25454 9.87109 7.05039 9.69422 7.00806 9.46097L7 9.37109V4.37109C7 4.09495 7.22386 3.87109 7.5 3.87109Z" fill="black" fill-opacity="0.2"/>
<path d="M8 0.871094C12.4183 0.871094 16 4.45282 16 8.87109C16 13.2894 12.4183 16.8711 8 16.8711C3.58172 16.8711 0 13.2894 0 8.87109C0 4.45282 3.58172 0.871094 8 0.871094ZM8 1.87109C4.13401 1.87109 1 5.0051 1 8.87109C1 12.7371 4.13401 15.8711 8 15.8711C11.866 15.8711 15 12.7371 15 8.87109C15 5.0051 11.866 1.87109 8 1.87109ZM7.5 3.87109C7.74546 3.87109 7.94961 4.04797 7.99194 4.28122L8 4.37109V8.87109H10.5C10.7761 8.87109 11 9.09495 11 9.37109C11 9.61655 10.8231 9.8207 10.5899 9.86304L10.5 9.87109H7.5C7.25454 9.87109 7.05039 9.69422 7.00806 9.46097L7 9.37109V4.37109C7 4.09495 7.22386 3.87109 7.5 3.87109Z" fill="black" fill-opacity="0.2"/>
<path d="M8 0.871094C12.4183 0.871094 16 4.45282 16 8.87109C16 13.2894 12.4183 16.8711 8 16.8711C3.58172 16.8711 0 13.2894 0 8.87109C0 4.45282 3.58172 0.871094 8 0.871094ZM8 1.87109C4.13401 1.87109 1 5.0051 1 8.87109C1 12.7371 4.13401 15.8711 8 15.8711C11.866 15.8711 15 12.7371 15 8.87109C15 5.0051 11.866 1.87109 8 1.87109ZM7.5 3.87109C7.74546 3.87109 7.94961 4.04797 7.99194 4.28122L8 4.37109V8.87109H10.5C10.7761 8.87109 11 9.09495 11 9.37109C11 9.61655 10.8231 9.8207 10.5899 9.86304L10.5 9.87109H7.5C7.25454 9.87109 7.05039 9.69422 7.00806 9.46097L7 9.37109V4.37109C7 4.09495 7.22386 3.87109 7.5 3.87109Z" fill="black" fill-opacity="0.2"/>
<path d="M8 0.871094C12.4183 0.871094 16 4.45282 16 8.87109C16 13.2894 12.4183 16.8711 8 16.8711C3.58172 16.8711 0 13.2894 0 8.87109C0 4.45282 3.58172 0.871094 8 0.871094ZM8 1.87109C4.13401 1.87109 1 5.0051 1 8.87109C1 12.7371 4.13401 15.8711 8 15.8711C11.866 15.8711 15 12.7371 15 8.87109C15 5.0051 11.866 1.87109 8 1.87109ZM7.5 3.87109C7.74546 3.87109 7.94961 4.04797 7.99194 4.28122L8 4.37109V8.87109H10.5C10.7761 8.87109 11 9.09495 11 9.37109C11 9.61655 10.8231 9.8207 10.5899 9.86304L10.5 9.87109H7.5C7.25454 9.87109 7.05039 9.69422 7.00806 9.46097L7 9.37109V4.37109C7 4.09495 7.22386 3.87109 7.5 3.87109Z" fill="black" fill-opacity="0.2"/>
<path d="M8 0.871094C12.4183 0.871094 16 4.45282 16 8.87109C16 13.2894 12.4183 16.8711 8 16.8711C3.58172 16.8711 0 13.2894 0 8.87109C0 4.45282 3.58172 0.871094 8 0.871094ZM8 1.87109C4.13401 1.87109 1 5.0051 1 8.87109C1 12.7371 4.13401 15.8711 8 15.8711C11.866 15.8711 15 12.7371 15 8.87109C15 5.0051 11.866 1.87109 8 1.87109ZM7.5 3.87109C7.74546 3.87109 7.94961 4.04797 7.99194 4.28122L8 4.37109V8.87109H10.5C10.7761 8.87109 11 9.09495 11 9.37109C11 9.61655 10.8231 9.8207 10.5899 9.86304L10.5 9.87109H7.5C7.25454 9.87109 7.05039 9.69422 7.00806 9.46097L7 9.37109V4.37109C7 4.09495 7.22386 3.87109 7.5 3.87109Z" fill="black" fill-opacity="0.2"/>
</svg>
