<svg width="14" height="14" viewBox="0 0 14 14" fill="none" xmlns="http://www.w3.org/2000/svg">
<path d="M0.235739 0.394618L0.308058 0.308058C0.525016 0.0911004 0.861797 0.0669938 1.10538 0.235739L1.19194 0.308058L7 6.11625L12.8081 0.308058C13.0521 0.0639807 13.4479 0.0639807 13.6919 0.308058C13.936 0.552136 13.936 0.947864 13.6919 1.19194L7.88375 7L13.6919 12.8081C13.9089 13.025 13.933 13.3618 13.7643 13.6054L13.6919 13.6919C13.475 13.9089 13.1382 13.933 12.8946 13.7643L12.8081 13.6919L7 7.88375L1.19194 13.6919C0.947864 13.936 0.552136 13.936 0.308058 13.6919C0.0639807 13.4479 0.0639807 13.0521 0.308058 12.8081L6.11625 7L0.308058 1.19194C0.0911004 0.974984 0.0669938 0.638203 0.235739 0.394618L0.308058 0.308058L0.235739 0.394618Z" fill="white"/>
</svg>
