<svg width="12" height="12" viewBox="0 0 12 12" fill="none" xmlns="http://www.w3.org/2000/svg">
<path d="M0.0885911 0.216183L0.146447 0.146935C0.320013 -0.0266314 0.589437 -0.0459167 0.784306 0.0890794L0.853553 0.146935L6 5.29349L11.1464 0.146935C11.32 -0.0266314 11.5894 -0.0459167 11.7843 0.0890794L11.8536 0.146935C12.0271 0.320501 12.0464 0.589926 11.9114 0.784794L11.8536 0.854042L6.707 6.00049L11.8536 11.1469C12.0271 11.3205 12.0464 11.5899 11.9114 11.7848L11.8536 11.854C11.68 12.0276 11.4106 12.0469 11.2157 11.9119L11.1464 11.854L6 6.70749L0.853553 11.854C0.679987 12.0276 0.410563 12.0469 0.215694 11.9119L0.146447 11.854C-0.0271197 11.6805 -0.046405 11.4111 0.0885911 11.2162L0.146447 11.1469L5.293 6.00049L0.146447 0.854042C-0.0271197 0.680475 -0.046405 0.411051 0.0885911 0.216183L0.146447 0.146935L0.0885911 0.216183Z" fill="#242424"/>
</svg>
