<svg width="20" height="28" viewBox="0 0 20 28" fill="none" xmlns="http://www.w3.org/2000/svg">
<path d="M4 0C1.79086 0 0 1.79086 0 4V24C0 26.2091 1.79086 28 4 28H16C18.2091 28 20 26.2091 20 24V8.82843C20 8.03278 19.6839 7.26972 19.1213 6.70711L13.2929 0.87868C12.7303 0.31607 11.9672 0 11.1716 0H4ZM2 4C2 2.89543 2.89543 2 4 2H10V7C10 8.65685 11.3431 10 13 10H18V24C18 25.1046 17.1046 26 16 26H4C2.89543 26 2 25.1046 2 24V4ZM17.5858 8H13C12.4477 8 12 7.55228 12 7V2.41421L17.5858 8Z" fill="#121214" fill-opacity="0.84"/>
</svg>
