<svg width="10" height="18" viewBox="0 0 10 18" fill="none" xmlns="http://www.w3.org/2000/svg">
<path d="M9.37498 11.8219C9.37498 8.93744 7.01248 8.60875 5.1143 8.34506C3.04555 8.057 1.87498 7.80756 1.87498 6.02631C1.87498 4.53069 3.44192 4 4.78361 4C5.45233 3.97837 6.11662 4.11601 6.72169 4.40158C7.32676 4.68715 7.85528 5.11246 8.26367 5.64244L9.2363 4.85756C8.79893 4.29519 8.25473 3.82481 7.63497 3.47344C7.01522 3.12207 6.33214 2.89665 5.62498 2.81012V0.875H4.37498V2.76375C2.11548 2.90075 0.624984 4.17625 0.624984 6.02625C0.624984 8.9825 3.01873 9.31544 4.94217 9.5825C6.97498 9.8655 8.12498 10.109 8.12498 11.8219C8.12498 13.7171 6.16711 14 4.99998 14C2.85661 14 1.95111 13.3976 1.1113 12.3576L0.138672 13.1424C0.634167 13.7954 1.27502 14.3238 2.01038 14.6858C2.74574 15.0478 3.55536 15.2335 4.37498 15.228V17.125H5.62498V15.2219C7.95348 15.0318 9.37498 13.7674 9.37498 11.8219Z" fill="black"/>
</svg>
