<svg width="24" height="20" viewBox="0 0 24 20" fill="none" xmlns="http://www.w3.org/2000/svg">
<path d="M7.8039 9.63151C8.46818 9.63151 9.00668 10.1788 9.00668 10.8539C9.00668 11.529 8.46818 12.0763 7.8039 12.0763C7.13962 12.0763 6.60112 11.529 6.60112 10.8539C6.60112 10.1788 7.13962 9.63151 7.8039 9.63151ZM12.002 0.915065V8.41169L12.0027 9.02764L20.9339 9.02647L18.8667 6.92386C18.5472 6.59901 18.5182 6.09076 18.7797 5.73266L18.8669 5.63007C19.1865 5.30534 19.6866 5.2759 20.039 5.5417L20.1399 5.63029L23.7365 9.2868C24.0557 9.61134 24.0849 10.119 23.824 10.4771L23.7371 10.5797L20.1405 14.2433C19.7894 14.601 19.2195 14.6017 18.8675 14.2448C18.5476 13.9204 18.518 13.4122 18.779 13.0537L18.8661 12.951L20.9219 10.8562L12.0027 10.8573L12.002 19.0849C12.002 19.6538 11.4966 20.0848 10.9453 19.9858L0.743589 18.1545C0.313505 18.0773 0 17.6975 0 17.2536V2.61769C0 2.16966 0.319271 1.78754 0.754287 1.71494L10.956 0.0123118C11.504 -0.0791523 12.002 0.35063 12.002 0.915065ZM10.2017 1.9924L1.8003 3.39456V16.4862L10.2017 17.9943V1.9924ZM13.2022 18.1716L14.1206 18.1718L14.2429 18.1635C14.6827 18.1027 15.0215 17.7192 15.0207 17.2555L15.0121 12.0711H13.2022V18.1716ZM13.2046 7.80182L13.2022 6.24699V1.70284L14.0967 1.70285C14.5519 1.70285 14.9283 2.04624 14.9885 2.49219L14.9969 2.61618L15.0049 7.80182H13.2046Z" fill="#242424"/>
</svg>
