<svg width="20" height="16" viewBox="0 0 20 16" fill="none" xmlns="http://www.w3.org/2000/svg">
<path d="M20 5.5C20 8.53757 17.5376 11 14.5 11C11.4624 11 9 8.53757 9 5.5C9 2.46243 11.4624 0 14.5 0C17.5376 0 20 2.46243 20 5.5ZM12.8536 3.14645C12.6583 2.95118 12.3417 2.95118 12.1464 3.14645C11.9512 3.34171 11.9512 3.65829 12.1464 3.85355L13.7929 5.5L12.1464 7.14645C11.9512 7.34171 11.9512 7.65829 12.1464 7.85355C12.3417 8.04882 12.6583 8.04882 12.8536 7.85355L14.5 6.20711L16.1464 7.85355C16.3417 8.04882 16.6583 8.04882 16.8536 7.85355C17.0488 7.65829 17.0488 7.34171 16.8536 7.14645L15.2071 5.5L16.8536 3.85355C17.0488 3.65829 17.0488 3.34171 16.8536 3.14645C16.6583 2.95118 16.3417 2.95118 16.1464 3.14645L14.5 4.79289L12.8536 3.14645Z" fill="#202020"/>
<path d="M20 5.5C20 8.53757 17.5376 11 14.5 11C11.4624 11 9 8.53757 9 5.5C9 2.46243 11.4624 0 14.5 0C17.5376 0 20 2.46243 20 5.5ZM12.8536 3.14645C12.6583 2.95118 12.3417 2.95118 12.1464 3.14645C11.9512 3.34171 11.9512 3.65829 12.1464 3.85355L13.7929 5.5L12.1464 7.14645C11.9512 7.34171 11.9512 7.65829 12.1464 7.85355C12.3417 8.04882 12.6583 8.04882 12.8536 7.85355L14.5 6.20711L16.1464 7.85355C16.3417 8.04882 16.6583 8.04882 16.8536 7.85355C17.0488 7.65829 17.0488 7.34171 16.8536 7.14645L15.2071 5.5L16.8536 3.85355C17.0488 3.65829 17.0488 3.34171 16.8536 3.14645C16.6583 2.95118 16.3417 2.95118 16.1464 3.14645L14.5 4.79289L12.8536 3.14645Z" fill="black" fill-opacity="0.2"/>
<path d="M20 5.5C20 8.53757 17.5376 11 14.5 11C11.4624 11 9 8.53757 9 5.5C9 2.46243 11.4624 0 14.5 0C17.5376 0 20 2.46243 20 5.5ZM12.8536 3.14645C12.6583 2.95118 12.3417 2.95118 12.1464 3.14645C11.9512 3.34171 11.9512 3.65829 12.1464 3.85355L13.7929 5.5L12.1464 7.14645C11.9512 7.34171 11.9512 7.65829 12.1464 7.85355C12.3417 8.04882 12.6583 8.04882 12.8536 7.85355L14.5 6.20711L16.1464 7.85355C16.3417 8.04882 16.6583 8.04882 16.8536 7.85355C17.0488 7.65829 17.0488 7.34171 16.8536 7.14645L15.2071 5.5L16.8536 3.85355C17.0488 3.65829 17.0488 3.34171 16.8536 3.14645C16.6583 2.95118 16.3417 2.95118 16.1464 3.14645L14.5 4.79289L12.8536 3.14645Z" fill="black" fill-opacity="0.2"/>
<path d="M20 5.5C20 8.53757 17.5376 11 14.5 11C11.4624 11 9 8.53757 9 5.5C9 2.46243 11.4624 0 14.5 0C17.5376 0 20 2.46243 20 5.5ZM12.8536 3.14645C12.6583 2.95118 12.3417 2.95118 12.1464 3.14645C11.9512 3.34171 11.9512 3.65829 12.1464 3.85355L13.7929 5.5L12.1464 7.14645C11.9512 7.34171 11.9512 7.65829 12.1464 7.85355C12.3417 8.04882 12.6583 8.04882 12.8536 7.85355L14.5 6.20711L16.1464 7.85355C16.3417 8.04882 16.6583 8.04882 16.8536 7.85355C17.0488 7.65829 17.0488 7.34171 16.8536 7.14645L15.2071 5.5L16.8536 3.85355C17.0488 3.65829 17.0488 3.34171 16.8536 3.14645C16.6583 2.95118 16.3417 2.95118 16.1464 3.14645L14.5 4.79289L12.8536 3.14645Z" fill="black" fill-opacity="0.2"/>
<path d="M20 5.5C20 8.53757 17.5376 11 14.5 11C11.4624 11 9 8.53757 9 5.5C9 2.46243 11.4624 0 14.5 0C17.5376 0 20 2.46243 20 5.5ZM12.8536 3.14645C12.6583 2.95118 12.3417 2.95118 12.1464 3.14645C11.9512 3.34171 11.9512 3.65829 12.1464 3.85355L13.7929 5.5L12.1464 7.14645C11.9512 7.34171 11.9512 7.65829 12.1464 7.85355C12.3417 8.04882 12.6583 8.04882 12.8536 7.85355L14.5 6.20711L16.1464 7.85355C16.3417 8.04882 16.6583 8.04882 16.8536 7.85355C17.0488 7.65829 17.0488 7.34171 16.8536 7.14645L15.2071 5.5L16.8536 3.85355C17.0488 3.65829 17.0488 3.34171 16.8536 3.14645C16.6583 2.95118 16.3417 2.95118 16.1464 3.14645L14.5 4.79289L12.8536 3.14645Z" fill="black" fill-opacity="0.2"/>
<path d="M20 5.5C20 8.53757 17.5376 11 14.5 11C11.4624 11 9 8.53757 9 5.5C9 2.46243 11.4624 0 14.5 0C17.5376 0 20 2.46243 20 5.5ZM12.8536 3.14645C12.6583 2.95118 12.3417 2.95118 12.1464 3.14645C11.9512 3.34171 11.9512 3.65829 12.1464 3.85355L13.7929 5.5L12.1464 7.14645C11.9512 7.34171 11.9512 7.65829 12.1464 7.85355C12.3417 8.04882 12.6583 8.04882 12.8536 7.85355L14.5 6.20711L16.1464 7.85355C16.3417 8.04882 16.6583 8.04882 16.8536 7.85355C17.0488 7.65829 17.0488 7.34171 16.8536 7.14645L15.2071 5.5L16.8536 3.85355C17.0488 3.65829 17.0488 3.34171 16.8536 3.14645C16.6583 2.95118 16.3417 2.95118 16.1464 3.14645L14.5 4.79289L12.8536 3.14645Z" fill="black" fill-opacity="0.2"/>
<path d="M20 5.5C20 8.53757 17.5376 11 14.5 11C11.4624 11 9 8.53757 9 5.5C9 2.46243 11.4624 0 14.5 0C17.5376 0 20 2.46243 20 5.5ZM12.8536 3.14645C12.6583 2.95118 12.3417 2.95118 12.1464 3.14645C11.9512 3.34171 11.9512 3.65829 12.1464 3.85355L13.7929 5.5L12.1464 7.14645C11.9512 7.34171 11.9512 7.65829 12.1464 7.85355C12.3417 8.04882 12.6583 8.04882 12.8536 7.85355L14.5 6.20711L16.1464 7.85355C16.3417 8.04882 16.6583 8.04882 16.8536 7.85355C17.0488 7.65829 17.0488 7.34171 16.8536 7.14645L15.2071 5.5L16.8536 3.85355C17.0488 3.65829 17.0488 3.34171 16.8536 3.14645C16.6583 2.95118 16.3417 2.95118 16.1464 3.14645L14.5 4.79289L12.8536 3.14645Z" fill="black" fill-opacity="0.2"/>
<path d="M20 5.5C20 8.53757 17.5376 11 14.5 11C11.4624 11 9 8.53757 9 5.5C9 2.46243 11.4624 0 14.5 0C17.5376 0 20 2.46243 20 5.5ZM12.8536 3.14645C12.6583 2.95118 12.3417 2.95118 12.1464 3.14645C11.9512 3.34171 11.9512 3.65829 12.1464 3.85355L13.7929 5.5L12.1464 7.14645C11.9512 7.34171 11.9512 7.65829 12.1464 7.85355C12.3417 8.04882 12.6583 8.04882 12.8536 7.85355L14.5 6.20711L16.1464 7.85355C16.3417 8.04882 16.6583 8.04882 16.8536 7.85355C17.0488 7.65829 17.0488 7.34171 16.8536 7.14645L15.2071 5.5L16.8536 3.85355C17.0488 3.65829 17.0488 3.34171 16.8536 3.14645C16.6583 2.95118 16.3417 2.95118 16.1464 3.14645L14.5 4.79289L12.8536 3.14645Z" fill="black" fill-opacity="0.2"/>
<path d="M20 5.5C20 8.53757 17.5376 11 14.5 11C11.4624 11 9 8.53757 9 5.5C9 2.46243 11.4624 0 14.5 0C17.5376 0 20 2.46243 20 5.5ZM12.8536 3.14645C12.6583 2.95118 12.3417 2.95118 12.1464 3.14645C11.9512 3.34171 11.9512 3.65829 12.1464 3.85355L13.7929 5.5L12.1464 7.14645C11.9512 7.34171 11.9512 7.65829 12.1464 7.85355C12.3417 8.04882 12.6583 8.04882 12.8536 7.85355L14.5 6.20711L16.1464 7.85355C16.3417 8.04882 16.6583 8.04882 16.8536 7.85355C17.0488 7.65829 17.0488 7.34171 16.8536 7.14645L15.2071 5.5L16.8536 3.85355C17.0488 3.65829 17.0488 3.34171 16.8536 3.14645C16.6583 2.95118 16.3417 2.95118 16.1464 3.14645L14.5 4.79289L12.8536 3.14645Z" fill="black" fill-opacity="0.2"/>
<path d="M10.3464 10.5C9.8317 10.0719 9.38412 9.56589 9.02182 9H4.5C4.08579 9 3.75 9.33579 3.75 9.75C3.75 10.1642 4.08579 10.5 4.5 10.5H10.3464Z" fill="#202020"/>
<path d="M10.3464 10.5C9.8317 10.0719 9.38412 9.56589 9.02182 9H4.5C4.08579 9 3.75 9.33579 3.75 9.75C3.75 10.1642 4.08579 10.5 4.5 10.5H10.3464Z" fill="black" fill-opacity="0.2"/>
<path d="M10.3464 10.5C9.8317 10.0719 9.38412 9.56589 9.02182 9H4.5C4.08579 9 3.75 9.33579 3.75 9.75C3.75 10.1642 4.08579 10.5 4.5 10.5H10.3464Z" fill="black" fill-opacity="0.2"/>
<path d="M10.3464 10.5C9.8317 10.0719 9.38412 9.56589 9.02182 9H4.5C4.08579 9 3.75 9.33579 3.75 9.75C3.75 10.1642 4.08579 10.5 4.5 10.5H10.3464Z" fill="black" fill-opacity="0.2"/>
<path d="M10.3464 10.5C9.8317 10.0719 9.38412 9.56589 9.02182 9H4.5C4.08579 9 3.75 9.33579 3.75 9.75C3.75 10.1642 4.08579 10.5 4.5 10.5H10.3464Z" fill="black" fill-opacity="0.2"/>
<path d="M10.3464 10.5C9.8317 10.0719 9.38412 9.56589 9.02182 9H4.5C4.08579 9 3.75 9.33579 3.75 9.75C3.75 10.1642 4.08579 10.5 4.5 10.5H10.3464Z" fill="black" fill-opacity="0.2"/>
<path d="M10.3464 10.5C9.8317 10.0719 9.38412 9.56589 9.02182 9H4.5C4.08579 9 3.75 9.33579 3.75 9.75C3.75 10.1642 4.08579 10.5 4.5 10.5H10.3464Z" fill="black" fill-opacity="0.2"/>
<path d="M10.3464 10.5C9.8317 10.0719 9.38412 9.56589 9.02182 9H4.5C4.08579 9 3.75 9.33579 3.75 9.75C3.75 10.1642 4.08579 10.5 4.5 10.5H10.3464Z" fill="black" fill-opacity="0.2"/>
<path d="M10.3464 10.5C9.8317 10.0719 9.38412 9.56589 9.02182 9H4.5C4.08579 9 3.75 9.33579 3.75 9.75C3.75 10.1642 4.08579 10.5 4.5 10.5H10.3464Z" fill="black" fill-opacity="0.2"/>
<path d="M8 5.5C8 4.98373 8.06019 4.48152 8.17393 4H1.5C1.08579 4 0.75 4.33579 0.75 4.75C0.75 5.16421 1.08579 5.5 1.5 5.5H8Z" fill="#202020"/>
<path d="M8 5.5C8 4.98373 8.06019 4.48152 8.17393 4H1.5C1.08579 4 0.75 4.33579 0.75 4.75C0.75 5.16421 1.08579 5.5 1.5 5.5H8Z" fill="black" fill-opacity="0.2"/>
<path d="M8 5.5C8 4.98373 8.06019 4.48152 8.17393 4H1.5C1.08579 4 0.75 4.33579 0.75 4.75C0.75 5.16421 1.08579 5.5 1.5 5.5H8Z" fill="black" fill-opacity="0.2"/>
<path d="M8 5.5C8 4.98373 8.06019 4.48152 8.17393 4H1.5C1.08579 4 0.75 4.33579 0.75 4.75C0.75 5.16421 1.08579 5.5 1.5 5.5H8Z" fill="black" fill-opacity="0.2"/>
<path d="M8 5.5C8 4.98373 8.06019 4.48152 8.17393 4H1.5C1.08579 4 0.75 4.33579 0.75 4.75C0.75 5.16421 1.08579 5.5 1.5 5.5H8Z" fill="black" fill-opacity="0.2"/>
<path d="M8 5.5C8 4.98373 8.06019 4.48152 8.17393 4H1.5C1.08579 4 0.75 4.33579 0.75 4.75C0.75 5.16421 1.08579 5.5 1.5 5.5H8Z" fill="black" fill-opacity="0.2"/>
<path d="M8 5.5C8 4.98373 8.06019 4.48152 8.17393 4H1.5C1.08579 4 0.75 4.33579 0.75 4.75C0.75 5.16421 1.08579 5.5 1.5 5.5H8Z" fill="black" fill-opacity="0.2"/>
<path d="M8 5.5C8 4.98373 8.06019 4.48152 8.17393 4H1.5C1.08579 4 0.75 4.33579 0.75 4.75C0.75 5.16421 1.08579 5.5 1.5 5.5H8Z" fill="black" fill-opacity="0.2"/>
<path d="M8 5.5C8 4.98373 8.06019 4.48152 8.17393 4H1.5C1.08579 4 0.75 4.33579 0.75 4.75C0.75 5.16421 1.08579 5.5 1.5 5.5H8Z" fill="black" fill-opacity="0.2"/>
<path d="M10.5 14C10.9142 14 11.25 14.3358 11.25 14.75C11.25 15.1642 10.9142 15.5 10.5 15.5H7.5C7.08579 15.5 6.75 15.1642 6.75 14.75C6.75 14.3358 7.08579 14 7.5 14H10.5Z" fill="#202020"/>
<path d="M10.5 14C10.9142 14 11.25 14.3358 11.25 14.75C11.25 15.1642 10.9142 15.5 10.5 15.5H7.5C7.08579 15.5 6.75 15.1642 6.75 14.75C6.75 14.3358 7.08579 14 7.5 14H10.5Z" fill="black" fill-opacity="0.2"/>
<path d="M10.5 14C10.9142 14 11.25 14.3358 11.25 14.75C11.25 15.1642 10.9142 15.5 10.5 15.5H7.5C7.08579 15.5 6.75 15.1642 6.75 14.75C6.75 14.3358 7.08579 14 7.5 14H10.5Z" fill="black" fill-opacity="0.2"/>
<path d="M10.5 14C10.9142 14 11.25 14.3358 11.25 14.75C11.25 15.1642 10.9142 15.5 10.5 15.5H7.5C7.08579 15.5 6.75 15.1642 6.75 14.75C6.75 14.3358 7.08579 14 7.5 14H10.5Z" fill="black" fill-opacity="0.2"/>
<path d="M10.5 14C10.9142 14 11.25 14.3358 11.25 14.75C11.25 15.1642 10.9142 15.5 10.5 15.5H7.5C7.08579 15.5 6.75 15.1642 6.75 14.75C6.75 14.3358 7.08579 14 7.5 14H10.5Z" fill="black" fill-opacity="0.2"/>
<path d="M10.5 14C10.9142 14 11.25 14.3358 11.25 14.75C11.25 15.1642 10.9142 15.5 10.5 15.5H7.5C7.08579 15.5 6.75 15.1642 6.75 14.75C6.75 14.3358 7.08579 14 7.5 14H10.5Z" fill="black" fill-opacity="0.2"/>
<path d="M10.5 14C10.9142 14 11.25 14.3358 11.25 14.75C11.25 15.1642 10.9142 15.5 10.5 15.5H7.5C7.08579 15.5 6.75 15.1642 6.75 14.75C6.75 14.3358 7.08579 14 7.5 14H10.5Z" fill="black" fill-opacity="0.2"/>
<path d="M10.5 14C10.9142 14 11.25 14.3358 11.25 14.75C11.25 15.1642 10.9142 15.5 10.5 15.5H7.5C7.08579 15.5 6.75 15.1642 6.75 14.75C6.75 14.3358 7.08579 14 7.5 14H10.5Z" fill="black" fill-opacity="0.2"/>
<path d="M10.5 14C10.9142 14 11.25 14.3358 11.25 14.75C11.25 15.1642 10.9142 15.5 10.5 15.5H7.5C7.08579 15.5 6.75 15.1642 6.75 14.75C6.75 14.3358 7.08579 14 7.5 14H10.5Z" fill="black" fill-opacity="0.2"/>
</svg>
