<svg width="20" height="15" viewBox="0 0 20 15" fill="none" xmlns="http://www.w3.org/2000/svg">
<path d="M0.625 1.625C0.625 1.00368 1.12868 0.5 1.75 0.5H18.25C18.8713 0.5 19.375 1.00368 19.375 1.625C19.375 2.24632 18.8713 2.75 18.25 2.75H1.75C1.12868 2.75 0.625 2.24632 0.625 1.625ZM3.625 7.625C3.625 7.00368 4.12868 6.5 4.75 6.5H15.25C15.8713 6.5 16.375 7.00368 16.375 7.625C16.375 8.24632 15.8713 8.75 15.25 8.75H4.75C4.12868 8.75 3.625 8.24632 3.625 7.625ZM6.625 13.625C6.625 13.0037 7.12868 12.5 7.75 12.5H12.25C12.8713 12.5 13.375 13.0037 13.375 13.625C13.375 14.2463 12.8713 14.75 12.25 14.75H7.75C7.12868 14.75 6.625 14.2463 6.625 13.625Z" fill="#202020"/>
<path d="M0.625 1.625C0.625 1.00368 1.12868 0.5 1.75 0.5H18.25C18.8713 0.5 19.375 1.00368 19.375 1.625C19.375 2.24632 18.8713 2.75 18.25 2.75H1.75C1.12868 2.75 0.625 2.24632 0.625 1.625ZM3.625 7.625C3.625 7.00368 4.12868 6.5 4.75 6.5H15.25C15.8713 6.5 16.375 7.00368 16.375 7.625C16.375 8.24632 15.8713 8.75 15.25 8.75H4.75C4.12868 8.75 3.625 8.24632 3.625 7.625ZM6.625 13.625C6.625 13.0037 7.12868 12.5 7.75 12.5H12.25C12.8713 12.5 13.375 13.0037 13.375 13.625C13.375 14.2463 12.8713 14.75 12.25 14.75H7.75C7.12868 14.75 6.625 14.2463 6.625 13.625Z" fill="black" fill-opacity="0.2"/>
<path d="M0.625 1.625C0.625 1.00368 1.12868 0.5 1.75 0.5H18.25C18.8713 0.5 19.375 1.00368 19.375 1.625C19.375 2.24632 18.8713 2.75 18.25 2.75H1.75C1.12868 2.75 0.625 2.24632 0.625 1.625ZM3.625 7.625C3.625 7.00368 4.12868 6.5 4.75 6.5H15.25C15.8713 6.5 16.375 7.00368 16.375 7.625C16.375 8.24632 15.8713 8.75 15.25 8.75H4.75C4.12868 8.75 3.625 8.24632 3.625 7.625ZM6.625 13.625C6.625 13.0037 7.12868 12.5 7.75 12.5H12.25C12.8713 12.5 13.375 13.0037 13.375 13.625C13.375 14.2463 12.8713 14.75 12.25 14.75H7.75C7.12868 14.75 6.625 14.2463 6.625 13.625Z" fill="black" fill-opacity="0.2"/>
<path d="M0.625 1.625C0.625 1.00368 1.12868 0.5 1.75 0.5H18.25C18.8713 0.5 19.375 1.00368 19.375 1.625C19.375 2.24632 18.8713 2.75 18.25 2.75H1.75C1.12868 2.75 0.625 2.24632 0.625 1.625ZM3.625 7.625C3.625 7.00368 4.12868 6.5 4.75 6.5H15.25C15.8713 6.5 16.375 7.00368 16.375 7.625C16.375 8.24632 15.8713 8.75 15.25 8.75H4.75C4.12868 8.75 3.625 8.24632 3.625 7.625ZM6.625 13.625C6.625 13.0037 7.12868 12.5 7.75 12.5H12.25C12.8713 12.5 13.375 13.0037 13.375 13.625C13.375 14.2463 12.8713 14.75 12.25 14.75H7.75C7.12868 14.75 6.625 14.2463 6.625 13.625Z" fill="black" fill-opacity="0.2"/>
<path d="M0.625 1.625C0.625 1.00368 1.12868 0.5 1.75 0.5H18.25C18.8713 0.5 19.375 1.00368 19.375 1.625C19.375 2.24632 18.8713 2.75 18.25 2.75H1.75C1.12868 2.75 0.625 2.24632 0.625 1.625ZM3.625 7.625C3.625 7.00368 4.12868 6.5 4.75 6.5H15.25C15.8713 6.5 16.375 7.00368 16.375 7.625C16.375 8.24632 15.8713 8.75 15.25 8.75H4.75C4.12868 8.75 3.625 8.24632 3.625 7.625ZM6.625 13.625C6.625 13.0037 7.12868 12.5 7.75 12.5H12.25C12.8713 12.5 13.375 13.0037 13.375 13.625C13.375 14.2463 12.8713 14.75 12.25 14.75H7.75C7.12868 14.75 6.625 14.2463 6.625 13.625Z" fill="black" fill-opacity="0.2"/>
<path d="M0.625 1.625C0.625 1.00368 1.12868 0.5 1.75 0.5H18.25C18.8713 0.5 19.375 1.00368 19.375 1.625C19.375 2.24632 18.8713 2.75 18.25 2.75H1.75C1.12868 2.75 0.625 2.24632 0.625 1.625ZM3.625 7.625C3.625 7.00368 4.12868 6.5 4.75 6.5H15.25C15.8713 6.5 16.375 7.00368 16.375 7.625C16.375 8.24632 15.8713 8.75 15.25 8.75H4.75C4.12868 8.75 3.625 8.24632 3.625 7.625ZM6.625 13.625C6.625 13.0037 7.12868 12.5 7.75 12.5H12.25C12.8713 12.5 13.375 13.0037 13.375 13.625C13.375 14.2463 12.8713 14.75 12.25 14.75H7.75C7.12868 14.75 6.625 14.2463 6.625 13.625Z" fill="black" fill-opacity="0.2"/>
<path d="M0.625 1.625C0.625 1.00368 1.12868 0.5 1.75 0.5H18.25C18.8713 0.5 19.375 1.00368 19.375 1.625C19.375 2.24632 18.8713 2.75 18.25 2.75H1.75C1.12868 2.75 0.625 2.24632 0.625 1.625ZM3.625 7.625C3.625 7.00368 4.12868 6.5 4.75 6.5H15.25C15.8713 6.5 16.375 7.00368 16.375 7.625C16.375 8.24632 15.8713 8.75 15.25 8.75H4.75C4.12868 8.75 3.625 8.24632 3.625 7.625ZM6.625 13.625C6.625 13.0037 7.12868 12.5 7.75 12.5H12.25C12.8713 12.5 13.375 13.0037 13.375 13.625C13.375 14.2463 12.8713 14.75 12.25 14.75H7.75C7.12868 14.75 6.625 14.2463 6.625 13.625Z" fill="black" fill-opacity="0.2"/>
<path d="M0.625 1.625C0.625 1.00368 1.12868 0.5 1.75 0.5H18.25C18.8713 0.5 19.375 1.00368 19.375 1.625C19.375 2.24632 18.8713 2.75 18.25 2.75H1.75C1.12868 2.75 0.625 2.24632 0.625 1.625ZM3.625 7.625C3.625 7.00368 4.12868 6.5 4.75 6.5H15.25C15.8713 6.5 16.375 7.00368 16.375 7.625C16.375 8.24632 15.8713 8.75 15.25 8.75H4.75C4.12868 8.75 3.625 8.24632 3.625 7.625ZM6.625 13.625C6.625 13.0037 7.12868 12.5 7.75 12.5H12.25C12.8713 12.5 13.375 13.0037 13.375 13.625C13.375 14.2463 12.8713 14.75 12.25 14.75H7.75C7.12868 14.75 6.625 14.2463 6.625 13.625Z" fill="black" fill-opacity="0.2"/>
<path d="M0.625 1.625C0.625 1.00368 1.12868 0.5 1.75 0.5H18.25C18.8713 0.5 19.375 1.00368 19.375 1.625C19.375 2.24632 18.8713 2.75 18.25 2.75H1.75C1.12868 2.75 0.625 2.24632 0.625 1.625ZM3.625 7.625C3.625 7.00368 4.12868 6.5 4.75 6.5H15.25C15.8713 6.5 16.375 7.00368 16.375 7.625C16.375 8.24632 15.8713 8.75 15.25 8.75H4.75C4.12868 8.75 3.625 8.24632 3.625 7.625ZM6.625 13.625C6.625 13.0037 7.12868 12.5 7.75 12.5H12.25C12.8713 12.5 13.375 13.0037 13.375 13.625C13.375 14.2463 12.8713 14.75 12.25 14.75H7.75C7.12868 14.75 6.625 14.2463 6.625 13.625Z" fill="black" fill-opacity="0.2"/>
</svg>
