<svg width="10" height="16" viewBox="0 0 10 16" fill="none" xmlns="http://www.w3.org/2000/svg">
<path d="M2 3.28564C2.82843 3.28564 3.5 2.61407 3.5 1.78564C3.5 0.957217 2.82843 0.285645 2 0.285645C1.17157 0.285645 0.5 0.957217 0.5 1.78564C0.5 2.61407 1.17157 3.28564 2 3.28564ZM2 9.28564C2.82843 9.28564 3.5 8.61407 3.5 7.78564C3.5 6.95722 2.82843 6.28564 2 6.28564C1.17157 6.28564 0.5 6.95722 0.5 7.78564C0.5 8.61407 1.17157 9.28564 2 9.28564ZM3.5 13.7856C3.5 14.6141 2.82843 15.2856 2 15.2856C1.17157 15.2856 0.5 14.6141 0.5 13.7856C0.5 12.9572 1.17157 12.2856 2 12.2856C2.82843 12.2856 3.5 12.9572 3.5 13.7856ZM8 3.28564C8.82843 3.28564 9.5 2.61407 9.5 1.78564C9.5 0.957217 8.82843 0.285645 8 0.285645C7.17157 0.285645 6.5 0.957217 6.5 1.78564C6.5 2.61407 7.17157 3.28564 8 3.28564ZM9.5 7.78564C9.5 8.61407 8.82843 9.28564 8 9.28564C7.17157 9.28564 6.5 8.61407 6.5 7.78564C6.5 6.95722 7.17157 6.28564 8 6.28564C8.82843 6.28564 9.5 6.95722 9.5 7.78564ZM8 15.2856C8.82843 15.2856 9.5 14.6141 9.5 13.7856C9.5 12.9572 8.82843 12.2856 8 12.2856C7.17157 12.2856 6.5 12.9572 6.5 13.7856C6.5 14.6141 7.17157 15.2856 8 15.2856Z" fill="#121214"/>
</svg>
