<svg width="16" height="17" viewBox="0 0 16 17" fill="none" xmlns="http://www.w3.org/2000/svg">
<path d="M16 8.5C16 4.08172 12.4183 0.5 8 0.5C3.58172 0.5 0 4.08172 0 8.5C0 12.9183 3.58172 16.5 8 16.5C12.4183 16.5 16 12.9183 16 8.5ZM7.50806 7.41012C7.55039 7.17687 7.75454 6.99999 8 6.99999C8.24546 6.99999 8.44961 7.17687 8.49194 7.41012L8.5 7.49999V12.0021L8.49194 12.092C8.44961 12.3253 8.24546 12.5021 8 12.5021C7.75454 12.5021 7.55039 12.3253 7.50806 12.092L7.5 12.0021V7.49999L7.50806 7.41012ZM7.25 5.24999C7.25 4.83578 7.58579 4.49999 8 4.49999C8.41421 4.49999 8.75 4.83578 8.75 5.24999C8.75 5.66421 8.41421 5.99999 8 5.99999C7.58579 5.99999 7.25 5.66421 7.25 5.24999Z" fill="#202020" fill-opacity="0.56"/>
</svg>
