<svg width="20" height="21" viewBox="0 0 20 21" fill="none" xmlns="http://www.w3.org/2000/svg">
<path d="M9.9996 0.5C15.5233 0.5 20.0011 4.97785 20.0011 10.5016C20.0011 16.0253 15.5233 20.5031 9.9996 20.5031C4.47589 20.5031 -0.00195312 16.0253 -0.00195312 10.5016C-0.00195312 4.97785 4.47589 0.5 9.9996 0.5ZM9.9996 2C5.30432 2 1.49805 5.80627 1.49805 10.5016C1.49805 15.1968 5.30432 19.0031 9.9996 19.0031C14.6949 19.0031 18.5011 15.1968 18.5011 10.5016C18.5011 5.80627 14.6949 2 9.9996 2ZM9.99595 9.00058C10.3757 9.00033 10.6896 9.28228 10.7395 9.64833L10.7464 9.75009L10.75 15.2517C10.7503 15.6659 10.4147 16.0019 10.0005 16.0022C9.62084 16.0024 9.30686 15.7205 9.25696 15.3544L9.25005 15.2527L9.24644 9.75107C9.24617 9.33686 9.58174 9.00085 9.99595 9.00058ZM10 5.50282C10.5516 5.50282 10.9987 5.94993 10.9987 6.50148C10.9987 7.05303 10.5516 7.50014 10 7.50014C9.4485 7.50014 9.00138 7.05303 9.00138 6.50148C9.00138 5.94993 9.4485 5.50282 10 5.50282Z" fill="#202020"/>
<path d="M9.9996 0.5C15.5233 0.5 20.0011 4.97785 20.0011 10.5016C20.0011 16.0253 15.5233 20.5031 9.9996 20.5031C4.47589 20.5031 -0.00195312 16.0253 -0.00195312 10.5016C-0.00195312 4.97785 4.47589 0.5 9.9996 0.5ZM9.9996 2C5.30432 2 1.49805 5.80627 1.49805 10.5016C1.49805 15.1968 5.30432 19.0031 9.9996 19.0031C14.6949 19.0031 18.5011 15.1968 18.5011 10.5016C18.5011 5.80627 14.6949 2 9.9996 2ZM9.99595 9.00058C10.3757 9.00033 10.6896 9.28228 10.7395 9.64833L10.7464 9.75009L10.75 15.2517C10.7503 15.6659 10.4147 16.0019 10.0005 16.0022C9.62084 16.0024 9.30686 15.7205 9.25696 15.3544L9.25005 15.2527L9.24644 9.75107C9.24617 9.33686 9.58174 9.00085 9.99595 9.00058ZM10 5.50282C10.5516 5.50282 10.9987 5.94993 10.9987 6.50148C10.9987 7.05303 10.5516 7.50014 10 7.50014C9.4485 7.50014 9.00138 7.05303 9.00138 6.50148C9.00138 5.94993 9.4485 5.50282 10 5.50282Z" fill="black" fill-opacity="0.2"/>
<path d="M9.9996 0.5C15.5233 0.5 20.0011 4.97785 20.0011 10.5016C20.0011 16.0253 15.5233 20.5031 9.9996 20.5031C4.47589 20.5031 -0.00195312 16.0253 -0.00195312 10.5016C-0.00195312 4.97785 4.47589 0.5 9.9996 0.5ZM9.9996 2C5.30432 2 1.49805 5.80627 1.49805 10.5016C1.49805 15.1968 5.30432 19.0031 9.9996 19.0031C14.6949 19.0031 18.5011 15.1968 18.5011 10.5016C18.5011 5.80627 14.6949 2 9.9996 2ZM9.99595 9.00058C10.3757 9.00033 10.6896 9.28228 10.7395 9.64833L10.7464 9.75009L10.75 15.2517C10.7503 15.6659 10.4147 16.0019 10.0005 16.0022C9.62084 16.0024 9.30686 15.7205 9.25696 15.3544L9.25005 15.2527L9.24644 9.75107C9.24617 9.33686 9.58174 9.00085 9.99595 9.00058ZM10 5.50282C10.5516 5.50282 10.9987 5.94993 10.9987 6.50148C10.9987 7.05303 10.5516 7.50014 10 7.50014C9.4485 7.50014 9.00138 7.05303 9.00138 6.50148C9.00138 5.94993 9.4485 5.50282 10 5.50282Z" fill="black" fill-opacity="0.2"/>
<path d="M9.9996 0.5C15.5233 0.5 20.0011 4.97785 20.0011 10.5016C20.0011 16.0253 15.5233 20.5031 9.9996 20.5031C4.47589 20.5031 -0.00195312 16.0253 -0.00195312 10.5016C-0.00195312 4.97785 4.47589 0.5 9.9996 0.5ZM9.9996 2C5.30432 2 1.49805 5.80627 1.49805 10.5016C1.49805 15.1968 5.30432 19.0031 9.9996 19.0031C14.6949 19.0031 18.5011 15.1968 18.5011 10.5016C18.5011 5.80627 14.6949 2 9.9996 2ZM9.99595 9.00058C10.3757 9.00033 10.6896 9.28228 10.7395 9.64833L10.7464 9.75009L10.75 15.2517C10.7503 15.6659 10.4147 16.0019 10.0005 16.0022C9.62084 16.0024 9.30686 15.7205 9.25696 15.3544L9.25005 15.2527L9.24644 9.75107C9.24617 9.33686 9.58174 9.00085 9.99595 9.00058ZM10 5.50282C10.5516 5.50282 10.9987 5.94993 10.9987 6.50148C10.9987 7.05303 10.5516 7.50014 10 7.50014C9.4485 7.50014 9.00138 7.05303 9.00138 6.50148C9.00138 5.94993 9.4485 5.50282 10 5.50282Z" fill="black" fill-opacity="0.2"/>
<path d="M9.9996 0.5C15.5233 0.5 20.0011 4.97785 20.0011 10.5016C20.0011 16.0253 15.5233 20.5031 9.9996 20.5031C4.47589 20.5031 -0.00195312 16.0253 -0.00195312 10.5016C-0.00195312 4.97785 4.47589 0.5 9.9996 0.5ZM9.9996 2C5.30432 2 1.49805 5.80627 1.49805 10.5016C1.49805 15.1968 5.30432 19.0031 9.9996 19.0031C14.6949 19.0031 18.5011 15.1968 18.5011 10.5016C18.5011 5.80627 14.6949 2 9.9996 2ZM9.99595 9.00058C10.3757 9.00033 10.6896 9.28228 10.7395 9.64833L10.7464 9.75009L10.75 15.2517C10.7503 15.6659 10.4147 16.0019 10.0005 16.0022C9.62084 16.0024 9.30686 15.7205 9.25696 15.3544L9.25005 15.2527L9.24644 9.75107C9.24617 9.33686 9.58174 9.00085 9.99595 9.00058ZM10 5.50282C10.5516 5.50282 10.9987 5.94993 10.9987 6.50148C10.9987 7.05303 10.5516 7.50014 10 7.50014C9.4485 7.50014 9.00138 7.05303 9.00138 6.50148C9.00138 5.94993 9.4485 5.50282 10 5.50282Z" fill="black" fill-opacity="0.2"/>
<path d="M9.9996 0.5C15.5233 0.5 20.0011 4.97785 20.0011 10.5016C20.0011 16.0253 15.5233 20.5031 9.9996 20.5031C4.47589 20.5031 -0.00195312 16.0253 -0.00195312 10.5016C-0.00195312 4.97785 4.47589 0.5 9.9996 0.5ZM9.9996 2C5.30432 2 1.49805 5.80627 1.49805 10.5016C1.49805 15.1968 5.30432 19.0031 9.9996 19.0031C14.6949 19.0031 18.5011 15.1968 18.5011 10.5016C18.5011 5.80627 14.6949 2 9.9996 2ZM9.99595 9.00058C10.3757 9.00033 10.6896 9.28228 10.7395 9.64833L10.7464 9.75009L10.75 15.2517C10.7503 15.6659 10.4147 16.0019 10.0005 16.0022C9.62084 16.0024 9.30686 15.7205 9.25696 15.3544L9.25005 15.2527L9.24644 9.75107C9.24617 9.33686 9.58174 9.00085 9.99595 9.00058ZM10 5.50282C10.5516 5.50282 10.9987 5.94993 10.9987 6.50148C10.9987 7.05303 10.5516 7.50014 10 7.50014C9.4485 7.50014 9.00138 7.05303 9.00138 6.50148C9.00138 5.94993 9.4485 5.50282 10 5.50282Z" fill="black" fill-opacity="0.2"/>
<path d="M9.9996 0.5C15.5233 0.5 20.0011 4.97785 20.0011 10.5016C20.0011 16.0253 15.5233 20.5031 9.9996 20.5031C4.47589 20.5031 -0.00195312 16.0253 -0.00195312 10.5016C-0.00195312 4.97785 4.47589 0.5 9.9996 0.5ZM9.9996 2C5.30432 2 1.49805 5.80627 1.49805 10.5016C1.49805 15.1968 5.30432 19.0031 9.9996 19.0031C14.6949 19.0031 18.5011 15.1968 18.5011 10.5016C18.5011 5.80627 14.6949 2 9.9996 2ZM9.99595 9.00058C10.3757 9.00033 10.6896 9.28228 10.7395 9.64833L10.7464 9.75009L10.75 15.2517C10.7503 15.6659 10.4147 16.0019 10.0005 16.0022C9.62084 16.0024 9.30686 15.7205 9.25696 15.3544L9.25005 15.2527L9.24644 9.75107C9.24617 9.33686 9.58174 9.00085 9.99595 9.00058ZM10 5.50282C10.5516 5.50282 10.9987 5.94993 10.9987 6.50148C10.9987 7.05303 10.5516 7.50014 10 7.50014C9.4485 7.50014 9.00138 7.05303 9.00138 6.50148C9.00138 5.94993 9.4485 5.50282 10 5.50282Z" fill="black" fill-opacity="0.2"/>
<path d="M9.9996 0.5C15.5233 0.5 20.0011 4.97785 20.0011 10.5016C20.0011 16.0253 15.5233 20.5031 9.9996 20.5031C4.47589 20.5031 -0.00195312 16.0253 -0.00195312 10.5016C-0.00195312 4.97785 4.47589 0.5 9.9996 0.5ZM9.9996 2C5.30432 2 1.49805 5.80627 1.49805 10.5016C1.49805 15.1968 5.30432 19.0031 9.9996 19.0031C14.6949 19.0031 18.5011 15.1968 18.5011 10.5016C18.5011 5.80627 14.6949 2 9.9996 2ZM9.99595 9.00058C10.3757 9.00033 10.6896 9.28228 10.7395 9.64833L10.7464 9.75009L10.75 15.2517C10.7503 15.6659 10.4147 16.0019 10.0005 16.0022C9.62084 16.0024 9.30686 15.7205 9.25696 15.3544L9.25005 15.2527L9.24644 9.75107C9.24617 9.33686 9.58174 9.00085 9.99595 9.00058ZM10 5.50282C10.5516 5.50282 10.9987 5.94993 10.9987 6.50148C10.9987 7.05303 10.5516 7.50014 10 7.50014C9.4485 7.50014 9.00138 7.05303 9.00138 6.50148C9.00138 5.94993 9.4485 5.50282 10 5.50282Z" fill="black" fill-opacity="0.2"/>
<path d="M9.9996 0.5C15.5233 0.5 20.0011 4.97785 20.0011 10.5016C20.0011 16.0253 15.5233 20.5031 9.9996 20.5031C4.47589 20.5031 -0.00195312 16.0253 -0.00195312 10.5016C-0.00195312 4.97785 4.47589 0.5 9.9996 0.5ZM9.9996 2C5.30432 2 1.49805 5.80627 1.49805 10.5016C1.49805 15.1968 5.30432 19.0031 9.9996 19.0031C14.6949 19.0031 18.5011 15.1968 18.5011 10.5016C18.5011 5.80627 14.6949 2 9.9996 2ZM9.99595 9.00058C10.3757 9.00033 10.6896 9.28228 10.7395 9.64833L10.7464 9.75009L10.75 15.2517C10.7503 15.6659 10.4147 16.0019 10.0005 16.0022C9.62084 16.0024 9.30686 15.7205 9.25696 15.3544L9.25005 15.2527L9.24644 9.75107C9.24617 9.33686 9.58174 9.00085 9.99595 9.00058ZM10 5.50282C10.5516 5.50282 10.9987 5.94993 10.9987 6.50148C10.9987 7.05303 10.5516 7.50014 10 7.50014C9.4485 7.50014 9.00138 7.05303 9.00138 6.50148C9.00138 5.94993 9.4485 5.50282 10 5.50282Z" fill="black" fill-opacity="0.2"/>
</svg>
