<svg width="15" height="18" viewBox="0 0 15 18" fill="none" xmlns="http://www.w3.org/2000/svg">
<path fill-rule="evenodd" clip-rule="evenodd" d="M3.64162 7.33464C3.64162 5.14851 5.41383 3.3763 7.59996 3.3763C9.78608 3.3763 11.5583 5.14851 11.5583 7.33464C11.5583 9.52076 9.78608 11.293 7.59996 11.293C5.41383 11.293 3.64162 9.52076 3.64162 7.33464ZM7.59996 4.6263C6.10418 4.6263 4.89162 5.83886 4.89162 7.33464C4.89162 8.83041 6.10418 10.043 7.59996 10.043C9.09573 10.043 10.3083 8.83041 10.3083 7.33464C10.3083 5.83886 9.09573 4.6263 7.59996 4.6263Z" fill="#202020" fill-opacity="0.56"/>
<path fill-rule="evenodd" clip-rule="evenodd" d="M0.536925 6.38201C0.832198 2.79984 3.82566 0.0429688 7.41998 0.0429688H7.77993C11.3743 0.0429688 14.3677 2.79984 14.663 6.38201C14.8216 8.3063 14.2272 10.217 13.005 11.7118L9.01077 16.5966C8.2816 17.4884 6.91831 17.4884 6.18914 16.5966L2.19493 11.7118C0.97271 10.217 0.378309 8.3063 0.536925 6.38201ZM7.41998 1.29297C4.4762 1.29297 2.02453 3.55087 1.7827 6.4847C1.65069 8.08623 2.14539 9.6765 3.16261 10.9205L7.15683 15.8053C7.38585 16.0854 7.81406 16.0854 8.04309 15.8053L12.0373 10.9205C13.0545 9.6765 13.5492 8.08623 13.4172 6.4847C13.1754 3.55087 10.7237 1.29297 7.77993 1.29297H7.41998Z" fill="#202020" fill-opacity="0.56"/>
</svg>
