<svg width="18" height="20" viewBox="0 0 18 20" fill="none" xmlns="http://www.w3.org/2000/svg">
<path d="M2.84328 2.56984C6.24369 -0.830571 11.7568 -0.830571 15.1573 2.56984C18.5577 5.97025 18.5577 11.4834 15.1573 14.8838L13.9703 16.0577C13.0954 16.9164 11.9603 18.0203 10.5644 19.3699C9.69218 20.2132 8.30836 20.2131 7.43624 19.3696L3.94515 15.9738C3.50638 15.543 3.13912 15.1797 2.84328 14.8838C-0.557134 11.4834 -0.557134 5.97025 2.84328 2.56984ZM14.0966 3.6305C11.282 0.815875 6.71856 0.815875 3.90394 3.6305C1.08931 6.44512 1.08931 11.0085 3.90394 13.8232L5.39101 15.2906C6.20992 16.0921 7.23938 17.0925 8.47906 18.2914C8.76976 18.5726 9.23104 18.5726 9.52178 18.2915L12.9167 14.99C13.3856 14.5298 13.779 14.1408 14.0966 13.8232C16.9112 11.0085 16.9112 6.44512 14.0966 3.6305ZM9.00026 6.00049C10.658 6.00049 12.0018 7.34433 12.0018 9.00204C12.0018 10.6598 10.658 12.0036 9.00026 12.0036C7.34255 12.0036 5.99871 10.6598 5.99871 9.00204C5.99871 7.34433 7.34255 6.00049 9.00026 6.00049ZM9.00026 7.50049C8.17098 7.50049 7.49871 8.17276 7.49871 9.00204C7.49871 9.83133 8.17098 10.5036 9.00026 10.5036C9.82955 10.5036 10.5018 9.83133 10.5018 9.00204C10.5018 8.17276 9.82955 7.50049 9.00026 7.50049Z" fill="#242424"/>
</svg>
