<svg width="19" height="21" viewBox="0 0 19 21" fill="none" xmlns="http://www.w3.org/2000/svg">
<path d="M17.5 18C17.5 18.275 17.276 18.5 17 18.5H12V19.5C12 19.6712 11.9828 19.8384 11.95 20H17C18.104 20 19 19.104 19 18V7.828C19 7.298 18.789 6.789 18.414 6.414L12.585 0.586C12.57 0.571048 12.5531 0.55808 12.5363 0.545195C12.5238 0.535674 12.5115 0.526198 12.5 0.516C12.429 0.452 12.359 0.389 12.281 0.336C12.2557 0.318941 12.2281 0.305475 12.2005 0.292071C12.1845 0.284259 12.1685 0.276469 12.153 0.268C12.1363 0.258594 12.1197 0.248967 12.103 0.239326C12.0488 0.20797 11.9944 0.176475 11.937 0.152C11.74 0.0699999 11.528 0.0289999 11.313 0.0139999C11.2933 0.0127423 11.2738 0.0100789 11.2542 0.00740928C11.2271 0.00371057 11.1999 0 11.172 0H5C3.896 0 3 0.896 3 2V9.10352C3.23842 9.03608 3.48999 9 3.75 9H4.5V2C4.5 1.725 4.724 1.5 5 1.5H11V6C11 7.104 11.896 8 13 8H17.5V18ZM12.5 2.621L16.378 6.5H13C12.724 6.5 12.5 6.275 12.5 6V2.621ZM2 13.0001H1.5C0.671573 13.0001 0 13.6716 0 14.5001V19.5C0 20.3284 0.671573 21 1.5 21H9.5C10.3284 21 11 20.3284 11 19.5V14.5001C11 13.6716 10.3284 13.0001 9.5 13.0001H9.00002V11.75C9.00002 10.7835 8.21653 10 7.25003 10H3.75C2.7835 10 2 10.7835 2 11.75V13.0001ZM3.5 11.75C3.5 11.6119 3.61193 11.5 3.75 11.5H7.25003C7.3881 11.5 7.50002 11.6119 7.50002 11.75V13.0001H3.5V11.75Z" fill="#242424"/>
</svg>
