<svg width="27" height="29" viewBox="0 0 27 29" fill="none" xmlns="http://www.w3.org/2000/svg">
<path d="M13.4815 0C15.6527 0 17.6817 0.605101 19.4029 1.65744C18.8901 2.20066 18.4935 2.85273 18.2524 3.57481C16.8685 2.72164 15.2331 2.23017 13.4815 2.23017C8.49446 2.23017 4.46996 6.20618 4.46924 11.1508V17.707L2.45053 22.3073H24.5252L22.4937 17.7084L22.4939 11.1699L22.4882 10.8351C22.4826 10.674 22.4728 10.514 22.4587 10.3553C22.7152 10.3933 22.9777 10.4131 23.2449 10.4131C23.7521 10.4131 24.2424 10.342 24.7064 10.2093C24.7225 10.3974 24.7338 10.5869 24.7404 10.7777L24.7467 11.1508V17.2421L26.8196 21.9344C26.9233 22.1692 26.9768 22.4227 26.9768 22.679C26.9768 23.7054 26.1362 24.5374 25.0993 24.5374L17.9876 24.5397C17.9876 27.003 15.9701 29 13.4815 29C11.0817 29 9.12006 27.1431 8.983 24.8017L8.97467 24.5363L1.87802 24.5374C1.62067 24.5374 1.36606 24.4851 1.13001 24.3836C0.178913 23.9747 -0.257202 22.88 0.155917 21.9386L2.21619 17.2435V11.1507C2.21708 4.97342 7.25115 0 13.4815 0ZM15.7338 24.5363L11.2284 24.5397C11.2284 25.7714 12.2371 26.7698 13.4815 26.7698C14.6526 26.7698 15.615 25.8854 15.7242 24.7544L15.7338 24.5363ZM19.5495 4.54566C19.6923 3.76172 20.0834 3.06321 20.6393 2.53282C21.3146 1.8886 22.233 1.4924 23.2449 1.4924C25.3188 1.4924 27 3.15654 27 5.20935C27 6.83467 25.9461 8.21633 24.4778 8.7213C24.0916 8.85412 23.6768 8.92629 23.2449 8.92629C22.8723 8.92629 22.5124 8.87258 22.1726 8.77255C20.6212 8.3158 19.4898 6.89336 19.4898 5.20935C19.4898 4.98281 19.5103 4.76101 19.5495 4.54566Z" fill="#242424"/>
</svg>
