<svg width="19" height="22" viewBox="0 0 19 22" fill="none" xmlns="http://www.w3.org/2000/svg">
<path d="M12 4C12 1.79086 10.2091 0 8 0C5.79086 0 4 1.79086 4 4V6H2.25C1.00736 6 0 7.00736 0 8.25V17.75C0 18.9926 1.00736 20 2.25 20H7V19.8107C7 19.3465 7.18437 18.9014 7.51256 18.5732L7.58579 18.5H2.25C1.83579 18.5 1.5 18.1642 1.5 17.75V8.25C1.5 7.83579 1.83579 7.5 2.25 7.5H13.75C14.1642 7.5 14.5 7.83579 14.5 8.25V10.1115C14.8216 10.0385 15.1563 10 15.5 10C15.669 10 15.8358 10.0093 16 10.0275V8.25C16 7.00736 14.9926 6 13.75 6H12V4ZM9.50012 13C9.50012 12.1716 8.82855 11.5 8.00012 11.5C7.1717 11.5 6.50012 12.1716 6.50012 13C6.50012 13.8284 7.1717 14.5 8.00012 14.5C8.82855 14.5 9.50012 13.8284 9.50012 13ZM5.5 4C5.5 2.61929 6.61929 1.5 8 1.5C9.38071 1.5 10.5 2.61929 10.5 4V6H5.5V4ZM19 14.5C19 16.433 17.433 18 15.5 18H14V19C14 19.2761 13.7761 19.5 13.5 19.5H12.5V20.5C12.5 20.7761 12.2761 21 12 21H11V21.5C11 21.7761 10.7761 22 10.5 22H8.75C8.33579 22 8 21.6642 8 21.25V19.8107C8 19.6117 8.07902 19.421 8.21967 19.2803L11.9697 15.5303C12.0159 15.4841 12.0666 15.4452 12.1204 15.4136C12.0419 15.1223 12 14.8161 12 14.5C12 12.567 13.567 11 15.5 11C17.433 11 19 12.567 19 14.5ZM16 15C16.5523 15 17 14.5523 17 14C17 13.4477 16.5523 13 16 13C15.4477 13 15 13.4477 15 14C15 14.5523 15.4477 15 16 15Z" fill="#202020" fill-opacity="0.56"/>
</svg>
