<svg width="49" height="52" viewBox="0 0 49 52" fill="none" xmlns="http://www.w3.org/2000/svg">
<path d="M11.1429 26C10.1172 26 9.28571 26.8315 9.28571 27.8571V37.1428C9.28571 38.1684 10.1172 38.9999 11.1429 38.9999C12.1685 38.9999 13 38.1684 13 37.1428V35.2857H13.9286C16.4928 35.2857 18.5714 33.207 18.5714 30.6429C18.5714 28.0787 16.4928 26 13.9286 26H11.1429ZM13.9286 31.5714H13V29.7143H13.9286C14.4414 29.7143 14.8571 30.13 14.8571 30.6429C14.8571 31.1557 14.4414 31.5714 13.9286 31.5714ZM20.4286 27.8571C20.4286 26.8315 21.26 26 22.2857 26H23.2143C26.8041 26 29.7143 28.9101 29.7143 32.5C29.7143 36.0899 26.8041 39 23.2143 39H22.2857C21.7932 39 21.3208 38.8043 20.9725 38.4561C20.6242 38.1078 20.4286 37.6354 20.4286 37.1429V27.8571ZM24.1429 35.1272C25.2248 34.7448 26 33.7129 26 32.5C26 31.2871 25.2248 30.2552 24.1429 29.8728V35.1272ZM31.5714 37.1428V27.8571C31.5714 26.8315 32.4029 26 33.4286 26H39C40.0257 26 40.8571 26.8315 40.8571 27.8571C40.8571 28.8828 40.0257 29.7143 39 29.7143H35.2857V31.5714H39C40.0257 31.5714 40.8571 32.4029 40.8571 33.4286C40.8571 34.4542 40.0257 35.2857 39 35.2857H35.2857V37.1428C35.2857 38.1684 34.4542 38.9999 33.4286 38.9999C32.4029 38.9999 31.5714 38.1684 31.5714 37.1428ZM5.57143 5.57143V20.4286H3.71429C1.66294 20.4286 0 22.0915 0 24.1429V40.8571C0 42.9085 1.66294 44.5714 3.71429 44.5714H5.57143V46.4286C5.57143 49.5056 8.06584 52 11.1429 52H37.1429C40.2199 52 42.7143 49.5056 42.7143 46.4286V44.5714H44.5714C46.6228 44.5714 48.2857 42.9085 48.2857 40.8571V24.1429C48.2857 22.0915 46.6228 20.4286 44.5714 20.4286H42.7143V14.5385C42.7143 13.0609 42.1273 11.6438 41.0825 10.5989L32.1154 1.63183C31.0705 0.586988 29.6534 0 28.1758 0H11.1429C8.06584 0 5.57143 2.49441 5.57143 5.57143ZM11.1429 3.71429H24.1429V13C24.1429 16.077 26.6373 18.5714 29.7143 18.5714H39V20.4286H9.28571V5.57143C9.28571 4.54576 10.1172 3.71429 11.1429 3.71429ZM9.28571 46.4286V44.5714H39V46.4286C39 47.4542 38.1685 48.2857 37.1429 48.2857H11.1429C10.1172 48.2857 9.28571 47.4542 9.28571 46.4286ZM39 14.5385V14.8571H29.7143C28.6886 14.8571 27.8571 14.0257 27.8571 13V3.71429H28.1758C28.6683 3.71429 29.1407 3.90995 29.489 4.25823L38.4561 13.2253C38.8043 13.5736 39 14.046 39 14.5385ZM3.71429 24.1429H44.5714V40.8571H3.71429V24.1429Z" fill="#242424"/>
</svg>
