<svg width="19" height="19" viewBox="0 0 19 19" fill="none" xmlns="http://www.w3.org/2000/svg">
<path d="M15.3625 7.87805L6.40517 16.8375C5.92457 17.3181 5.3224 17.659 4.66303 17.8239L1.22653 18.683C0.677244 18.8203 0.1797 18.3228 0.317021 17.7735L1.17615 14.337C1.34099 13.6776 1.68193 13.0754 2.16253 12.5948L11.1198 3.63541L15.3625 7.87805ZM17.4849 1.51515C18.6564 2.68673 18.6564 4.58622 17.4849 5.7578L16.4231 6.81739L12.1805 2.57475L13.2422 1.51515C14.4138 0.343581 16.3133 0.343581 17.4849 1.51515Z" fill="#202020"/>
<path d="M15.3625 7.87805L6.40517 16.8375C5.92457 17.3181 5.3224 17.659 4.66303 17.8239L1.22653 18.683C0.677244 18.8203 0.1797 18.3228 0.317021 17.7735L1.17615 14.337C1.34099 13.6776 1.68193 13.0754 2.16253 12.5948L11.1198 3.63541L15.3625 7.87805ZM17.4849 1.51515C18.6564 2.68673 18.6564 4.58622 17.4849 5.7578L16.4231 6.81739L12.1805 2.57475L13.2422 1.51515C14.4138 0.343581 16.3133 0.343581 17.4849 1.51515Z" fill="black" fill-opacity="0.2"/>
<path d="M15.3625 7.87805L6.40517 16.8375C5.92457 17.3181 5.3224 17.659 4.66303 17.8239L1.22653 18.683C0.677244 18.8203 0.1797 18.3228 0.317021 17.7735L1.17615 14.337C1.34099 13.6776 1.68193 13.0754 2.16253 12.5948L11.1198 3.63541L15.3625 7.87805ZM17.4849 1.51515C18.6564 2.68673 18.6564 4.58622 17.4849 5.7578L16.4231 6.81739L12.1805 2.57475L13.2422 1.51515C14.4138 0.343581 16.3133 0.343581 17.4849 1.51515Z" fill="black" fill-opacity="0.2"/>
<path d="M15.3625 7.87805L6.40517 16.8375C5.92457 17.3181 5.3224 17.659 4.66303 17.8239L1.22653 18.683C0.677244 18.8203 0.1797 18.3228 0.317021 17.7735L1.17615 14.337C1.34099 13.6776 1.68193 13.0754 2.16253 12.5948L11.1198 3.63541L15.3625 7.87805ZM17.4849 1.51515C18.6564 2.68673 18.6564 4.58622 17.4849 5.7578L16.4231 6.81739L12.1805 2.57475L13.2422 1.51515C14.4138 0.343581 16.3133 0.343581 17.4849 1.51515Z" fill="black" fill-opacity="0.2"/>
<path d="M15.3625 7.87805L6.40517 16.8375C5.92457 17.3181 5.3224 17.659 4.66303 17.8239L1.22653 18.683C0.677244 18.8203 0.1797 18.3228 0.317021 17.7735L1.17615 14.337C1.34099 13.6776 1.68193 13.0754 2.16253 12.5948L11.1198 3.63541L15.3625 7.87805ZM17.4849 1.51515C18.6564 2.68673 18.6564 4.58622 17.4849 5.7578L16.4231 6.81739L12.1805 2.57475L13.2422 1.51515C14.4138 0.343581 16.3133 0.343581 17.4849 1.51515Z" fill="black" fill-opacity="0.2"/>
<path d="M15.3625 7.87805L6.40517 16.8375C5.92457 17.3181 5.3224 17.659 4.66303 17.8239L1.22653 18.683C0.677244 18.8203 0.1797 18.3228 0.317021 17.7735L1.17615 14.337C1.34099 13.6776 1.68193 13.0754 2.16253 12.5948L11.1198 3.63541L15.3625 7.87805ZM17.4849 1.51515C18.6564 2.68673 18.6564 4.58622 17.4849 5.7578L16.4231 6.81739L12.1805 2.57475L13.2422 1.51515C14.4138 0.343581 16.3133 0.343581 17.4849 1.51515Z" fill="black" fill-opacity="0.2"/>
<path d="M15.3625 7.87805L6.40517 16.8375C5.92457 17.3181 5.3224 17.659 4.66303 17.8239L1.22653 18.683C0.677244 18.8203 0.1797 18.3228 0.317021 17.7735L1.17615 14.337C1.34099 13.6776 1.68193 13.0754 2.16253 12.5948L11.1198 3.63541L15.3625 7.87805ZM17.4849 1.51515C18.6564 2.68673 18.6564 4.58622 17.4849 5.7578L16.4231 6.81739L12.1805 2.57475L13.2422 1.51515C14.4138 0.343581 16.3133 0.343581 17.4849 1.51515Z" fill="black" fill-opacity="0.2"/>
<path d="M15.3625 7.87805L6.40517 16.8375C5.92457 17.3181 5.3224 17.659 4.66303 17.8239L1.22653 18.683C0.677244 18.8203 0.1797 18.3228 0.317021 17.7735L1.17615 14.337C1.34099 13.6776 1.68193 13.0754 2.16253 12.5948L11.1198 3.63541L15.3625 7.87805ZM17.4849 1.51515C18.6564 2.68673 18.6564 4.58622 17.4849 5.7578L16.4231 6.81739L12.1805 2.57475L13.2422 1.51515C14.4138 0.343581 16.3133 0.343581 17.4849 1.51515Z" fill="black" fill-opacity="0.2"/>
<path d="M15.3625 7.87805L6.40517 16.8375C5.92457 17.3181 5.3224 17.659 4.66303 17.8239L1.22653 18.683C0.677244 18.8203 0.1797 18.3228 0.317021 17.7735L1.17615 14.337C1.34099 13.6776 1.68193 13.0754 2.16253 12.5948L11.1198 3.63541L15.3625 7.87805ZM17.4849 1.51515C18.6564 2.68673 18.6564 4.58622 17.4849 5.7578L16.4231 6.81739L12.1805 2.57475L13.2422 1.51515C14.4138 0.343581 16.3133 0.343581 17.4849 1.51515Z" fill="black" fill-opacity="0.2"/>
</svg>
