<svg width="16" height="20" viewBox="0 0 16 20" fill="none" xmlns="http://www.w3.org/2000/svg">
<path d="M8 0C5.79086 0 4 1.79086 4 4C4 6.20914 5.79086 8 8 8C10.2091 8 12 6.20914 12 4C12 1.79086 10.2091 0 8 0ZM6 4C6 2.89543 6.89543 2 8 2C9.10457 2 10 2.89543 10 4C10 5.10457 9.10457 6 8 6C6.89543 6 6 5.10457 6 4ZM13 10L2.99996 10C1.34312 10 0 11.3432 0 13C0 15.2322 0.917942 17.0205 2.4243 18.2296C3.90684 19.4196 5.89385 20 8 20C10.1062 20 12.0932 19.4196 13.5757 18.2296C15.0821 17.0205 16 15.2322 16 13C16 11.3431 14.6569 10 13 10ZM2.99996 12L13 12C13.5523 12 14 12.4477 14 13C14 14.6338 13.3509 15.8455 12.3238 16.6699C11.2728 17.5135 9.75984 18 8 18C6.24016 18 4.72717 17.5135 3.67621 16.6699C2.64906 15.8455 2 14.6338 2 13C2 12.4477 2.44774 12 2.99996 12Z" fill="white"/>
</svg>
