<svg width="18" height="18" viewBox="0 0 18 18" fill="none" xmlns="http://www.w3.org/2000/svg">
<path d="M8.1001 16.5C8.1001 16.9971 8.50304 17.4 9.0001 17.4C9.49715 17.4 9.9001 16.9971 9.9001 16.5V9.90001H16.5001C16.9972 9.90001 17.4001 9.49706 17.4001 9.00001C17.4001 8.50295 16.9972 8.10001 16.5001 8.10001H9.9001V1.50001C9.9001 1.00295 9.49715 0.600006 9.0001 0.600006C8.50304 0.600006 8.1001 1.00295 8.1001 1.50001V8.10001H1.5001C1.00304 8.10001 0.600098 8.50295 0.600098 9.00001C0.600098 9.49706 1.00304 9.90001 1.5001 9.90001H8.1001V16.5Z" fill="#202020"/>
<path d="M8.1001 16.5C8.1001 16.9971 8.50304 17.4 9.0001 17.4C9.49715 17.4 9.9001 16.9971 9.9001 16.5V9.90001H16.5001C16.9972 9.90001 17.4001 9.49706 17.4001 9.00001C17.4001 8.50295 16.9972 8.10001 16.5001 8.10001H9.9001V1.50001C9.9001 1.00295 9.49715 0.600006 9.0001 0.600006C8.50304 0.600006 8.1001 1.00295 8.1001 1.50001V8.10001H1.5001C1.00304 8.10001 0.600098 8.50295 0.600098 9.00001C0.600098 9.49706 1.00304 9.90001 1.5001 9.90001H8.1001V16.5Z" fill="black" fill-opacity="0.2"/>
<path d="M8.1001 16.5C8.1001 16.9971 8.50304 17.4 9.0001 17.4C9.49715 17.4 9.9001 16.9971 9.9001 16.5V9.90001H16.5001C16.9972 9.90001 17.4001 9.49706 17.4001 9.00001C17.4001 8.50295 16.9972 8.10001 16.5001 8.10001H9.9001V1.50001C9.9001 1.00295 9.49715 0.600006 9.0001 0.600006C8.50304 0.600006 8.1001 1.00295 8.1001 1.50001V8.10001H1.5001C1.00304 8.10001 0.600098 8.50295 0.600098 9.00001C0.600098 9.49706 1.00304 9.90001 1.5001 9.90001H8.1001V16.5Z" fill="black" fill-opacity="0.2"/>
<path d="M8.1001 16.5C8.1001 16.9971 8.50304 17.4 9.0001 17.4C9.49715 17.4 9.9001 16.9971 9.9001 16.5V9.90001H16.5001C16.9972 9.90001 17.4001 9.49706 17.4001 9.00001C17.4001 8.50295 16.9972 8.10001 16.5001 8.10001H9.9001V1.50001C9.9001 1.00295 9.49715 0.600006 9.0001 0.600006C8.50304 0.600006 8.1001 1.00295 8.1001 1.50001V8.10001H1.5001C1.00304 8.10001 0.600098 8.50295 0.600098 9.00001C0.600098 9.49706 1.00304 9.90001 1.5001 9.90001H8.1001V16.5Z" fill="black" fill-opacity="0.2"/>
<path d="M8.1001 16.5C8.1001 16.9971 8.50304 17.4 9.0001 17.4C9.49715 17.4 9.9001 16.9971 9.9001 16.5V9.90001H16.5001C16.9972 9.90001 17.4001 9.49706 17.4001 9.00001C17.4001 8.50295 16.9972 8.10001 16.5001 8.10001H9.9001V1.50001C9.9001 1.00295 9.49715 0.600006 9.0001 0.600006C8.50304 0.600006 8.1001 1.00295 8.1001 1.50001V8.10001H1.5001C1.00304 8.10001 0.600098 8.50295 0.600098 9.00001C0.600098 9.49706 1.00304 9.90001 1.5001 9.90001H8.1001V16.5Z" fill="black" fill-opacity="0.2"/>
<path d="M8.1001 16.5C8.1001 16.9971 8.50304 17.4 9.0001 17.4C9.49715 17.4 9.9001 16.9971 9.9001 16.5V9.90001H16.5001C16.9972 9.90001 17.4001 9.49706 17.4001 9.00001C17.4001 8.50295 16.9972 8.10001 16.5001 8.10001H9.9001V1.50001C9.9001 1.00295 9.49715 0.600006 9.0001 0.600006C8.50304 0.600006 8.1001 1.00295 8.1001 1.50001V8.10001H1.5001C1.00304 8.10001 0.600098 8.50295 0.600098 9.00001C0.600098 9.49706 1.00304 9.90001 1.5001 9.90001H8.1001V16.5Z" fill="black" fill-opacity="0.2"/>
<path d="M8.1001 16.5C8.1001 16.9971 8.50304 17.4 9.0001 17.4C9.49715 17.4 9.9001 16.9971 9.9001 16.5V9.90001H16.5001C16.9972 9.90001 17.4001 9.49706 17.4001 9.00001C17.4001 8.50295 16.9972 8.10001 16.5001 8.10001H9.9001V1.50001C9.9001 1.00295 9.49715 0.600006 9.0001 0.600006C8.50304 0.600006 8.1001 1.00295 8.1001 1.50001V8.10001H1.5001C1.00304 8.10001 0.600098 8.50295 0.600098 9.00001C0.600098 9.49706 1.00304 9.90001 1.5001 9.90001H8.1001V16.5Z" fill="black" fill-opacity="0.2"/>
<path d="M8.1001 16.5C8.1001 16.9971 8.50304 17.4 9.0001 17.4C9.49715 17.4 9.9001 16.9971 9.9001 16.5V9.90001H16.5001C16.9972 9.90001 17.4001 9.49706 17.4001 9.00001C17.4001 8.50295 16.9972 8.10001 16.5001 8.10001H9.9001V1.50001C9.9001 1.00295 9.49715 0.600006 9.0001 0.600006C8.50304 0.600006 8.1001 1.00295 8.1001 1.50001V8.10001H1.5001C1.00304 8.10001 0.600098 8.50295 0.600098 9.00001C0.600098 9.49706 1.00304 9.90001 1.5001 9.90001H8.1001V16.5Z" fill="black" fill-opacity="0.2"/>
<path d="M8.1001 16.5C8.1001 16.9971 8.50304 17.4 9.0001 17.4C9.49715 17.4 9.9001 16.9971 9.9001 16.5V9.90001H16.5001C16.9972 9.90001 17.4001 9.49706 17.4001 9.00001C17.4001 8.50295 16.9972 8.10001 16.5001 8.10001H9.9001V1.50001C9.9001 1.00295 9.49715 0.600006 9.0001 0.600006C8.50304 0.600006 8.1001 1.00295 8.1001 1.50001V8.10001H1.5001C1.00304 8.10001 0.600098 8.50295 0.600098 9.00001C0.600098 9.49706 1.00304 9.90001 1.5001 9.90001H8.1001V16.5Z" fill="black" fill-opacity="0.2"/>
</svg>
