<svg width="15" height="16" viewBox="0 0 15 16" fill="none" xmlns="http://www.w3.org/2000/svg">
<path d="M7.34734 0.51027L7.5 0.5C8.06954 0.5 8.54024 0.923231 8.61473 1.47234L8.625 1.625V6.875H13.875C14.4445 6.875 14.9152 7.29823 14.9897 7.84734L15 8C15 8.56954 14.5768 9.04024 14.0277 9.11473L13.875 9.125H8.625V14.375C8.625 14.9445 8.20177 15.4152 7.65266 15.4897L7.5 15.5C6.93046 15.5 6.45976 15.0768 6.38527 14.5277L6.375 14.375V9.125H1.125C0.555456 9.125 0.0847636 8.70177 0.01027 8.15266L0 8C0 7.43046 0.423231 6.95976 0.972344 6.88527L1.125 6.875H6.375V1.625C6.375 1.05546 6.79823 0.584764 7.34734 0.51027L7.5 0.5L7.34734 0.51027Z" fill="white"/>
</svg>
