<svg width="25" height="24" viewBox="0 0 25 24" fill="none" xmlns="http://www.w3.org/2000/svg">
<path d="M12.5 0C19.1274 0 24.5 5.37258 24.5 12C24.5 18.6274 19.1274 24 12.5 24C5.87258 24 0.5 18.6274 0.5 12C0.5 5.37258 5.87258 0 12.5 0ZM12.5 1.5C6.70101 1.5 2 6.20101 2 12C2 17.799 6.70101 22.5 12.5 22.5C18.299 22.5 23 17.799 23 12C23 6.20101 18.299 1.5 12.5 1.5ZM12.5 6C12.9142 6 13.25 6.33579 13.25 6.75V11.25H17.75C18.1642 11.25 18.5 11.5858 18.5 12C18.5 12.4142 18.1642 12.75 17.75 12.75H13.25V17.25C13.25 17.6642 12.9142 18 12.5 18C12.0858 18 11.75 17.6642 11.75 17.25V12.75H7.25C6.83579 12.75 6.5 12.4142 6.5 12C6.5 11.5858 6.83579 11.25 7.25 11.25H11.75V6.75C11.75 6.33579 12.0858 6 12.5 6Z" fill="#202020"/>
<path d="M12.5 0C19.1274 0 24.5 5.37258 24.5 12C24.5 18.6274 19.1274 24 12.5 24C5.87258 24 0.5 18.6274 0.5 12C0.5 5.37258 5.87258 0 12.5 0ZM12.5 1.5C6.70101 1.5 2 6.20101 2 12C2 17.799 6.70101 22.5 12.5 22.5C18.299 22.5 23 17.799 23 12C23 6.20101 18.299 1.5 12.5 1.5ZM12.5 6C12.9142 6 13.25 6.33579 13.25 6.75V11.25H17.75C18.1642 11.25 18.5 11.5858 18.5 12C18.5 12.4142 18.1642 12.75 17.75 12.75H13.25V17.25C13.25 17.6642 12.9142 18 12.5 18C12.0858 18 11.75 17.6642 11.75 17.25V12.75H7.25C6.83579 12.75 6.5 12.4142 6.5 12C6.5 11.5858 6.83579 11.25 7.25 11.25H11.75V6.75C11.75 6.33579 12.0858 6 12.5 6Z" fill="black" fill-opacity="0.2"/>
<path d="M12.5 0C19.1274 0 24.5 5.37258 24.5 12C24.5 18.6274 19.1274 24 12.5 24C5.87258 24 0.5 18.6274 0.5 12C0.5 5.37258 5.87258 0 12.5 0ZM12.5 1.5C6.70101 1.5 2 6.20101 2 12C2 17.799 6.70101 22.5 12.5 22.5C18.299 22.5 23 17.799 23 12C23 6.20101 18.299 1.5 12.5 1.5ZM12.5 6C12.9142 6 13.25 6.33579 13.25 6.75V11.25H17.75C18.1642 11.25 18.5 11.5858 18.5 12C18.5 12.4142 18.1642 12.75 17.75 12.75H13.25V17.25C13.25 17.6642 12.9142 18 12.5 18C12.0858 18 11.75 17.6642 11.75 17.25V12.75H7.25C6.83579 12.75 6.5 12.4142 6.5 12C6.5 11.5858 6.83579 11.25 7.25 11.25H11.75V6.75C11.75 6.33579 12.0858 6 12.5 6Z" fill="black" fill-opacity="0.2"/>
<path d="M12.5 0C19.1274 0 24.5 5.37258 24.5 12C24.5 18.6274 19.1274 24 12.5 24C5.87258 24 0.5 18.6274 0.5 12C0.5 5.37258 5.87258 0 12.5 0ZM12.5 1.5C6.70101 1.5 2 6.20101 2 12C2 17.799 6.70101 22.5 12.5 22.5C18.299 22.5 23 17.799 23 12C23 6.20101 18.299 1.5 12.5 1.5ZM12.5 6C12.9142 6 13.25 6.33579 13.25 6.75V11.25H17.75C18.1642 11.25 18.5 11.5858 18.5 12C18.5 12.4142 18.1642 12.75 17.75 12.75H13.25V17.25C13.25 17.6642 12.9142 18 12.5 18C12.0858 18 11.75 17.6642 11.75 17.25V12.75H7.25C6.83579 12.75 6.5 12.4142 6.5 12C6.5 11.5858 6.83579 11.25 7.25 11.25H11.75V6.75C11.75 6.33579 12.0858 6 12.5 6Z" fill="black" fill-opacity="0.2"/>
<path d="M12.5 0C19.1274 0 24.5 5.37258 24.5 12C24.5 18.6274 19.1274 24 12.5 24C5.87258 24 0.5 18.6274 0.5 12C0.5 5.37258 5.87258 0 12.5 0ZM12.5 1.5C6.70101 1.5 2 6.20101 2 12C2 17.799 6.70101 22.5 12.5 22.5C18.299 22.5 23 17.799 23 12C23 6.20101 18.299 1.5 12.5 1.5ZM12.5 6C12.9142 6 13.25 6.33579 13.25 6.75V11.25H17.75C18.1642 11.25 18.5 11.5858 18.5 12C18.5 12.4142 18.1642 12.75 17.75 12.75H13.25V17.25C13.25 17.6642 12.9142 18 12.5 18C12.0858 18 11.75 17.6642 11.75 17.25V12.75H7.25C6.83579 12.75 6.5 12.4142 6.5 12C6.5 11.5858 6.83579 11.25 7.25 11.25H11.75V6.75C11.75 6.33579 12.0858 6 12.5 6Z" fill="black" fill-opacity="0.2"/>
<path d="M12.5 0C19.1274 0 24.5 5.37258 24.5 12C24.5 18.6274 19.1274 24 12.5 24C5.87258 24 0.5 18.6274 0.5 12C0.5 5.37258 5.87258 0 12.5 0ZM12.5 1.5C6.70101 1.5 2 6.20101 2 12C2 17.799 6.70101 22.5 12.5 22.5C18.299 22.5 23 17.799 23 12C23 6.20101 18.299 1.5 12.5 1.5ZM12.5 6C12.9142 6 13.25 6.33579 13.25 6.75V11.25H17.75C18.1642 11.25 18.5 11.5858 18.5 12C18.5 12.4142 18.1642 12.75 17.75 12.75H13.25V17.25C13.25 17.6642 12.9142 18 12.5 18C12.0858 18 11.75 17.6642 11.75 17.25V12.75H7.25C6.83579 12.75 6.5 12.4142 6.5 12C6.5 11.5858 6.83579 11.25 7.25 11.25H11.75V6.75C11.75 6.33579 12.0858 6 12.5 6Z" fill="black" fill-opacity="0.2"/>
<path d="M12.5 0C19.1274 0 24.5 5.37258 24.5 12C24.5 18.6274 19.1274 24 12.5 24C5.87258 24 0.5 18.6274 0.5 12C0.5 5.37258 5.87258 0 12.5 0ZM12.5 1.5C6.70101 1.5 2 6.20101 2 12C2 17.799 6.70101 22.5 12.5 22.5C18.299 22.5 23 17.799 23 12C23 6.20101 18.299 1.5 12.5 1.5ZM12.5 6C12.9142 6 13.25 6.33579 13.25 6.75V11.25H17.75C18.1642 11.25 18.5 11.5858 18.5 12C18.5 12.4142 18.1642 12.75 17.75 12.75H13.25V17.25C13.25 17.6642 12.9142 18 12.5 18C12.0858 18 11.75 17.6642 11.75 17.25V12.75H7.25C6.83579 12.75 6.5 12.4142 6.5 12C6.5 11.5858 6.83579 11.25 7.25 11.25H11.75V6.75C11.75 6.33579 12.0858 6 12.5 6Z" fill="black" fill-opacity="0.2"/>
<path d="M12.5 0C19.1274 0 24.5 5.37258 24.5 12C24.5 18.6274 19.1274 24 12.5 24C5.87258 24 0.5 18.6274 0.5 12C0.5 5.37258 5.87258 0 12.5 0ZM12.5 1.5C6.70101 1.5 2 6.20101 2 12C2 17.799 6.70101 22.5 12.5 22.5C18.299 22.5 23 17.799 23 12C23 6.20101 18.299 1.5 12.5 1.5ZM12.5 6C12.9142 6 13.25 6.33579 13.25 6.75V11.25H17.75C18.1642 11.25 18.5 11.5858 18.5 12C18.5 12.4142 18.1642 12.75 17.75 12.75H13.25V17.25C13.25 17.6642 12.9142 18 12.5 18C12.0858 18 11.75 17.6642 11.75 17.25V12.75H7.25C6.83579 12.75 6.5 12.4142 6.5 12C6.5 11.5858 6.83579 11.25 7.25 11.25H11.75V6.75C11.75 6.33579 12.0858 6 12.5 6Z" fill="black" fill-opacity="0.2"/>
<path d="M12.5 0C19.1274 0 24.5 5.37258 24.5 12C24.5 18.6274 19.1274 24 12.5 24C5.87258 24 0.5 18.6274 0.5 12C0.5 5.37258 5.87258 0 12.5 0ZM12.5 1.5C6.70101 1.5 2 6.20101 2 12C2 17.799 6.70101 22.5 12.5 22.5C18.299 22.5 23 17.799 23 12C23 6.20101 18.299 1.5 12.5 1.5ZM12.5 6C12.9142 6 13.25 6.33579 13.25 6.75V11.25H17.75C18.1642 11.25 18.5 11.5858 18.5 12C18.5 12.4142 18.1642 12.75 17.75 12.75H13.25V17.25C13.25 17.6642 12.9142 18 12.5 18C12.0858 18 11.75 17.6642 11.75 17.25V12.75H7.25C6.83579 12.75 6.5 12.4142 6.5 12C6.5 11.5858 6.83579 11.25 7.25 11.25H11.75V6.75C11.75 6.33579 12.0858 6 12.5 6Z" fill="black" fill-opacity="0.2"/>
</svg>
