<svg width="26" height="27" viewBox="0 0 26 27" fill="none" xmlns="http://www.w3.org/2000/svg">
<path d="M13.5077 21.1975L19.3226 24.8895C20.0725 25.3625 20.9956 24.6587 20.7763 23.7934L19.0919 17.1708C19.0463 16.9873 19.0535 16.7946 19.1127 16.6149C19.1719 16.4353 19.2807 16.276 19.4264 16.1555L24.6414 11.8058C25.3222 11.2405 24.976 10.0983 24.0876 10.0406L17.2804 9.60216C17.0947 9.59135 16.9161 9.52668 16.7666 9.41603C16.617 9.30539 16.5029 9.15357 16.4382 8.97913L13.8999 2.5873C13.8327 2.40259 13.7103 2.24302 13.5493 2.13027C13.3883 2.01751 13.1966 1.95703 13 1.95703C12.8034 1.95703 12.6117 2.01751 12.4507 2.13027C12.2897 2.24302 12.1673 2.40259 12.1001 2.5873L9.56179 8.97913C9.4971 9.15357 9.383 9.30539 9.23343 9.41603C9.08385 9.52668 8.90529 9.59135 8.71955 9.60216L1.91237 10.0406C1.02397 10.0983 0.677844 11.2405 1.35856 11.8058L6.57356 16.1555C6.71932 16.276 6.82806 16.4353 6.88726 16.6149C6.94645 16.7946 6.9537 16.9873 6.90815 17.1708L5.35057 23.3088C5.08521 24.3472 6.19282 25.1895 7.08121 24.6241L12.4923 21.1975C12.6441 21.101 12.8202 21.0497 13 21.0497C13.1798 21.0497 13.3559 21.101 13.5077 21.1975Z" fill="#F8D57E" stroke="#F8D57E" stroke-width="2" stroke-linecap="round" stroke-linejoin="round"/>
</svg>
