<svg width="18" height="18" viewBox="0 0 18 18" fill="none" xmlns="http://www.w3.org/2000/svg">
<path d="M9 1.5C13.1421 1.5 16.5 4.85786 16.5 9C16.5 13.1421 13.1421 16.5 9 16.5C4.85786 16.5 1.5 13.1421 1.5 9C1.5 8.62365 1.52772 8.25377 1.58123 7.89229C1.64845 7.43823 1.31609 7 0.857079 7C0.486233 7 0.160999 7.25624 0.104712 7.62279C0.0357647 8.07178 0 8.53171 0 9C0 13.9706 4.02944 18 9 18C13.9706 18 18 13.9706 18 9C18 4.02944 13.9706 0 9 0C6.69494 0 4.59227 0.86656 3 2.29168V1.25C3 0.835786 2.66421 0.5 2.25 0.5C1.83579 0.5 1.5 0.835786 1.5 1.25V4.25C1.5 4.66421 1.83579 5 2.25 5H5.25C5.66421 5 6 4.66421 6 4.25C6 3.83579 5.66421 3.5 5.25 3.5H3.90093C5.23907 2.25883 7.03092 1.5 9 1.5Z" fill="#202020"/>
</svg>
