<svg width="20" height="20" viewBox="0 0 20 20" fill="none" xmlns="http://www.w3.org/2000/svg">
<path d="M8 0C3.58172 0 0 3.58172 0 8C0 12.4183 3.58172 16 8 16C9.84834 16 11.5503 15.3732 12.9048 14.3205L18.291 19.7067C18.6815 20.0972 19.3147 20.0972 19.7052 19.7067C20.0958 19.3162 20.0958 18.683 19.7052 18.2925L14.3192 12.9065C15.3727 11.5517 16 9.84909 16 8C16 3.58172 12.4183 0 8 0ZM2 8C2 4.68629 4.68629 2 8 2C11.3137 2 14 4.68629 14 8C14 11.3137 11.3137 14 8 14C4.68629 14 2 11.3137 2 8Z" fill="white"/>
</svg>
