<svg width="16" height="14" viewBox="0 0 16 14" fill="none" xmlns="http://www.w3.org/2000/svg">
<path d="M12.8393 13.7223C12.702 13.8917 12.4849 14 12.25 14C12.0571 14.001 11.8704 13.9277 11.7232 13.7803L8.71935 10.772C8.42688 10.4791 8.42689 10.0043 8.71935 9.71137C9.0118 9.41848 9.48597 9.41848 9.77843 9.71137L11.5 11.4441V0.75C11.5 0.335786 11.8364 0 12.25 0C12.6636 0 13 0.335786 13 0.75V11.4336L14.7216 9.71588C15.014 9.42299 15.4882 9.42299 15.7807 9.71589C16.0731 10.0088 16.0731 10.4837 15.7807 10.7765L12.8393 13.7223ZM4.33931 0.277754C4.202 0.108302 3.98488 9.47594e-06 3.75 9.45538e-06C3.55709 -0.000953685 3.37038 0.0722668 3.2232 0.21967L0.219345 3.22798C-0.0731149 3.52087 -0.0731149 3.99575 0.219345 4.28864C0.511804 4.58153 0.985974 4.58153 1.27843 4.28864L3 2.5559V13.25C3 13.6642 3.3364 14 3.75 14C4.1636 14 4.5 13.6642 4.5 13.25V2.5664L6.22157 4.28412C6.51403 4.57702 6.9882 4.57702 7.28066 4.28412C7.57311 3.99123 7.57311 3.51636 7.28066 3.22346L4.33931 0.277754Z" fill="#242424"/>
</svg>
