<svg width="11" height="16" viewBox="0 0 11 16" fill="none" xmlns="http://www.w3.org/2000/svg">
<path d="M6.03033 0.71967C5.73744 0.426777 5.26256 0.426777 4.96967 0.71967L0.71967 4.96967C0.426777 5.26256 0.426777 5.73744 0.71967 6.03033C1.01256 6.32322 1.48744 6.32322 1.78033 6.03033L5.5 2.31066L9.21967 6.03033C9.51256 6.32322 9.98744 6.32322 10.2803 6.03033C10.5732 5.73744 10.5732 5.26256 10.2803 4.96967L6.03033 0.71967ZM10.2803 11.0303L6.03033 15.2803C5.73744 15.5732 5.26256 15.5732 4.96967 15.2803L0.71967 11.0303C0.426777 10.7374 0.426777 10.2626 0.71967 9.96967C1.01256 9.67678 1.48744 9.67678 1.78033 9.96967L5.5 13.6893L9.21967 9.96967C9.51256 9.67678 9.98744 9.67678 10.2803 9.96967C10.5732 10.2626 10.5732 10.7374 10.2803 11.0303Z" fill="#242424"/>
</svg>
