<svg width="26" height="28" viewBox="0 0 26 28" fill="none" xmlns="http://www.w3.org/2000/svg">
<path d="M15.9634 2.6877C16.1356 2.47039 16.4516 2.4346 16.668 2.6079L17.7487 3.47351L13.7982 8.50004H16.3419L19.3097 4.72389L21.8142 6.72997C22.0353 6.90702 22.0653 7.23213 21.8804 7.44665L20.9728 8.49976H23.5869C24.2916 7.43783 24.0861 5.98718 23.0646 5.16898L17.9183 1.04691C16.8365 0.180403 15.2562 0.359399 14.3957 1.44591L8.80859 8.49976H11.36L15.9634 2.6877ZM18 17.5C17.4477 17.5 17 17.9477 17 18.5C17 19.0523 17.4477 19.5 18 19.5H21C21.5523 19.5 22 19.0523 22 18.5C22 17.9477 21.5523 17.5 21 17.5H18ZM3 5.5C1.34315 5.5 0 6.84315 0 8.5V23.0004C0 25.4857 2.01472 27.5004 4.5 27.5004H21.5C23.9853 27.5004 26 25.4857 26 23.0004V14.0004C26 11.5152 23.9853 9.50045 21.5 9.50045L3 9.5C2.44772 9.5 2 9.05228 2 8.5C2 7.94772 2.44772 7.5 3 7.5H7.58L9.17625 5.5H3ZM2 23.0004V11.3293C2.31278 11.4398 2.64936 11.5 3 11.5H6.46974C6.47979 11.5003 6.48988 11.5004 6.5 11.5004H21.5C22.8807 11.5004 24 12.6197 24 14.0004V23.0004C24 24.3812 22.8807 25.5004 21.5 25.5004H4.5C3.11929 25.5004 2 24.3812 2 23.0004Z" fill="#242424"/>
</svg>
