<svg width="29" height="32" viewBox="0 0 29 32" fill="none" xmlns="http://www.w3.org/2000/svg">
<path d="M9.52381 0C7.41987 0 5.71429 1.68552 5.71429 3.76471V13.5662C6.32816 13.3946 6.96493 13.2769 7.61905 13.2187V3.76471C7.61905 2.72511 8.47184 1.88235 9.52381 1.88235H17.1429V8.47059C17.1429 10.03 18.422 11.2941 20 11.2941H26.6667V26.3529C26.6667 27.3925 25.8139 28.2353 24.7619 28.2353H17.9053C17.5569 28.9088 17.1361 29.5396 16.653 30.1176H24.7619C26.8658 30.1176 28.5714 28.4321 28.5714 26.3529V10.1915C28.5714 9.44261 28.2704 8.72444 27.7346 8.19492L20.2789 0.826993C19.7431 0.297478 19.0164 0 18.2586 0H9.52381ZM26.2722 9.41177H20C19.474 9.41177 19.0476 8.99039 19.0476 8.47059V2.2722L26.2722 9.41177ZM8.57143 32C13.3053 32 17.1429 28.2076 17.1429 23.5294C17.1429 18.8512 13.3053 15.0588 8.57143 15.0588C3.83756 15.0588 0 18.8512 0 23.5294C0 28.2076 3.83756 32 8.57143 32ZM13.0543 22.864C13.4263 23.2316 13.4263 23.8275 13.0543 24.195C12.6824 24.5626 12.0794 24.5626 11.7075 24.195L9.52376 22.037L9.52376 27.2942C9.52376 27.814 9.09736 28.2354 8.57138 28.2354C8.04539 28.2354 7.619 27.814 7.619 27.2942L7.619 22.037L5.43529 24.195C5.06336 24.5626 4.46035 24.5626 4.08842 24.195C3.71649 23.8275 3.71649 23.2316 4.08842 22.864L7.89794 19.0993C7.98925 19.0091 8.09449 18.941 8.20682 18.895C8.31746 18.8497 8.43861 18.8244 8.56567 18.8237L8.57138 18.8236L8.57709 18.8237C8.70414 18.8244 8.8253 18.8497 8.93593 18.895C9.0466 18.9403 9.15039 19.0071 9.24076 19.0953L9.24557 19.1L13.0543 22.864Z" fill="#242424"/>
</svg>
