<svg width="9" height="15" viewBox="0 0 9 15" fill="none" xmlns="http://www.w3.org/2000/svg">
<path d="M5.00245 13.1613L7.64682 10.5169C7.84209 10.3217 8.15867 10.3217 8.35393 10.5169C8.54919 10.7122 8.54919 11.0288 8.35393 11.224L4.8856 14.6924C4.79388 14.8016 4.65628 14.8711 4.50245 14.8711L4.50079 14.8711C4.4221 14.8711 4.34341 14.8527 4.27177 14.8158C4.22664 14.7926 4.1843 14.7621 4.1465 14.7243L4.13652 14.7141L0.646447 11.224C0.451184 11.0287 0.451184 10.7122 0.646447 10.5169C0.841709 10.3216 1.15829 10.3216 1.35355 10.5169L4.00245 13.1658L4.00245 1.37109C4.00245 1.09495 4.22631 0.871094 4.50245 0.871094C4.77859 0.871094 5.00245 1.09495 5.00245 1.37109L5.00245 13.1613Z" fill="#202020"/>
<path d="M5.00245 13.1613L7.64682 10.5169C7.84209 10.3217 8.15867 10.3217 8.35393 10.5169C8.54919 10.7122 8.54919 11.0288 8.35393 11.224L4.8856 14.6924C4.79388 14.8016 4.65628 14.8711 4.50245 14.8711L4.50079 14.8711C4.4221 14.8711 4.34341 14.8527 4.27177 14.8158C4.22664 14.7926 4.1843 14.7621 4.1465 14.7243L4.13652 14.7141L0.646447 11.224C0.451184 11.0287 0.451184 10.7122 0.646447 10.5169C0.841709 10.3216 1.15829 10.3216 1.35355 10.5169L4.00245 13.1658L4.00245 1.37109C4.00245 1.09495 4.22631 0.871094 4.50245 0.871094C4.77859 0.871094 5.00245 1.09495 5.00245 1.37109L5.00245 13.1613Z" fill="black" fill-opacity="0.2"/>
<path d="M5.00245 13.1613L7.64682 10.5169C7.84209 10.3217 8.15867 10.3217 8.35393 10.5169C8.54919 10.7122 8.54919 11.0288 8.35393 11.224L4.8856 14.6924C4.79388 14.8016 4.65628 14.8711 4.50245 14.8711L4.50079 14.8711C4.4221 14.8711 4.34341 14.8527 4.27177 14.8158C4.22664 14.7926 4.1843 14.7621 4.1465 14.7243L4.13652 14.7141L0.646447 11.224C0.451184 11.0287 0.451184 10.7122 0.646447 10.5169C0.841709 10.3216 1.15829 10.3216 1.35355 10.5169L4.00245 13.1658L4.00245 1.37109C4.00245 1.09495 4.22631 0.871094 4.50245 0.871094C4.77859 0.871094 5.00245 1.09495 5.00245 1.37109L5.00245 13.1613Z" fill="black" fill-opacity="0.2"/>
<path d="M5.00245 13.1613L7.64682 10.5169C7.84209 10.3217 8.15867 10.3217 8.35393 10.5169C8.54919 10.7122 8.54919 11.0288 8.35393 11.224L4.8856 14.6924C4.79388 14.8016 4.65628 14.8711 4.50245 14.8711L4.50079 14.8711C4.4221 14.8711 4.34341 14.8527 4.27177 14.8158C4.22664 14.7926 4.1843 14.7621 4.1465 14.7243L4.13652 14.7141L0.646447 11.224C0.451184 11.0287 0.451184 10.7122 0.646447 10.5169C0.841709 10.3216 1.15829 10.3216 1.35355 10.5169L4.00245 13.1658L4.00245 1.37109C4.00245 1.09495 4.22631 0.871094 4.50245 0.871094C4.77859 0.871094 5.00245 1.09495 5.00245 1.37109L5.00245 13.1613Z" fill="black" fill-opacity="0.2"/>
<path d="M5.00245 13.1613L7.64682 10.5169C7.84209 10.3217 8.15867 10.3217 8.35393 10.5169C8.54919 10.7122 8.54919 11.0288 8.35393 11.224L4.8856 14.6924C4.79388 14.8016 4.65628 14.8711 4.50245 14.8711L4.50079 14.8711C4.4221 14.8711 4.34341 14.8527 4.27177 14.8158C4.22664 14.7926 4.1843 14.7621 4.1465 14.7243L4.13652 14.7141L0.646447 11.224C0.451184 11.0287 0.451184 10.7122 0.646447 10.5169C0.841709 10.3216 1.15829 10.3216 1.35355 10.5169L4.00245 13.1658L4.00245 1.37109C4.00245 1.09495 4.22631 0.871094 4.50245 0.871094C4.77859 0.871094 5.00245 1.09495 5.00245 1.37109L5.00245 13.1613Z" fill="black" fill-opacity="0.2"/>
<path d="M5.00245 13.1613L7.64682 10.5169C7.84209 10.3217 8.15867 10.3217 8.35393 10.5169C8.54919 10.7122 8.54919 11.0288 8.35393 11.224L4.8856 14.6924C4.79388 14.8016 4.65628 14.8711 4.50245 14.8711L4.50079 14.8711C4.4221 14.8711 4.34341 14.8527 4.27177 14.8158C4.22664 14.7926 4.1843 14.7621 4.1465 14.7243L4.13652 14.7141L0.646447 11.224C0.451184 11.0287 0.451184 10.7122 0.646447 10.5169C0.841709 10.3216 1.15829 10.3216 1.35355 10.5169L4.00245 13.1658L4.00245 1.37109C4.00245 1.09495 4.22631 0.871094 4.50245 0.871094C4.77859 0.871094 5.00245 1.09495 5.00245 1.37109L5.00245 13.1613Z" fill="black" fill-opacity="0.2"/>
<path d="M5.00245 13.1613L7.64682 10.5169C7.84209 10.3217 8.15867 10.3217 8.35393 10.5169C8.54919 10.7122 8.54919 11.0288 8.35393 11.224L4.8856 14.6924C4.79388 14.8016 4.65628 14.8711 4.50245 14.8711L4.50079 14.8711C4.4221 14.8711 4.34341 14.8527 4.27177 14.8158C4.22664 14.7926 4.1843 14.7621 4.1465 14.7243L4.13652 14.7141L0.646447 11.224C0.451184 11.0287 0.451184 10.7122 0.646447 10.5169C0.841709 10.3216 1.15829 10.3216 1.35355 10.5169L4.00245 13.1658L4.00245 1.37109C4.00245 1.09495 4.22631 0.871094 4.50245 0.871094C4.77859 0.871094 5.00245 1.09495 5.00245 1.37109L5.00245 13.1613Z" fill="black" fill-opacity="0.2"/>
<path d="M5.00245 13.1613L7.64682 10.5169C7.84209 10.3217 8.15867 10.3217 8.35393 10.5169C8.54919 10.7122 8.54919 11.0288 8.35393 11.224L4.8856 14.6924C4.79388 14.8016 4.65628 14.8711 4.50245 14.8711L4.50079 14.8711C4.4221 14.8711 4.34341 14.8527 4.27177 14.8158C4.22664 14.7926 4.1843 14.7621 4.1465 14.7243L4.13652 14.7141L0.646447 11.224C0.451184 11.0287 0.451184 10.7122 0.646447 10.5169C0.841709 10.3216 1.15829 10.3216 1.35355 10.5169L4.00245 13.1658L4.00245 1.37109C4.00245 1.09495 4.22631 0.871094 4.50245 0.871094C4.77859 0.871094 5.00245 1.09495 5.00245 1.37109L5.00245 13.1613Z" fill="black" fill-opacity="0.2"/>
<path d="M5.00245 13.1613L7.64682 10.5169C7.84209 10.3217 8.15867 10.3217 8.35393 10.5169C8.54919 10.7122 8.54919 11.0288 8.35393 11.224L4.8856 14.6924C4.79388 14.8016 4.65628 14.8711 4.50245 14.8711L4.50079 14.8711C4.4221 14.8711 4.34341 14.8527 4.27177 14.8158C4.22664 14.7926 4.1843 14.7621 4.1465 14.7243L4.13652 14.7141L0.646447 11.224C0.451184 11.0287 0.451184 10.7122 0.646447 10.5169C0.841709 10.3216 1.15829 10.3216 1.35355 10.5169L4.00245 13.1658L4.00245 1.37109C4.00245 1.09495 4.22631 0.871094 4.50245 0.871094C4.77859 0.871094 5.00245 1.09495 5.00245 1.37109L5.00245 13.1613Z" fill="black" fill-opacity="0.2"/>
</svg>
