<svg width="9" height="15" viewBox="0 0 9 15" fill="none" xmlns="http://www.w3.org/2000/svg">
<path d="M3.99755 2.5809L1.35318 5.22527C1.15791 5.42053 0.841332 5.42053 0.64607 5.22527C0.450808 5.03001 0.450808 4.71342 0.646069 4.51816L4.1144 1.04984C4.20612 0.940561 4.34372 0.871094 4.49755 0.871094L4.49921 0.871098C4.5779 0.871075 4.65659 0.889505 4.72823 0.926399C4.77336 0.949563 4.8157 0.980045 4.8535 1.01784L4.86348 1.02811L8.35355 4.51818C8.54882 4.71344 8.54882 5.03003 8.35355 5.22529C8.15829 5.42055 7.84171 5.42055 7.64645 5.22529L4.99755 2.57639L4.99755 14.3711C4.99755 14.6472 4.77369 14.8711 4.49755 14.8711C4.22141 14.8711 3.99755 14.6472 3.99755 14.3711L3.99755 2.5809Z" fill="#202020"/>
<path d="M3.99755 2.5809L1.35318 5.22527C1.15791 5.42053 0.841332 5.42053 0.64607 5.22527C0.450808 5.03001 0.450808 4.71342 0.646069 4.51816L4.1144 1.04984C4.20612 0.940561 4.34372 0.871094 4.49755 0.871094L4.49921 0.871098C4.5779 0.871075 4.65659 0.889505 4.72823 0.926399C4.77336 0.949563 4.8157 0.980045 4.8535 1.01784L4.86348 1.02811L8.35355 4.51818C8.54882 4.71344 8.54882 5.03003 8.35355 5.22529C8.15829 5.42055 7.84171 5.42055 7.64645 5.22529L4.99755 2.57639L4.99755 14.3711C4.99755 14.6472 4.77369 14.8711 4.49755 14.8711C4.22141 14.8711 3.99755 14.6472 3.99755 14.3711L3.99755 2.5809Z" fill="black" fill-opacity="0.2"/>
<path d="M3.99755 2.5809L1.35318 5.22527C1.15791 5.42053 0.841332 5.42053 0.64607 5.22527C0.450808 5.03001 0.450808 4.71342 0.646069 4.51816L4.1144 1.04984C4.20612 0.940561 4.34372 0.871094 4.49755 0.871094L4.49921 0.871098C4.5779 0.871075 4.65659 0.889505 4.72823 0.926399C4.77336 0.949563 4.8157 0.980045 4.8535 1.01784L4.86348 1.02811L8.35355 4.51818C8.54882 4.71344 8.54882 5.03003 8.35355 5.22529C8.15829 5.42055 7.84171 5.42055 7.64645 5.22529L4.99755 2.57639L4.99755 14.3711C4.99755 14.6472 4.77369 14.8711 4.49755 14.8711C4.22141 14.8711 3.99755 14.6472 3.99755 14.3711L3.99755 2.5809Z" fill="black" fill-opacity="0.2"/>
<path d="M3.99755 2.5809L1.35318 5.22527C1.15791 5.42053 0.841332 5.42053 0.64607 5.22527C0.450808 5.03001 0.450808 4.71342 0.646069 4.51816L4.1144 1.04984C4.20612 0.940561 4.34372 0.871094 4.49755 0.871094L4.49921 0.871098C4.5779 0.871075 4.65659 0.889505 4.72823 0.926399C4.77336 0.949563 4.8157 0.980045 4.8535 1.01784L4.86348 1.02811L8.35355 4.51818C8.54882 4.71344 8.54882 5.03003 8.35355 5.22529C8.15829 5.42055 7.84171 5.42055 7.64645 5.22529L4.99755 2.57639L4.99755 14.3711C4.99755 14.6472 4.77369 14.8711 4.49755 14.8711C4.22141 14.8711 3.99755 14.6472 3.99755 14.3711L3.99755 2.5809Z" fill="black" fill-opacity="0.2"/>
<path d="M3.99755 2.5809L1.35318 5.22527C1.15791 5.42053 0.841332 5.42053 0.64607 5.22527C0.450808 5.03001 0.450808 4.71342 0.646069 4.51816L4.1144 1.04984C4.20612 0.940561 4.34372 0.871094 4.49755 0.871094L4.49921 0.871098C4.5779 0.871075 4.65659 0.889505 4.72823 0.926399C4.77336 0.949563 4.8157 0.980045 4.8535 1.01784L4.86348 1.02811L8.35355 4.51818C8.54882 4.71344 8.54882 5.03003 8.35355 5.22529C8.15829 5.42055 7.84171 5.42055 7.64645 5.22529L4.99755 2.57639L4.99755 14.3711C4.99755 14.6472 4.77369 14.8711 4.49755 14.8711C4.22141 14.8711 3.99755 14.6472 3.99755 14.3711L3.99755 2.5809Z" fill="black" fill-opacity="0.2"/>
<path d="M3.99755 2.5809L1.35318 5.22527C1.15791 5.42053 0.841332 5.42053 0.64607 5.22527C0.450808 5.03001 0.450808 4.71342 0.646069 4.51816L4.1144 1.04984C4.20612 0.940561 4.34372 0.871094 4.49755 0.871094L4.49921 0.871098C4.5779 0.871075 4.65659 0.889505 4.72823 0.926399C4.77336 0.949563 4.8157 0.980045 4.8535 1.01784L4.86348 1.02811L8.35355 4.51818C8.54882 4.71344 8.54882 5.03003 8.35355 5.22529C8.15829 5.42055 7.84171 5.42055 7.64645 5.22529L4.99755 2.57639L4.99755 14.3711C4.99755 14.6472 4.77369 14.8711 4.49755 14.8711C4.22141 14.8711 3.99755 14.6472 3.99755 14.3711L3.99755 2.5809Z" fill="black" fill-opacity="0.2"/>
<path d="M3.99755 2.5809L1.35318 5.22527C1.15791 5.42053 0.841332 5.42053 0.64607 5.22527C0.450808 5.03001 0.450808 4.71342 0.646069 4.51816L4.1144 1.04984C4.20612 0.940561 4.34372 0.871094 4.49755 0.871094L4.49921 0.871098C4.5779 0.871075 4.65659 0.889505 4.72823 0.926399C4.77336 0.949563 4.8157 0.980045 4.8535 1.01784L4.86348 1.02811L8.35355 4.51818C8.54882 4.71344 8.54882 5.03003 8.35355 5.22529C8.15829 5.42055 7.84171 5.42055 7.64645 5.22529L4.99755 2.57639L4.99755 14.3711C4.99755 14.6472 4.77369 14.8711 4.49755 14.8711C4.22141 14.8711 3.99755 14.6472 3.99755 14.3711L3.99755 2.5809Z" fill="black" fill-opacity="0.2"/>
<path d="M3.99755 2.5809L1.35318 5.22527C1.15791 5.42053 0.841332 5.42053 0.64607 5.22527C0.450808 5.03001 0.450808 4.71342 0.646069 4.51816L4.1144 1.04984C4.20612 0.940561 4.34372 0.871094 4.49755 0.871094L4.49921 0.871098C4.5779 0.871075 4.65659 0.889505 4.72823 0.926399C4.77336 0.949563 4.8157 0.980045 4.8535 1.01784L4.86348 1.02811L8.35355 4.51818C8.54882 4.71344 8.54882 5.03003 8.35355 5.22529C8.15829 5.42055 7.84171 5.42055 7.64645 5.22529L4.99755 2.57639L4.99755 14.3711C4.99755 14.6472 4.77369 14.8711 4.49755 14.8711C4.22141 14.8711 3.99755 14.6472 3.99755 14.3711L3.99755 2.5809Z" fill="black" fill-opacity="0.2"/>
<path d="M3.99755 2.5809L1.35318 5.22527C1.15791 5.42053 0.841332 5.42053 0.64607 5.22527C0.450808 5.03001 0.450808 4.71342 0.646069 4.51816L4.1144 1.04984C4.20612 0.940561 4.34372 0.871094 4.49755 0.871094L4.49921 0.871098C4.5779 0.871075 4.65659 0.889505 4.72823 0.926399C4.77336 0.949563 4.8157 0.980045 4.8535 1.01784L4.86348 1.02811L8.35355 4.51818C8.54882 4.71344 8.54882 5.03003 8.35355 5.22529C8.15829 5.42055 7.84171 5.42055 7.64645 5.22529L4.99755 2.57639L4.99755 14.3711C4.99755 14.6472 4.77369 14.8711 4.49755 14.8711C4.22141 14.8711 3.99755 14.6472 3.99755 14.3711L3.99755 2.5809Z" fill="black" fill-opacity="0.2"/>
</svg>
