<svg width="22" height="22" viewBox="0 0 22 22" fill="none" xmlns="http://www.w3.org/2000/svg">
<path d="M11 2C8.85688 2 6.88875 2.74851 5.34247 4H7C7.55228 4 8 4.44772 8 5C8 5.55228 7.55228 6 7 6H3C2.45739 6 2.01571 5.56783 2.00041 5.02892C1.99999 5.01511 1.99985 5.00129 2 4.98746V1C2 0.447715 2.44772 0 3 0C3.55228 0 4 0.447715 4 1V2.51448C5.90133 0.944419 8.34045 0 11 0C17.0751 0 22 4.92487 22 11C22 17.0751 17.0751 22 11 22C4.92487 22 0 17.0751 0 11C0 10.6295 0.0183576 10.2629 0.0542679 9.9012C0.108834 9.35162 0.598593 8.95033 1.14818 9.00489C1.69776 9.05946 2.09905 9.54922 2.04448 10.0988C2.01508 10.3949 2 10.6955 2 11C2 15.9706 6.02944 20 11 20C15.9706 20 20 15.9706 20 11C20 6.02944 15.9706 2 11 2ZM12 5C12 4.44772 11.5523 4 11 4C10.4477 4 10 4.44772 10 5V11C10 11.5523 10.4477 12 11 12H13.5C14.0523 12 14.5 11.5523 14.5 11C14.5 10.4477 14.0523 10 13.5 10H12V5Z" fill="white"/>
</svg>
