<svg width="23" height="25" viewBox="0 0 23 25" fill="none" xmlns="http://www.w3.org/2000/svg">
<path d="M21.45 21.5995C21.45 22.0965 21.047 22.4995 20.55 22.4995H12.8457C12.4964 23.0525 12.0768 23.5567 11.5995 23.9995H20.55C21.876 23.9995 22.95 22.9255 22.95 21.5995V9.39451C22.95 8.75751 22.697 8.14751 22.247 7.69751L15.253 0.703512C15.201 0.651477 15.1432 0.607405 15.0858 0.563575C15.0671 0.549284 15.0484 0.535019 15.03 0.520512C14.734 0.287512 14.394 0.120512 14.026 0.0465118C13.872 0.0155118 13.715 -0.000488281 13.555 -0.000488281H5.4C4.075 -0.000488281 3 1.07451 3 2.40051V11.865C3.47237 11.6153 3.97463 11.4146 4.5 11.2696V2.40051C4.5 1.90351 4.904 1.49951 5.4 1.49951H12.95V7.99951C12.95 9.10451 13.846 9.99951 14.95 9.99951L21.45 9.99851V21.5995ZM14.45 2.02251L20.928 8.49851L14.95 8.49951C14.77 8.49951 14.651 8.40851 14.596 8.35351C14.542 8.29851 14.45 8.17951 14.45 7.99951V2.02251ZM13 18.4999C13 22.0898 10.0899 24.9999 6.5 24.9999C2.91015 24.9999 0 22.0898 0 18.4999C0 14.9101 2.91015 11.9999 6.5 11.9999C10.0899 11.9999 13 14.9101 13 18.4999ZM7 14.4999C7 14.2238 6.77614 13.9999 6.5 13.9999C6.22386 13.9999 6 14.2238 6 14.4999V17.9999H2.5C2.22386 17.9999 2 18.2238 2 18.4999C2 18.7761 2.22386 18.9999 2.5 18.9999H6L6 22.4999C6 22.7761 6.22386 22.9999 6.5 22.9999C6.77614 22.9999 7 22.7761 7 22.4999V18.9999H10.5C10.7761 18.9999 11 18.7761 11 18.4999C11 18.2238 10.7761 17.9999 10.5 17.9999H7V14.4999Z" fill="#242424"/>
</svg>
