<svg width="9" height="16" viewBox="0 0 9 16" fill="none" xmlns="http://www.w3.org/2000/svg">
<path d="M0.609497 0.800612C0.154198 1.22339 0.127834 1.93521 0.550612 2.39051L5.83978 8L0.550612 13.6095C0.127834 14.0648 0.154198 14.7766 0.609498 15.1994C1.0648 15.6222 1.77662 15.5958 2.1994 15.1405L8.1994 8.76551C8.60021 8.33387 8.60021 7.66614 8.1994 7.2345L2.1994 0.859497C1.77662 0.404198 1.0648 0.377834 0.609497 0.800612Z" fill="#202020"/>
<path d="M0.609497 0.800612C0.154198 1.22339 0.127834 1.93521 0.550612 2.39051L5.83978 8L0.550612 13.6095C0.127834 14.0648 0.154198 14.7766 0.609498 15.1994C1.0648 15.6222 1.77662 15.5958 2.1994 15.1405L8.1994 8.76551C8.60021 8.33387 8.60021 7.66614 8.1994 7.2345L2.1994 0.859497C1.77662 0.404198 1.0648 0.377834 0.609497 0.800612Z" fill="black" fill-opacity="0.2"/>
<path d="M0.609497 0.800612C0.154198 1.22339 0.127834 1.93521 0.550612 2.39051L5.83978 8L0.550612 13.6095C0.127834 14.0648 0.154198 14.7766 0.609498 15.1994C1.0648 15.6222 1.77662 15.5958 2.1994 15.1405L8.1994 8.76551C8.60021 8.33387 8.60021 7.66614 8.1994 7.2345L2.1994 0.859497C1.77662 0.404198 1.0648 0.377834 0.609497 0.800612Z" fill="black" fill-opacity="0.2"/>
<path d="M0.609497 0.800612C0.154198 1.22339 0.127834 1.93521 0.550612 2.39051L5.83978 8L0.550612 13.6095C0.127834 14.0648 0.154198 14.7766 0.609498 15.1994C1.0648 15.6222 1.77662 15.5958 2.1994 15.1405L8.1994 8.76551C8.60021 8.33387 8.60021 7.66614 8.1994 7.2345L2.1994 0.859497C1.77662 0.404198 1.0648 0.377834 0.609497 0.800612Z" fill="black" fill-opacity="0.2"/>
<path d="M0.609497 0.800612C0.154198 1.22339 0.127834 1.93521 0.550612 2.39051L5.83978 8L0.550612 13.6095C0.127834 14.0648 0.154198 14.7766 0.609498 15.1994C1.0648 15.6222 1.77662 15.5958 2.1994 15.1405L8.1994 8.76551C8.60021 8.33387 8.60021 7.66614 8.1994 7.2345L2.1994 0.859497C1.77662 0.404198 1.0648 0.377834 0.609497 0.800612Z" fill="black" fill-opacity="0.2"/>
<path d="M0.609497 0.800612C0.154198 1.22339 0.127834 1.93521 0.550612 2.39051L5.83978 8L0.550612 13.6095C0.127834 14.0648 0.154198 14.7766 0.609498 15.1994C1.0648 15.6222 1.77662 15.5958 2.1994 15.1405L8.1994 8.76551C8.60021 8.33387 8.60021 7.66614 8.1994 7.2345L2.1994 0.859497C1.77662 0.404198 1.0648 0.377834 0.609497 0.800612Z" fill="black" fill-opacity="0.2"/>
<path d="M0.609497 0.800612C0.154198 1.22339 0.127834 1.93521 0.550612 2.39051L5.83978 8L0.550612 13.6095C0.127834 14.0648 0.154198 14.7766 0.609498 15.1994C1.0648 15.6222 1.77662 15.5958 2.1994 15.1405L8.1994 8.76551C8.60021 8.33387 8.60021 7.66614 8.1994 7.2345L2.1994 0.859497C1.77662 0.404198 1.0648 0.377834 0.609497 0.800612Z" fill="black" fill-opacity="0.2"/>
<path d="M0.609497 0.800612C0.154198 1.22339 0.127834 1.93521 0.550612 2.39051L5.83978 8L0.550612 13.6095C0.127834 14.0648 0.154198 14.7766 0.609498 15.1994C1.0648 15.6222 1.77662 15.5958 2.1994 15.1405L8.1994 8.76551C8.60021 8.33387 8.60021 7.66614 8.1994 7.2345L2.1994 0.859497C1.77662 0.404198 1.0648 0.377834 0.609497 0.800612Z" fill="black" fill-opacity="0.2"/>
<path d="M0.609497 0.800612C0.154198 1.22339 0.127834 1.93521 0.550612 2.39051L5.83978 8L0.550612 13.6095C0.127834 14.0648 0.154198 14.7766 0.609498 15.1994C1.0648 15.6222 1.77662 15.5958 2.1994 15.1405L8.1994 8.76551C8.60021 8.33387 8.60021 7.66614 8.1994 7.2345L2.1994 0.859497C1.77662 0.404198 1.0648 0.377834 0.609497 0.800612Z" fill="black" fill-opacity="0.2"/>
</svg>
