<svg width="20" height="20" viewBox="0 0 20 20" fill="none" xmlns="http://www.w3.org/2000/svg">
<path d="M7.94193 5.12945C8.18602 4.88538 8.18603 4.48965 7.94196 4.24557C7.69789 4.00149 7.30216 4.00148 7.05807 4.24555L5.29295 6.01058L4.79649 5.55716C4.54162 5.32437 4.1463 5.34228 3.91352 5.59715C3.68073 5.85202 3.69864 6.24735 3.95351 6.48013L4.89101 7.33638C5.13776 7.56174 5.51813 7.55313 5.75444 7.31684L7.94193 5.12945ZM7.94196 10.4956C8.18603 10.7397 8.18602 11.1354 7.94193 11.3795L5.75444 13.5668C5.51813 13.8031 5.13776 13.8117 4.89101 13.5864L3.95351 12.7301C3.69864 12.4973 3.68073 12.102 3.91352 11.8472C4.1463 11.5923 4.54162 11.5744 4.79649 11.8072L5.29295 12.2606L7.05807 10.4955C7.30216 10.2515 7.69789 10.2515 7.94196 10.4956ZM10 11.25C9.65482 11.25 9.375 11.5298 9.375 11.875C9.375 12.2202 9.65482 12.5 10 12.5H12.0884C11.9502 12.109 11.875 11.6883 11.875 11.25H10ZM3.75 16.25H10.0625C10.0215 16.4519 10 16.661 10 16.875C10 17.0836 10.0157 17.2926 10.0476 17.5H3.75C1.67893 17.5 0 15.8211 0 13.75V3.75C0 1.67893 1.67893 0 3.75 0H13.75C15.8211 0 17.5 1.67893 17.5 3.75V8.00168C17.1204 7.78209 16.6987 7.62713 16.25 7.55185V3.75C16.25 2.36929 15.1307 1.25 13.75 1.25H3.75C2.36929 1.25 1.25 2.36929 1.25 3.75V13.75C1.25 15.1307 2.36929 16.25 3.75 16.25ZM9.375 5.625C9.375 5.27982 9.65482 5 10 5H13.125C13.4702 5 13.75 5.27982 13.75 5.625C13.75 5.97018 13.4702 6.25 13.125 6.25H10C9.65482 6.25 9.375 5.97018 9.375 5.625ZM18.125 11.25C18.125 12.6307 17.0057 13.75 15.625 13.75C14.2443 13.75 13.125 12.6307 13.125 11.25C13.125 9.86929 14.2443 8.75 15.625 8.75C17.0057 8.75 18.125 9.86929 18.125 11.25ZM20 16.875C20 18.4315 18.75 20 15.625 20C12.5 20 11.25 18.4374 11.25 16.875C11.25 15.8395 12.0895 15 13.125 15H18.125C19.1605 15 20 15.8395 20 16.875Z" fill="#242424"/>
</svg>
