<svg width="36" height="36" viewBox="0 0 36 36" fill="none" xmlns="http://www.w3.org/2000/svg">
<path d="M14.2955 9.23302C14.7348 8.79369 14.7348 8.08138 14.2955 7.64202C13.8562 7.20267 13.1439 7.20266 12.7045 7.64199L9.52731 10.819L8.63369 10.0029C8.17492 9.58387 7.46334 9.6161 7.04433 10.0749C6.62532 10.5336 6.65755 11.2452 7.11632 11.6642L8.80382 13.2055C9.24797 13.6111 9.93264 13.5956 10.358 13.1703L14.2955 9.23302ZM14.2955 18.892C14.7348 19.3314 14.7348 20.0437 14.2955 20.483L10.358 24.4203C9.93264 24.8456 9.24797 24.8611 8.80382 24.4555L7.11632 22.9142C6.65755 22.4952 6.62532 21.7836 7.04433 21.3249C7.46334 20.8661 8.17492 20.8339 8.63369 21.2529L9.52731 22.069L12.7045 18.892C13.1439 18.4527 13.8562 18.4527 14.2955 18.892ZM18 20.25C17.3787 20.25 16.875 20.7537 16.875 21.375C16.875 21.9963 17.3787 22.5 18 22.5H21.7591C21.5103 21.7962 21.375 21.0389 21.375 20.25H18ZM6.75 29.25H18.1125C18.0387 29.6135 18 29.9897 18 30.375C18 30.7504 18.0283 31.1266 18.0857 31.5H6.75C3.02208 31.5 0 28.4779 0 24.75V6.75C0 3.02208 3.02208 0 6.75 0H24.75C28.4779 0 31.5 3.02208 31.5 6.75V14.403C30.8167 14.0078 30.0577 13.7288 29.25 13.5933V6.75C29.25 4.26472 27.2353 2.25 24.75 2.25H6.75C4.26472 2.25 2.25 4.26472 2.25 6.75V24.75C2.25 27.2353 4.26472 29.25 6.75 29.25ZM16.875 10.125C16.875 9.50368 17.3787 9 18 9H23.625C24.2463 9 24.75 9.50368 24.75 10.125C24.75 10.7463 24.2463 11.25 23.625 11.25H18C17.3787 11.25 16.875 10.7463 16.875 10.125ZM32.625 20.25C32.625 22.7353 30.6103 24.75 28.125 24.75C25.6397 24.75 23.625 22.7353 23.625 20.25C23.625 17.7647 25.6397 15.75 28.125 15.75C30.6103 15.75 32.625 17.7647 32.625 20.25ZM36 30.375C36 33.1767 33.75 36 28.125 36C22.5 36 20.25 33.1873 20.25 30.375C20.25 28.511 21.761 27 23.625 27H32.625C34.489 27 36 28.511 36 30.375Z" fill="#202020"/>
<path d="M14.2955 9.23302C14.7348 8.79369 14.7348 8.08138 14.2955 7.64202C13.8562 7.20267 13.1439 7.20266 12.7045 7.64199L9.52731 10.819L8.63369 10.0029C8.17492 9.58387 7.46334 9.6161 7.04433 10.0749C6.62532 10.5336 6.65755 11.2452 7.11632 11.6642L8.80382 13.2055C9.24797 13.6111 9.93264 13.5956 10.358 13.1703L14.2955 9.23302ZM14.2955 18.892C14.7348 19.3314 14.7348 20.0437 14.2955 20.483L10.358 24.4203C9.93264 24.8456 9.24797 24.8611 8.80382 24.4555L7.11632 22.9142C6.65755 22.4952 6.62532 21.7836 7.04433 21.3249C7.46334 20.8661 8.17492 20.8339 8.63369 21.2529L9.52731 22.069L12.7045 18.892C13.1439 18.4527 13.8562 18.4527 14.2955 18.892ZM18 20.25C17.3787 20.25 16.875 20.7537 16.875 21.375C16.875 21.9963 17.3787 22.5 18 22.5H21.7591C21.5103 21.7962 21.375 21.0389 21.375 20.25H18ZM6.75 29.25H18.1125C18.0387 29.6135 18 29.9897 18 30.375C18 30.7504 18.0283 31.1266 18.0857 31.5H6.75C3.02208 31.5 0 28.4779 0 24.75V6.75C0 3.02208 3.02208 0 6.75 0H24.75C28.4779 0 31.5 3.02208 31.5 6.75V14.403C30.8167 14.0078 30.0577 13.7288 29.25 13.5933V6.75C29.25 4.26472 27.2353 2.25 24.75 2.25H6.75C4.26472 2.25 2.25 4.26472 2.25 6.75V24.75C2.25 27.2353 4.26472 29.25 6.75 29.25ZM16.875 10.125C16.875 9.50368 17.3787 9 18 9H23.625C24.2463 9 24.75 9.50368 24.75 10.125C24.75 10.7463 24.2463 11.25 23.625 11.25H18C17.3787 11.25 16.875 10.7463 16.875 10.125ZM32.625 20.25C32.625 22.7353 30.6103 24.75 28.125 24.75C25.6397 24.75 23.625 22.7353 23.625 20.25C23.625 17.7647 25.6397 15.75 28.125 15.75C30.6103 15.75 32.625 17.7647 32.625 20.25ZM36 30.375C36 33.1767 33.75 36 28.125 36C22.5 36 20.25 33.1873 20.25 30.375C20.25 28.511 21.761 27 23.625 27H32.625C34.489 27 36 28.511 36 30.375Z" fill="black" fill-opacity="0.2"/>
<path d="M14.2955 9.23302C14.7348 8.79369 14.7348 8.08138 14.2955 7.64202C13.8562 7.20267 13.1439 7.20266 12.7045 7.64199L9.52731 10.819L8.63369 10.0029C8.17492 9.58387 7.46334 9.6161 7.04433 10.0749C6.62532 10.5336 6.65755 11.2452 7.11632 11.6642L8.80382 13.2055C9.24797 13.6111 9.93264 13.5956 10.358 13.1703L14.2955 9.23302ZM14.2955 18.892C14.7348 19.3314 14.7348 20.0437 14.2955 20.483L10.358 24.4203C9.93264 24.8456 9.24797 24.8611 8.80382 24.4555L7.11632 22.9142C6.65755 22.4952 6.62532 21.7836 7.04433 21.3249C7.46334 20.8661 8.17492 20.8339 8.63369 21.2529L9.52731 22.069L12.7045 18.892C13.1439 18.4527 13.8562 18.4527 14.2955 18.892ZM18 20.25C17.3787 20.25 16.875 20.7537 16.875 21.375C16.875 21.9963 17.3787 22.5 18 22.5H21.7591C21.5103 21.7962 21.375 21.0389 21.375 20.25H18ZM6.75 29.25H18.1125C18.0387 29.6135 18 29.9897 18 30.375C18 30.7504 18.0283 31.1266 18.0857 31.5H6.75C3.02208 31.5 0 28.4779 0 24.75V6.75C0 3.02208 3.02208 0 6.75 0H24.75C28.4779 0 31.5 3.02208 31.5 6.75V14.403C30.8167 14.0078 30.0577 13.7288 29.25 13.5933V6.75C29.25 4.26472 27.2353 2.25 24.75 2.25H6.75C4.26472 2.25 2.25 4.26472 2.25 6.75V24.75C2.25 27.2353 4.26472 29.25 6.75 29.25ZM16.875 10.125C16.875 9.50368 17.3787 9 18 9H23.625C24.2463 9 24.75 9.50368 24.75 10.125C24.75 10.7463 24.2463 11.25 23.625 11.25H18C17.3787 11.25 16.875 10.7463 16.875 10.125ZM32.625 20.25C32.625 22.7353 30.6103 24.75 28.125 24.75C25.6397 24.75 23.625 22.7353 23.625 20.25C23.625 17.7647 25.6397 15.75 28.125 15.75C30.6103 15.75 32.625 17.7647 32.625 20.25ZM36 30.375C36 33.1767 33.75 36 28.125 36C22.5 36 20.25 33.1873 20.25 30.375C20.25 28.511 21.761 27 23.625 27H32.625C34.489 27 36 28.511 36 30.375Z" fill="black" fill-opacity="0.2"/>
<path d="M14.2955 9.23302C14.7348 8.79369 14.7348 8.08138 14.2955 7.64202C13.8562 7.20267 13.1439 7.20266 12.7045 7.64199L9.52731 10.819L8.63369 10.0029C8.17492 9.58387 7.46334 9.6161 7.04433 10.0749C6.62532 10.5336 6.65755 11.2452 7.11632 11.6642L8.80382 13.2055C9.24797 13.6111 9.93264 13.5956 10.358 13.1703L14.2955 9.23302ZM14.2955 18.892C14.7348 19.3314 14.7348 20.0437 14.2955 20.483L10.358 24.4203C9.93264 24.8456 9.24797 24.8611 8.80382 24.4555L7.11632 22.9142C6.65755 22.4952 6.62532 21.7836 7.04433 21.3249C7.46334 20.8661 8.17492 20.8339 8.63369 21.2529L9.52731 22.069L12.7045 18.892C13.1439 18.4527 13.8562 18.4527 14.2955 18.892ZM18 20.25C17.3787 20.25 16.875 20.7537 16.875 21.375C16.875 21.9963 17.3787 22.5 18 22.5H21.7591C21.5103 21.7962 21.375 21.0389 21.375 20.25H18ZM6.75 29.25H18.1125C18.0387 29.6135 18 29.9897 18 30.375C18 30.7504 18.0283 31.1266 18.0857 31.5H6.75C3.02208 31.5 0 28.4779 0 24.75V6.75C0 3.02208 3.02208 0 6.75 0H24.75C28.4779 0 31.5 3.02208 31.5 6.75V14.403C30.8167 14.0078 30.0577 13.7288 29.25 13.5933V6.75C29.25 4.26472 27.2353 2.25 24.75 2.25H6.75C4.26472 2.25 2.25 4.26472 2.25 6.75V24.75C2.25 27.2353 4.26472 29.25 6.75 29.25ZM16.875 10.125C16.875 9.50368 17.3787 9 18 9H23.625C24.2463 9 24.75 9.50368 24.75 10.125C24.75 10.7463 24.2463 11.25 23.625 11.25H18C17.3787 11.25 16.875 10.7463 16.875 10.125ZM32.625 20.25C32.625 22.7353 30.6103 24.75 28.125 24.75C25.6397 24.75 23.625 22.7353 23.625 20.25C23.625 17.7647 25.6397 15.75 28.125 15.75C30.6103 15.75 32.625 17.7647 32.625 20.25ZM36 30.375C36 33.1767 33.75 36 28.125 36C22.5 36 20.25 33.1873 20.25 30.375C20.25 28.511 21.761 27 23.625 27H32.625C34.489 27 36 28.511 36 30.375Z" fill="black" fill-opacity="0.2"/>
<path d="M14.2955 9.23302C14.7348 8.79369 14.7348 8.08138 14.2955 7.64202C13.8562 7.20267 13.1439 7.20266 12.7045 7.64199L9.52731 10.819L8.63369 10.0029C8.17492 9.58387 7.46334 9.6161 7.04433 10.0749C6.62532 10.5336 6.65755 11.2452 7.11632 11.6642L8.80382 13.2055C9.24797 13.6111 9.93264 13.5956 10.358 13.1703L14.2955 9.23302ZM14.2955 18.892C14.7348 19.3314 14.7348 20.0437 14.2955 20.483L10.358 24.4203C9.93264 24.8456 9.24797 24.8611 8.80382 24.4555L7.11632 22.9142C6.65755 22.4952 6.62532 21.7836 7.04433 21.3249C7.46334 20.8661 8.17492 20.8339 8.63369 21.2529L9.52731 22.069L12.7045 18.892C13.1439 18.4527 13.8562 18.4527 14.2955 18.892ZM18 20.25C17.3787 20.25 16.875 20.7537 16.875 21.375C16.875 21.9963 17.3787 22.5 18 22.5H21.7591C21.5103 21.7962 21.375 21.0389 21.375 20.25H18ZM6.75 29.25H18.1125C18.0387 29.6135 18 29.9897 18 30.375C18 30.7504 18.0283 31.1266 18.0857 31.5H6.75C3.02208 31.5 0 28.4779 0 24.75V6.75C0 3.02208 3.02208 0 6.75 0H24.75C28.4779 0 31.5 3.02208 31.5 6.75V14.403C30.8167 14.0078 30.0577 13.7288 29.25 13.5933V6.75C29.25 4.26472 27.2353 2.25 24.75 2.25H6.75C4.26472 2.25 2.25 4.26472 2.25 6.75V24.75C2.25 27.2353 4.26472 29.25 6.75 29.25ZM16.875 10.125C16.875 9.50368 17.3787 9 18 9H23.625C24.2463 9 24.75 9.50368 24.75 10.125C24.75 10.7463 24.2463 11.25 23.625 11.25H18C17.3787 11.25 16.875 10.7463 16.875 10.125ZM32.625 20.25C32.625 22.7353 30.6103 24.75 28.125 24.75C25.6397 24.75 23.625 22.7353 23.625 20.25C23.625 17.7647 25.6397 15.75 28.125 15.75C30.6103 15.75 32.625 17.7647 32.625 20.25ZM36 30.375C36 33.1767 33.75 36 28.125 36C22.5 36 20.25 33.1873 20.25 30.375C20.25 28.511 21.761 27 23.625 27H32.625C34.489 27 36 28.511 36 30.375Z" fill="black" fill-opacity="0.2"/>
<path d="M14.2955 9.23302C14.7348 8.79369 14.7348 8.08138 14.2955 7.64202C13.8562 7.20267 13.1439 7.20266 12.7045 7.64199L9.52731 10.819L8.63369 10.0029C8.17492 9.58387 7.46334 9.6161 7.04433 10.0749C6.62532 10.5336 6.65755 11.2452 7.11632 11.6642L8.80382 13.2055C9.24797 13.6111 9.93264 13.5956 10.358 13.1703L14.2955 9.23302ZM14.2955 18.892C14.7348 19.3314 14.7348 20.0437 14.2955 20.483L10.358 24.4203C9.93264 24.8456 9.24797 24.8611 8.80382 24.4555L7.11632 22.9142C6.65755 22.4952 6.62532 21.7836 7.04433 21.3249C7.46334 20.8661 8.17492 20.8339 8.63369 21.2529L9.52731 22.069L12.7045 18.892C13.1439 18.4527 13.8562 18.4527 14.2955 18.892ZM18 20.25C17.3787 20.25 16.875 20.7537 16.875 21.375C16.875 21.9963 17.3787 22.5 18 22.5H21.7591C21.5103 21.7962 21.375 21.0389 21.375 20.25H18ZM6.75 29.25H18.1125C18.0387 29.6135 18 29.9897 18 30.375C18 30.7504 18.0283 31.1266 18.0857 31.5H6.75C3.02208 31.5 0 28.4779 0 24.75V6.75C0 3.02208 3.02208 0 6.75 0H24.75C28.4779 0 31.5 3.02208 31.5 6.75V14.403C30.8167 14.0078 30.0577 13.7288 29.25 13.5933V6.75C29.25 4.26472 27.2353 2.25 24.75 2.25H6.75C4.26472 2.25 2.25 4.26472 2.25 6.75V24.75C2.25 27.2353 4.26472 29.25 6.75 29.25ZM16.875 10.125C16.875 9.50368 17.3787 9 18 9H23.625C24.2463 9 24.75 9.50368 24.75 10.125C24.75 10.7463 24.2463 11.25 23.625 11.25H18C17.3787 11.25 16.875 10.7463 16.875 10.125ZM32.625 20.25C32.625 22.7353 30.6103 24.75 28.125 24.75C25.6397 24.75 23.625 22.7353 23.625 20.25C23.625 17.7647 25.6397 15.75 28.125 15.75C30.6103 15.75 32.625 17.7647 32.625 20.25ZM36 30.375C36 33.1767 33.75 36 28.125 36C22.5 36 20.25 33.1873 20.25 30.375C20.25 28.511 21.761 27 23.625 27H32.625C34.489 27 36 28.511 36 30.375Z" fill="black" fill-opacity="0.2"/>
<path d="M14.2955 9.23302C14.7348 8.79369 14.7348 8.08138 14.2955 7.64202C13.8562 7.20267 13.1439 7.20266 12.7045 7.64199L9.52731 10.819L8.63369 10.0029C8.17492 9.58387 7.46334 9.6161 7.04433 10.0749C6.62532 10.5336 6.65755 11.2452 7.11632 11.6642L8.80382 13.2055C9.24797 13.6111 9.93264 13.5956 10.358 13.1703L14.2955 9.23302ZM14.2955 18.892C14.7348 19.3314 14.7348 20.0437 14.2955 20.483L10.358 24.4203C9.93264 24.8456 9.24797 24.8611 8.80382 24.4555L7.11632 22.9142C6.65755 22.4952 6.62532 21.7836 7.04433 21.3249C7.46334 20.8661 8.17492 20.8339 8.63369 21.2529L9.52731 22.069L12.7045 18.892C13.1439 18.4527 13.8562 18.4527 14.2955 18.892ZM18 20.25C17.3787 20.25 16.875 20.7537 16.875 21.375C16.875 21.9963 17.3787 22.5 18 22.5H21.7591C21.5103 21.7962 21.375 21.0389 21.375 20.25H18ZM6.75 29.25H18.1125C18.0387 29.6135 18 29.9897 18 30.375C18 30.7504 18.0283 31.1266 18.0857 31.5H6.75C3.02208 31.5 0 28.4779 0 24.75V6.75C0 3.02208 3.02208 0 6.75 0H24.75C28.4779 0 31.5 3.02208 31.5 6.75V14.403C30.8167 14.0078 30.0577 13.7288 29.25 13.5933V6.75C29.25 4.26472 27.2353 2.25 24.75 2.25H6.75C4.26472 2.25 2.25 4.26472 2.25 6.75V24.75C2.25 27.2353 4.26472 29.25 6.75 29.25ZM16.875 10.125C16.875 9.50368 17.3787 9 18 9H23.625C24.2463 9 24.75 9.50368 24.75 10.125C24.75 10.7463 24.2463 11.25 23.625 11.25H18C17.3787 11.25 16.875 10.7463 16.875 10.125ZM32.625 20.25C32.625 22.7353 30.6103 24.75 28.125 24.75C25.6397 24.75 23.625 22.7353 23.625 20.25C23.625 17.7647 25.6397 15.75 28.125 15.75C30.6103 15.75 32.625 17.7647 32.625 20.25ZM36 30.375C36 33.1767 33.75 36 28.125 36C22.5 36 20.25 33.1873 20.25 30.375C20.25 28.511 21.761 27 23.625 27H32.625C34.489 27 36 28.511 36 30.375Z" fill="black" fill-opacity="0.2"/>
<path d="M14.2955 9.23302C14.7348 8.79369 14.7348 8.08138 14.2955 7.64202C13.8562 7.20267 13.1439 7.20266 12.7045 7.64199L9.52731 10.819L8.63369 10.0029C8.17492 9.58387 7.46334 9.6161 7.04433 10.0749C6.62532 10.5336 6.65755 11.2452 7.11632 11.6642L8.80382 13.2055C9.24797 13.6111 9.93264 13.5956 10.358 13.1703L14.2955 9.23302ZM14.2955 18.892C14.7348 19.3314 14.7348 20.0437 14.2955 20.483L10.358 24.4203C9.93264 24.8456 9.24797 24.8611 8.80382 24.4555L7.11632 22.9142C6.65755 22.4952 6.62532 21.7836 7.04433 21.3249C7.46334 20.8661 8.17492 20.8339 8.63369 21.2529L9.52731 22.069L12.7045 18.892C13.1439 18.4527 13.8562 18.4527 14.2955 18.892ZM18 20.25C17.3787 20.25 16.875 20.7537 16.875 21.375C16.875 21.9963 17.3787 22.5 18 22.5H21.7591C21.5103 21.7962 21.375 21.0389 21.375 20.25H18ZM6.75 29.25H18.1125C18.0387 29.6135 18 29.9897 18 30.375C18 30.7504 18.0283 31.1266 18.0857 31.5H6.75C3.02208 31.5 0 28.4779 0 24.75V6.75C0 3.02208 3.02208 0 6.75 0H24.75C28.4779 0 31.5 3.02208 31.5 6.75V14.403C30.8167 14.0078 30.0577 13.7288 29.25 13.5933V6.75C29.25 4.26472 27.2353 2.25 24.75 2.25H6.75C4.26472 2.25 2.25 4.26472 2.25 6.75V24.75C2.25 27.2353 4.26472 29.25 6.75 29.25ZM16.875 10.125C16.875 9.50368 17.3787 9 18 9H23.625C24.2463 9 24.75 9.50368 24.75 10.125C24.75 10.7463 24.2463 11.25 23.625 11.25H18C17.3787 11.25 16.875 10.7463 16.875 10.125ZM32.625 20.25C32.625 22.7353 30.6103 24.75 28.125 24.75C25.6397 24.75 23.625 22.7353 23.625 20.25C23.625 17.7647 25.6397 15.75 28.125 15.75C30.6103 15.75 32.625 17.7647 32.625 20.25ZM36 30.375C36 33.1767 33.75 36 28.125 36C22.5 36 20.25 33.1873 20.25 30.375C20.25 28.511 21.761 27 23.625 27H32.625C34.489 27 36 28.511 36 30.375Z" fill="black" fill-opacity="0.2"/>
<path d="M14.2955 9.23302C14.7348 8.79369 14.7348 8.08138 14.2955 7.64202C13.8562 7.20267 13.1439 7.20266 12.7045 7.64199L9.52731 10.819L8.63369 10.0029C8.17492 9.58387 7.46334 9.6161 7.04433 10.0749C6.62532 10.5336 6.65755 11.2452 7.11632 11.6642L8.80382 13.2055C9.24797 13.6111 9.93264 13.5956 10.358 13.1703L14.2955 9.23302ZM14.2955 18.892C14.7348 19.3314 14.7348 20.0437 14.2955 20.483L10.358 24.4203C9.93264 24.8456 9.24797 24.8611 8.80382 24.4555L7.11632 22.9142C6.65755 22.4952 6.62532 21.7836 7.04433 21.3249C7.46334 20.8661 8.17492 20.8339 8.63369 21.2529L9.52731 22.069L12.7045 18.892C13.1439 18.4527 13.8562 18.4527 14.2955 18.892ZM18 20.25C17.3787 20.25 16.875 20.7537 16.875 21.375C16.875 21.9963 17.3787 22.5 18 22.5H21.7591C21.5103 21.7962 21.375 21.0389 21.375 20.25H18ZM6.75 29.25H18.1125C18.0387 29.6135 18 29.9897 18 30.375C18 30.7504 18.0283 31.1266 18.0857 31.5H6.75C3.02208 31.5 0 28.4779 0 24.75V6.75C0 3.02208 3.02208 0 6.75 0H24.75C28.4779 0 31.5 3.02208 31.5 6.75V14.403C30.8167 14.0078 30.0577 13.7288 29.25 13.5933V6.75C29.25 4.26472 27.2353 2.25 24.75 2.25H6.75C4.26472 2.25 2.25 4.26472 2.25 6.75V24.75C2.25 27.2353 4.26472 29.25 6.75 29.25ZM16.875 10.125C16.875 9.50368 17.3787 9 18 9H23.625C24.2463 9 24.75 9.50368 24.75 10.125C24.75 10.7463 24.2463 11.25 23.625 11.25H18C17.3787 11.25 16.875 10.7463 16.875 10.125ZM32.625 20.25C32.625 22.7353 30.6103 24.75 28.125 24.75C25.6397 24.75 23.625 22.7353 23.625 20.25C23.625 17.7647 25.6397 15.75 28.125 15.75C30.6103 15.75 32.625 17.7647 32.625 20.25ZM36 30.375C36 33.1767 33.75 36 28.125 36C22.5 36 20.25 33.1873 20.25 30.375C20.25 28.511 21.761 27 23.625 27H32.625C34.489 27 36 28.511 36 30.375Z" fill="black" fill-opacity="0.2"/>
</svg>
