<svg width="24" height="24" viewBox="0 0 24 24" fill="none" xmlns="http://www.w3.org/2000/svg">
<g clip-path="url(#clip0_1770_29864)">
<mask id="path-1-outside-1_1770_29864" maskUnits="userSpaceOnUse" x="-0.266724" y="5" width="16" height="16" fill="black">
<rect fill="white" x="-0.266724" y="5" width="16" height="16"/>
<path d="M2.83108 16.5289C2.83108 17.793 3.85585 18.8177 5.11997 18.8177C6.38408 18.8177 7.40885 17.793 7.40885 16.5289C7.40885 15.2647 6.38408 14.24 5.11997 14.24C3.85585 14.24 2.83108 15.2647 2.83108 16.5289Z"/>
</mask>
<path d="M6.03552 7.37333L6.92995 7.82054L6.92995 7.82054L6.03552 7.37333ZM4.66219 10.12L5.55662 10.5672C5.54517 10.5901 5.53285 10.6125 5.51968 10.6345L4.66219 10.12ZM1.91553 16.5289L1.91553 15.5289H1.91553V16.5289ZM2.43573 15.5289C2.98802 15.5289 3.43573 15.9766 3.43573 16.5289C3.43573 17.0811 2.98802 17.5289 2.43573 17.5289V15.5289ZM8.3244 17.5289C7.77212 17.5289 7.3244 17.0811 7.3244 16.5289C7.3244 15.9766 7.77212 15.5289 8.3244 15.5289V17.5289ZM14.7333 15.5289C15.2856 15.5289 15.7333 15.9766 15.7333 16.5289C15.7333 17.0811 15.2856 17.5289 14.7333 17.5289V15.5289ZM7.40885 7C7.40689 7 7.41247 7.0001 7.42254 6.99751C7.43256 6.99493 7.43995 6.99153 7.4431 6.98981C7.4478 6.98725 7.42296 6.9995 7.37129 7.0602C7.2494 7.20339 7.12375 7.43293 6.92995 7.82054L5.14109 6.92612C5.31351 6.58129 5.5416 6.12416 5.84835 5.7638C6.18554 5.36768 6.69303 5 7.40885 5V7ZM6.92995 7.82054L5.55662 10.5672L3.76776 9.67278L5.14109 6.92612L6.92995 7.82054ZM4.66219 10.12C5.51968 10.6345 5.51924 10.6352 5.51879 10.636C5.51864 10.6362 5.51819 10.637 5.51789 10.6375C5.51728 10.6385 5.51667 10.6395 5.51605 10.6405C5.51481 10.6425 5.51355 10.6446 5.51225 10.6467C5.50966 10.6509 5.50696 10.6552 5.50413 10.6596C5.49849 10.6684 5.49237 10.6777 5.48576 10.6874C5.47254 10.7069 5.45736 10.728 5.44002 10.7505C5.40532 10.7955 5.36216 10.8457 5.30921 10.8986C5.20259 11.0052 5.05982 11.1193 4.87317 11.223C4.49568 11.4328 3.97981 11.5778 3.28886 11.5778V9.57777C3.69657 9.57777 3.86737 9.49389 3.90188 9.47472C3.92122 9.46398 3.91578 9.46362 3.895 9.48441C3.88497 9.49444 3.87185 9.5089 3.85646 9.52886C3.84878 9.53881 3.84057 9.55009 3.83191 9.56282C3.82758 9.56919 3.82314 9.57592 3.8186 9.58302C3.81633 9.58658 3.81404 9.59022 3.81172 9.59397C3.81056 9.59584 3.80939 9.59774 3.80822 9.59966C3.80764 9.60062 3.80705 9.60159 3.80646 9.60256C3.80617 9.60305 3.80573 9.60378 3.80558 9.60402C3.80514 9.60476 3.8047 9.6055 4.66219 10.12ZM3.28886 11.5778C3.02864 11.5778 2.64172 11.6468 2.35743 11.8105C2.2256 11.8865 2.14172 11.9676 2.09074 12.0467C2.04459 12.1183 1.99998 12.2261 1.99998 12.4089H-2.38419e-05C-2.38419e-05 11.2471 0.640046 10.4917 1.35918 10.0775C2.02859 9.69188 2.78612 9.57777 3.28886 9.57777V11.5778ZM1.99998 12.4089V15.6133H-2.38419e-05V12.4089H1.99998ZM1.99998 15.6133C1.99998 15.542 1.98145 15.5045 1.98091 15.5034C1.97975 15.501 1.98535 15.5122 2.001 15.5278C2.01664 15.5435 2.02779 15.5491 2.02541 15.5479C2.0243 15.5474 1.98688 15.5289 1.91553 15.5289L1.91553 17.5289C1.35171 17.5289 0.883102 17.2384 0.586783 16.9421C0.290463 16.6457 -2.38419e-05 16.1771 -2.38419e-05 15.6133H1.99998ZM1.91553 15.5289H2.43573V17.5289H1.91553V15.5289ZM8.3244 15.5289H14.7333V17.5289H8.3244V15.5289ZM7.40885 5H14.7333V7H7.40885V5ZM4.83108 16.5289C4.83108 16.6884 4.96042 16.8177 5.11997 16.8177V20.8177C2.75128 20.8177 0.831083 18.8975 0.831083 16.5289H4.83108ZM5.11997 16.8177C5.27951 16.8177 5.40885 16.6884 5.40885 16.5289H9.40885C9.40885 18.8975 7.48865 20.8177 5.11997 20.8177V16.8177ZM5.40885 16.5289C5.40885 16.3693 5.27951 16.24 5.11997 16.24V12.24C7.48865 12.24 9.40885 14.1602 9.40885 16.5289H5.40885ZM5.11997 16.24C4.96042 16.24 4.83108 16.3693 4.83108 16.5289H0.831083C0.831083 14.1602 2.75128 12.24 5.11997 12.24V16.24Z" fill="#202020" mask="url(#path-1-outside-1_1770_29864)"/>
<path d="M6.03552 7.37333L6.92995 7.82054L6.92995 7.82054L6.03552 7.37333ZM4.66219 10.12L5.55662 10.5672C5.54517 10.5901 5.53285 10.6125 5.51968 10.6345L4.66219 10.12ZM1.91553 16.5289L1.91553 15.5289H1.91553V16.5289ZM2.43573 15.5289C2.98802 15.5289 3.43573 15.9766 3.43573 16.5289C3.43573 17.0811 2.98802 17.5289 2.43573 17.5289V15.5289ZM8.3244 17.5289C7.77212 17.5289 7.3244 17.0811 7.3244 16.5289C7.3244 15.9766 7.77212 15.5289 8.3244 15.5289V17.5289ZM14.7333 15.5289C15.2856 15.5289 15.7333 15.9766 15.7333 16.5289C15.7333 17.0811 15.2856 17.5289 14.7333 17.5289V15.5289ZM7.40885 7C7.40689 7 7.41247 7.0001 7.42254 6.99751C7.43256 6.99493 7.43995 6.99153 7.4431 6.98981C7.4478 6.98725 7.42296 6.9995 7.37129 7.0602C7.2494 7.20339 7.12375 7.43293 6.92995 7.82054L5.14109 6.92612C5.31351 6.58129 5.5416 6.12416 5.84835 5.7638C6.18554 5.36768 6.69303 5 7.40885 5V7ZM6.92995 7.82054L5.55662 10.5672L3.76776 9.67278L5.14109 6.92612L6.92995 7.82054ZM4.66219 10.12C5.51968 10.6345 5.51924 10.6352 5.51879 10.636C5.51864 10.6362 5.51819 10.637 5.51789 10.6375C5.51728 10.6385 5.51667 10.6395 5.51605 10.6405C5.51481 10.6425 5.51355 10.6446 5.51225 10.6467C5.50966 10.6509 5.50696 10.6552 5.50413 10.6596C5.49849 10.6684 5.49237 10.6777 5.48576 10.6874C5.47254 10.7069 5.45736 10.728 5.44002 10.7505C5.40532 10.7955 5.36216 10.8457 5.30921 10.8986C5.20259 11.0052 5.05982 11.1193 4.87317 11.223C4.49568 11.4328 3.97981 11.5778 3.28886 11.5778V9.57777C3.69657 9.57777 3.86737 9.49389 3.90188 9.47472C3.92122 9.46398 3.91578 9.46362 3.895 9.48441C3.88497 9.49444 3.87185 9.5089 3.85646 9.52886C3.84878 9.53881 3.84057 9.55009 3.83191 9.56282C3.82758 9.56919 3.82314 9.57592 3.8186 9.58302C3.81633 9.58658 3.81404 9.59022 3.81172 9.59397C3.81056 9.59584 3.80939 9.59774 3.80822 9.59966C3.80764 9.60062 3.80705 9.60159 3.80646 9.60256C3.80617 9.60305 3.80573 9.60378 3.80558 9.60402C3.80514 9.60476 3.8047 9.6055 4.66219 10.12ZM3.28886 11.5778C3.02864 11.5778 2.64172 11.6468 2.35743 11.8105C2.2256 11.8865 2.14172 11.9676 2.09074 12.0467C2.04459 12.1183 1.99998 12.2261 1.99998 12.4089H-2.38419e-05C-2.38419e-05 11.2471 0.640046 10.4917 1.35918 10.0775C2.02859 9.69188 2.78612 9.57777 3.28886 9.57777V11.5778ZM1.99998 12.4089V15.6133H-2.38419e-05V12.4089H1.99998ZM1.99998 15.6133C1.99998 15.542 1.98145 15.5045 1.98091 15.5034C1.97975 15.501 1.98535 15.5122 2.001 15.5278C2.01664 15.5435 2.02779 15.5491 2.02541 15.5479C2.0243 15.5474 1.98688 15.5289 1.91553 15.5289L1.91553 17.5289C1.35171 17.5289 0.883102 17.2384 0.586783 16.9421C0.290463 16.6457 -2.38419e-05 16.1771 -2.38419e-05 15.6133H1.99998ZM1.91553 15.5289H2.43573V17.5289H1.91553V15.5289ZM8.3244 15.5289H14.7333V17.5289H8.3244V15.5289ZM7.40885 5H14.7333V7H7.40885V5ZM4.83108 16.5289C4.83108 16.6884 4.96042 16.8177 5.11997 16.8177V20.8177C2.75128 20.8177 0.831083 18.8975 0.831083 16.5289H4.83108ZM5.11997 16.8177C5.27951 16.8177 5.40885 16.6884 5.40885 16.5289H9.40885C9.40885 18.8975 7.48865 20.8177 5.11997 20.8177V16.8177ZM5.40885 16.5289C5.40885 16.3693 5.27951 16.24 5.11997 16.24V12.24C7.48865 12.24 9.40885 14.1602 9.40885 16.5289H5.40885ZM5.11997 16.24C4.96042 16.24 4.83108 16.3693 4.83108 16.5289H0.831083C0.831083 14.1602 2.75128 12.24 5.11997 12.24V16.24Z" fill="black" fill-opacity="0.2" mask="url(#path-1-outside-1_1770_29864)"/>
<path d="M6.03552 7.37333L6.92995 7.82054L6.92995 7.82054L6.03552 7.37333ZM4.66219 10.12L5.55662 10.5672C5.54517 10.5901 5.53285 10.6125 5.51968 10.6345L4.66219 10.12ZM1.91553 16.5289L1.91553 15.5289H1.91553V16.5289ZM2.43573 15.5289C2.98802 15.5289 3.43573 15.9766 3.43573 16.5289C3.43573 17.0811 2.98802 17.5289 2.43573 17.5289V15.5289ZM8.3244 17.5289C7.77212 17.5289 7.3244 17.0811 7.3244 16.5289C7.3244 15.9766 7.77212 15.5289 8.3244 15.5289V17.5289ZM14.7333 15.5289C15.2856 15.5289 15.7333 15.9766 15.7333 16.5289C15.7333 17.0811 15.2856 17.5289 14.7333 17.5289V15.5289ZM7.40885 7C7.40689 7 7.41247 7.0001 7.42254 6.99751C7.43256 6.99493 7.43995 6.99153 7.4431 6.98981C7.4478 6.98725 7.42296 6.9995 7.37129 7.0602C7.2494 7.20339 7.12375 7.43293 6.92995 7.82054L5.14109 6.92612C5.31351 6.58129 5.5416 6.12416 5.84835 5.7638C6.18554 5.36768 6.69303 5 7.40885 5V7ZM6.92995 7.82054L5.55662 10.5672L3.76776 9.67278L5.14109 6.92612L6.92995 7.82054ZM4.66219 10.12C5.51968 10.6345 5.51924 10.6352 5.51879 10.636C5.51864 10.6362 5.51819 10.637 5.51789 10.6375C5.51728 10.6385 5.51667 10.6395 5.51605 10.6405C5.51481 10.6425 5.51355 10.6446 5.51225 10.6467C5.50966 10.6509 5.50696 10.6552 5.50413 10.6596C5.49849 10.6684 5.49237 10.6777 5.48576 10.6874C5.47254 10.7069 5.45736 10.728 5.44002 10.7505C5.40532 10.7955 5.36216 10.8457 5.30921 10.8986C5.20259 11.0052 5.05982 11.1193 4.87317 11.223C4.49568 11.4328 3.97981 11.5778 3.28886 11.5778V9.57777C3.69657 9.57777 3.86737 9.49389 3.90188 9.47472C3.92122 9.46398 3.91578 9.46362 3.895 9.48441C3.88497 9.49444 3.87185 9.5089 3.85646 9.52886C3.84878 9.53881 3.84057 9.55009 3.83191 9.56282C3.82758 9.56919 3.82314 9.57592 3.8186 9.58302C3.81633 9.58658 3.81404 9.59022 3.81172 9.59397C3.81056 9.59584 3.80939 9.59774 3.80822 9.59966C3.80764 9.60062 3.80705 9.60159 3.80646 9.60256C3.80617 9.60305 3.80573 9.60378 3.80558 9.60402C3.80514 9.60476 3.8047 9.6055 4.66219 10.12ZM3.28886 11.5778C3.02864 11.5778 2.64172 11.6468 2.35743 11.8105C2.2256 11.8865 2.14172 11.9676 2.09074 12.0467C2.04459 12.1183 1.99998 12.2261 1.99998 12.4089H-2.38419e-05C-2.38419e-05 11.2471 0.640046 10.4917 1.35918 10.0775C2.02859 9.69188 2.78612 9.57777 3.28886 9.57777V11.5778ZM1.99998 12.4089V15.6133H-2.38419e-05V12.4089H1.99998ZM1.99998 15.6133C1.99998 15.542 1.98145 15.5045 1.98091 15.5034C1.97975 15.501 1.98535 15.5122 2.001 15.5278C2.01664 15.5435 2.02779 15.5491 2.02541 15.5479C2.0243 15.5474 1.98688 15.5289 1.91553 15.5289L1.91553 17.5289C1.35171 17.5289 0.883102 17.2384 0.586783 16.9421C0.290463 16.6457 -2.38419e-05 16.1771 -2.38419e-05 15.6133H1.99998ZM1.91553 15.5289H2.43573V17.5289H1.91553V15.5289ZM8.3244 15.5289H14.7333V17.5289H8.3244V15.5289ZM7.40885 5H14.7333V7H7.40885V5ZM4.83108 16.5289C4.83108 16.6884 4.96042 16.8177 5.11997 16.8177V20.8177C2.75128 20.8177 0.831083 18.8975 0.831083 16.5289H4.83108ZM5.11997 16.8177C5.27951 16.8177 5.40885 16.6884 5.40885 16.5289H9.40885C9.40885 18.8975 7.48865 20.8177 5.11997 20.8177V16.8177ZM5.40885 16.5289C5.40885 16.3693 5.27951 16.24 5.11997 16.24V12.24C7.48865 12.24 9.40885 14.1602 9.40885 16.5289H5.40885ZM5.11997 16.24C4.96042 16.24 4.83108 16.3693 4.83108 16.5289H0.831083C0.831083 14.1602 2.75128 12.24 5.11997 12.24V16.24Z" fill="black" fill-opacity="0.2" mask="url(#path-1-outside-1_1770_29864)"/>
<path d="M6.03552 7.37333L6.92995 7.82054L6.92995 7.82054L6.03552 7.37333ZM4.66219 10.12L5.55662 10.5672C5.54517 10.5901 5.53285 10.6125 5.51968 10.6345L4.66219 10.12ZM1.91553 16.5289L1.91553 15.5289H1.91553V16.5289ZM2.43573 15.5289C2.98802 15.5289 3.43573 15.9766 3.43573 16.5289C3.43573 17.0811 2.98802 17.5289 2.43573 17.5289V15.5289ZM8.3244 17.5289C7.77212 17.5289 7.3244 17.0811 7.3244 16.5289C7.3244 15.9766 7.77212 15.5289 8.3244 15.5289V17.5289ZM14.7333 15.5289C15.2856 15.5289 15.7333 15.9766 15.7333 16.5289C15.7333 17.0811 15.2856 17.5289 14.7333 17.5289V15.5289ZM7.40885 7C7.40689 7 7.41247 7.0001 7.42254 6.99751C7.43256 6.99493 7.43995 6.99153 7.4431 6.98981C7.4478 6.98725 7.42296 6.9995 7.37129 7.0602C7.2494 7.20339 7.12375 7.43293 6.92995 7.82054L5.14109 6.92612C5.31351 6.58129 5.5416 6.12416 5.84835 5.7638C6.18554 5.36768 6.69303 5 7.40885 5V7ZM6.92995 7.82054L5.55662 10.5672L3.76776 9.67278L5.14109 6.92612L6.92995 7.82054ZM4.66219 10.12C5.51968 10.6345 5.51924 10.6352 5.51879 10.636C5.51864 10.6362 5.51819 10.637 5.51789 10.6375C5.51728 10.6385 5.51667 10.6395 5.51605 10.6405C5.51481 10.6425 5.51355 10.6446 5.51225 10.6467C5.50966 10.6509 5.50696 10.6552 5.50413 10.6596C5.49849 10.6684 5.49237 10.6777 5.48576 10.6874C5.47254 10.7069 5.45736 10.728 5.44002 10.7505C5.40532 10.7955 5.36216 10.8457 5.30921 10.8986C5.20259 11.0052 5.05982 11.1193 4.87317 11.223C4.49568 11.4328 3.97981 11.5778 3.28886 11.5778V9.57777C3.69657 9.57777 3.86737 9.49389 3.90188 9.47472C3.92122 9.46398 3.91578 9.46362 3.895 9.48441C3.88497 9.49444 3.87185 9.5089 3.85646 9.52886C3.84878 9.53881 3.84057 9.55009 3.83191 9.56282C3.82758 9.56919 3.82314 9.57592 3.8186 9.58302C3.81633 9.58658 3.81404 9.59022 3.81172 9.59397C3.81056 9.59584 3.80939 9.59774 3.80822 9.59966C3.80764 9.60062 3.80705 9.60159 3.80646 9.60256C3.80617 9.60305 3.80573 9.60378 3.80558 9.60402C3.80514 9.60476 3.8047 9.6055 4.66219 10.12ZM3.28886 11.5778C3.02864 11.5778 2.64172 11.6468 2.35743 11.8105C2.2256 11.8865 2.14172 11.9676 2.09074 12.0467C2.04459 12.1183 1.99998 12.2261 1.99998 12.4089H-2.38419e-05C-2.38419e-05 11.2471 0.640046 10.4917 1.35918 10.0775C2.02859 9.69188 2.78612 9.57777 3.28886 9.57777V11.5778ZM1.99998 12.4089V15.6133H-2.38419e-05V12.4089H1.99998ZM1.99998 15.6133C1.99998 15.542 1.98145 15.5045 1.98091 15.5034C1.97975 15.501 1.98535 15.5122 2.001 15.5278C2.01664 15.5435 2.02779 15.5491 2.02541 15.5479C2.0243 15.5474 1.98688 15.5289 1.91553 15.5289L1.91553 17.5289C1.35171 17.5289 0.883102 17.2384 0.586783 16.9421C0.290463 16.6457 -2.38419e-05 16.1771 -2.38419e-05 15.6133H1.99998ZM1.91553 15.5289H2.43573V17.5289H1.91553V15.5289ZM8.3244 15.5289H14.7333V17.5289H8.3244V15.5289ZM7.40885 5H14.7333V7H7.40885V5ZM4.83108 16.5289C4.83108 16.6884 4.96042 16.8177 5.11997 16.8177V20.8177C2.75128 20.8177 0.831083 18.8975 0.831083 16.5289H4.83108ZM5.11997 16.8177C5.27951 16.8177 5.40885 16.6884 5.40885 16.5289H9.40885C9.40885 18.8975 7.48865 20.8177 5.11997 20.8177V16.8177ZM5.40885 16.5289C5.40885 16.3693 5.27951 16.24 5.11997 16.24V12.24C7.48865 12.24 9.40885 14.1602 9.40885 16.5289H5.40885ZM5.11997 16.24C4.96042 16.24 4.83108 16.3693 4.83108 16.5289H0.831083C0.831083 14.1602 2.75128 12.24 5.11997 12.24V16.24Z" fill="black" fill-opacity="0.2" mask="url(#path-1-outside-1_1770_29864)"/>
<path d="M6.03552 7.37333L6.92995 7.82054L6.92995 7.82054L6.03552 7.37333ZM4.66219 10.12L5.55662 10.5672C5.54517 10.5901 5.53285 10.6125 5.51968 10.6345L4.66219 10.12ZM1.91553 16.5289L1.91553 15.5289H1.91553V16.5289ZM2.43573 15.5289C2.98802 15.5289 3.43573 15.9766 3.43573 16.5289C3.43573 17.0811 2.98802 17.5289 2.43573 17.5289V15.5289ZM8.3244 17.5289C7.77212 17.5289 7.3244 17.0811 7.3244 16.5289C7.3244 15.9766 7.77212 15.5289 8.3244 15.5289V17.5289ZM14.7333 15.5289C15.2856 15.5289 15.7333 15.9766 15.7333 16.5289C15.7333 17.0811 15.2856 17.5289 14.7333 17.5289V15.5289ZM7.40885 7C7.40689 7 7.41247 7.0001 7.42254 6.99751C7.43256 6.99493 7.43995 6.99153 7.4431 6.98981C7.4478 6.98725 7.42296 6.9995 7.37129 7.0602C7.2494 7.20339 7.12375 7.43293 6.92995 7.82054L5.14109 6.92612C5.31351 6.58129 5.5416 6.12416 5.84835 5.7638C6.18554 5.36768 6.69303 5 7.40885 5V7ZM6.92995 7.82054L5.55662 10.5672L3.76776 9.67278L5.14109 6.92612L6.92995 7.82054ZM4.66219 10.12C5.51968 10.6345 5.51924 10.6352 5.51879 10.636C5.51864 10.6362 5.51819 10.637 5.51789 10.6375C5.51728 10.6385 5.51667 10.6395 5.51605 10.6405C5.51481 10.6425 5.51355 10.6446 5.51225 10.6467C5.50966 10.6509 5.50696 10.6552 5.50413 10.6596C5.49849 10.6684 5.49237 10.6777 5.48576 10.6874C5.47254 10.7069 5.45736 10.728 5.44002 10.7505C5.40532 10.7955 5.36216 10.8457 5.30921 10.8986C5.20259 11.0052 5.05982 11.1193 4.87317 11.223C4.49568 11.4328 3.97981 11.5778 3.28886 11.5778V9.57777C3.69657 9.57777 3.86737 9.49389 3.90188 9.47472C3.92122 9.46398 3.91578 9.46362 3.895 9.48441C3.88497 9.49444 3.87185 9.5089 3.85646 9.52886C3.84878 9.53881 3.84057 9.55009 3.83191 9.56282C3.82758 9.56919 3.82314 9.57592 3.8186 9.58302C3.81633 9.58658 3.81404 9.59022 3.81172 9.59397C3.81056 9.59584 3.80939 9.59774 3.80822 9.59966C3.80764 9.60062 3.80705 9.60159 3.80646 9.60256C3.80617 9.60305 3.80573 9.60378 3.80558 9.60402C3.80514 9.60476 3.8047 9.6055 4.66219 10.12ZM3.28886 11.5778C3.02864 11.5778 2.64172 11.6468 2.35743 11.8105C2.2256 11.8865 2.14172 11.9676 2.09074 12.0467C2.04459 12.1183 1.99998 12.2261 1.99998 12.4089H-2.38419e-05C-2.38419e-05 11.2471 0.640046 10.4917 1.35918 10.0775C2.02859 9.69188 2.78612 9.57777 3.28886 9.57777V11.5778ZM1.99998 12.4089V15.6133H-2.38419e-05V12.4089H1.99998ZM1.99998 15.6133C1.99998 15.542 1.98145 15.5045 1.98091 15.5034C1.97975 15.501 1.98535 15.5122 2.001 15.5278C2.01664 15.5435 2.02779 15.5491 2.02541 15.5479C2.0243 15.5474 1.98688 15.5289 1.91553 15.5289L1.91553 17.5289C1.35171 17.5289 0.883102 17.2384 0.586783 16.9421C0.290463 16.6457 -2.38419e-05 16.1771 -2.38419e-05 15.6133H1.99998ZM1.91553 15.5289H2.43573V17.5289H1.91553V15.5289ZM8.3244 15.5289H14.7333V17.5289H8.3244V15.5289ZM7.40885 5H14.7333V7H7.40885V5ZM4.83108 16.5289C4.83108 16.6884 4.96042 16.8177 5.11997 16.8177V20.8177C2.75128 20.8177 0.831083 18.8975 0.831083 16.5289H4.83108ZM5.11997 16.8177C5.27951 16.8177 5.40885 16.6884 5.40885 16.5289H9.40885C9.40885 18.8975 7.48865 20.8177 5.11997 20.8177V16.8177ZM5.40885 16.5289C5.40885 16.3693 5.27951 16.24 5.11997 16.24V12.24C7.48865 12.24 9.40885 14.1602 9.40885 16.5289H5.40885ZM5.11997 16.24C4.96042 16.24 4.83108 16.3693 4.83108 16.5289H0.831083C0.831083 14.1602 2.75128 12.24 5.11997 12.24V16.24Z" fill="black" fill-opacity="0.2" mask="url(#path-1-outside-1_1770_29864)"/>
<path d="M6.03552 7.37333L6.92995 7.82054L6.92995 7.82054L6.03552 7.37333ZM4.66219 10.12L5.55662 10.5672C5.54517 10.5901 5.53285 10.6125 5.51968 10.6345L4.66219 10.12ZM1.91553 16.5289L1.91553 15.5289H1.91553V16.5289ZM2.43573 15.5289C2.98802 15.5289 3.43573 15.9766 3.43573 16.5289C3.43573 17.0811 2.98802 17.5289 2.43573 17.5289V15.5289ZM8.3244 17.5289C7.77212 17.5289 7.3244 17.0811 7.3244 16.5289C7.3244 15.9766 7.77212 15.5289 8.3244 15.5289V17.5289ZM14.7333 15.5289C15.2856 15.5289 15.7333 15.9766 15.7333 16.5289C15.7333 17.0811 15.2856 17.5289 14.7333 17.5289V15.5289ZM7.40885 7C7.40689 7 7.41247 7.0001 7.42254 6.99751C7.43256 6.99493 7.43995 6.99153 7.4431 6.98981C7.4478 6.98725 7.42296 6.9995 7.37129 7.0602C7.2494 7.20339 7.12375 7.43293 6.92995 7.82054L5.14109 6.92612C5.31351 6.58129 5.5416 6.12416 5.84835 5.7638C6.18554 5.36768 6.69303 5 7.40885 5V7ZM6.92995 7.82054L5.55662 10.5672L3.76776 9.67278L5.14109 6.92612L6.92995 7.82054ZM4.66219 10.12C5.51968 10.6345 5.51924 10.6352 5.51879 10.636C5.51864 10.6362 5.51819 10.637 5.51789 10.6375C5.51728 10.6385 5.51667 10.6395 5.51605 10.6405C5.51481 10.6425 5.51355 10.6446 5.51225 10.6467C5.50966 10.6509 5.50696 10.6552 5.50413 10.6596C5.49849 10.6684 5.49237 10.6777 5.48576 10.6874C5.47254 10.7069 5.45736 10.728 5.44002 10.7505C5.40532 10.7955 5.36216 10.8457 5.30921 10.8986C5.20259 11.0052 5.05982 11.1193 4.87317 11.223C4.49568 11.4328 3.97981 11.5778 3.28886 11.5778V9.57777C3.69657 9.57777 3.86737 9.49389 3.90188 9.47472C3.92122 9.46398 3.91578 9.46362 3.895 9.48441C3.88497 9.49444 3.87185 9.5089 3.85646 9.52886C3.84878 9.53881 3.84057 9.55009 3.83191 9.56282C3.82758 9.56919 3.82314 9.57592 3.8186 9.58302C3.81633 9.58658 3.81404 9.59022 3.81172 9.59397C3.81056 9.59584 3.80939 9.59774 3.80822 9.59966C3.80764 9.60062 3.80705 9.60159 3.80646 9.60256C3.80617 9.60305 3.80573 9.60378 3.80558 9.60402C3.80514 9.60476 3.8047 9.6055 4.66219 10.12ZM3.28886 11.5778C3.02864 11.5778 2.64172 11.6468 2.35743 11.8105C2.2256 11.8865 2.14172 11.9676 2.09074 12.0467C2.04459 12.1183 1.99998 12.2261 1.99998 12.4089H-2.38419e-05C-2.38419e-05 11.2471 0.640046 10.4917 1.35918 10.0775C2.02859 9.69188 2.78612 9.57777 3.28886 9.57777V11.5778ZM1.99998 12.4089V15.6133H-2.38419e-05V12.4089H1.99998ZM1.99998 15.6133C1.99998 15.542 1.98145 15.5045 1.98091 15.5034C1.97975 15.501 1.98535 15.5122 2.001 15.5278C2.01664 15.5435 2.02779 15.5491 2.02541 15.5479C2.0243 15.5474 1.98688 15.5289 1.91553 15.5289L1.91553 17.5289C1.35171 17.5289 0.883102 17.2384 0.586783 16.9421C0.290463 16.6457 -2.38419e-05 16.1771 -2.38419e-05 15.6133H1.99998ZM1.91553 15.5289H2.43573V17.5289H1.91553V15.5289ZM8.3244 15.5289H14.7333V17.5289H8.3244V15.5289ZM7.40885 5H14.7333V7H7.40885V5ZM4.83108 16.5289C4.83108 16.6884 4.96042 16.8177 5.11997 16.8177V20.8177C2.75128 20.8177 0.831083 18.8975 0.831083 16.5289H4.83108ZM5.11997 16.8177C5.27951 16.8177 5.40885 16.6884 5.40885 16.5289H9.40885C9.40885 18.8975 7.48865 20.8177 5.11997 20.8177V16.8177ZM5.40885 16.5289C5.40885 16.3693 5.27951 16.24 5.11997 16.24V12.24C7.48865 12.24 9.40885 14.1602 9.40885 16.5289H5.40885ZM5.11997 16.24C4.96042 16.24 4.83108 16.3693 4.83108 16.5289H0.831083C0.831083 14.1602 2.75128 12.24 5.11997 12.24V16.24Z" fill="black" fill-opacity="0.2" mask="url(#path-1-outside-1_1770_29864)"/>
<path d="M6.03552 7.37333L6.92995 7.82054L6.92995 7.82054L6.03552 7.37333ZM4.66219 10.12L5.55662 10.5672C5.54517 10.5901 5.53285 10.6125 5.51968 10.6345L4.66219 10.12ZM1.91553 16.5289L1.91553 15.5289H1.91553V16.5289ZM2.43573 15.5289C2.98802 15.5289 3.43573 15.9766 3.43573 16.5289C3.43573 17.0811 2.98802 17.5289 2.43573 17.5289V15.5289ZM8.3244 17.5289C7.77212 17.5289 7.3244 17.0811 7.3244 16.5289C7.3244 15.9766 7.77212 15.5289 8.3244 15.5289V17.5289ZM14.7333 15.5289C15.2856 15.5289 15.7333 15.9766 15.7333 16.5289C15.7333 17.0811 15.2856 17.5289 14.7333 17.5289V15.5289ZM7.40885 7C7.40689 7 7.41247 7.0001 7.42254 6.99751C7.43256 6.99493 7.43995 6.99153 7.4431 6.98981C7.4478 6.98725 7.42296 6.9995 7.37129 7.0602C7.2494 7.20339 7.12375 7.43293 6.92995 7.82054L5.14109 6.92612C5.31351 6.58129 5.5416 6.12416 5.84835 5.7638C6.18554 5.36768 6.69303 5 7.40885 5V7ZM6.92995 7.82054L5.55662 10.5672L3.76776 9.67278L5.14109 6.92612L6.92995 7.82054ZM4.66219 10.12C5.51968 10.6345 5.51924 10.6352 5.51879 10.636C5.51864 10.6362 5.51819 10.637 5.51789 10.6375C5.51728 10.6385 5.51667 10.6395 5.51605 10.6405C5.51481 10.6425 5.51355 10.6446 5.51225 10.6467C5.50966 10.6509 5.50696 10.6552 5.50413 10.6596C5.49849 10.6684 5.49237 10.6777 5.48576 10.6874C5.47254 10.7069 5.45736 10.728 5.44002 10.7505C5.40532 10.7955 5.36216 10.8457 5.30921 10.8986C5.20259 11.0052 5.05982 11.1193 4.87317 11.223C4.49568 11.4328 3.97981 11.5778 3.28886 11.5778V9.57777C3.69657 9.57777 3.86737 9.49389 3.90188 9.47472C3.92122 9.46398 3.91578 9.46362 3.895 9.48441C3.88497 9.49444 3.87185 9.5089 3.85646 9.52886C3.84878 9.53881 3.84057 9.55009 3.83191 9.56282C3.82758 9.56919 3.82314 9.57592 3.8186 9.58302C3.81633 9.58658 3.81404 9.59022 3.81172 9.59397C3.81056 9.59584 3.80939 9.59774 3.80822 9.59966C3.80764 9.60062 3.80705 9.60159 3.80646 9.60256C3.80617 9.60305 3.80573 9.60378 3.80558 9.60402C3.80514 9.60476 3.8047 9.6055 4.66219 10.12ZM3.28886 11.5778C3.02864 11.5778 2.64172 11.6468 2.35743 11.8105C2.2256 11.8865 2.14172 11.9676 2.09074 12.0467C2.04459 12.1183 1.99998 12.2261 1.99998 12.4089H-2.38419e-05C-2.38419e-05 11.2471 0.640046 10.4917 1.35918 10.0775C2.02859 9.69188 2.78612 9.57777 3.28886 9.57777V11.5778ZM1.99998 12.4089V15.6133H-2.38419e-05V12.4089H1.99998ZM1.99998 15.6133C1.99998 15.542 1.98145 15.5045 1.98091 15.5034C1.97975 15.501 1.98535 15.5122 2.001 15.5278C2.01664 15.5435 2.02779 15.5491 2.02541 15.5479C2.0243 15.5474 1.98688 15.5289 1.91553 15.5289L1.91553 17.5289C1.35171 17.5289 0.883102 17.2384 0.586783 16.9421C0.290463 16.6457 -2.38419e-05 16.1771 -2.38419e-05 15.6133H1.99998ZM1.91553 15.5289H2.43573V17.5289H1.91553V15.5289ZM8.3244 15.5289H14.7333V17.5289H8.3244V15.5289ZM7.40885 5H14.7333V7H7.40885V5ZM4.83108 16.5289C4.83108 16.6884 4.96042 16.8177 5.11997 16.8177V20.8177C2.75128 20.8177 0.831083 18.8975 0.831083 16.5289H4.83108ZM5.11997 16.8177C5.27951 16.8177 5.40885 16.6884 5.40885 16.5289H9.40885C9.40885 18.8975 7.48865 20.8177 5.11997 20.8177V16.8177ZM5.40885 16.5289C5.40885 16.3693 5.27951 16.24 5.11997 16.24V12.24C7.48865 12.24 9.40885 14.1602 9.40885 16.5289H5.40885ZM5.11997 16.24C4.96042 16.24 4.83108 16.3693 4.83108 16.5289H0.831083C0.831083 14.1602 2.75128 12.24 5.11997 12.24V16.24Z" fill="black" fill-opacity="0.2" mask="url(#path-1-outside-1_1770_29864)"/>
<path d="M6.03552 7.37333L6.92995 7.82054L6.92995 7.82054L6.03552 7.37333ZM4.66219 10.12L5.55662 10.5672C5.54517 10.5901 5.53285 10.6125 5.51968 10.6345L4.66219 10.12ZM1.91553 16.5289L1.91553 15.5289H1.91553V16.5289ZM2.43573 15.5289C2.98802 15.5289 3.43573 15.9766 3.43573 16.5289C3.43573 17.0811 2.98802 17.5289 2.43573 17.5289V15.5289ZM8.3244 17.5289C7.77212 17.5289 7.3244 17.0811 7.3244 16.5289C7.3244 15.9766 7.77212 15.5289 8.3244 15.5289V17.5289ZM14.7333 15.5289C15.2856 15.5289 15.7333 15.9766 15.7333 16.5289C15.7333 17.0811 15.2856 17.5289 14.7333 17.5289V15.5289ZM7.40885 7C7.40689 7 7.41247 7.0001 7.42254 6.99751C7.43256 6.99493 7.43995 6.99153 7.4431 6.98981C7.4478 6.98725 7.42296 6.9995 7.37129 7.0602C7.2494 7.20339 7.12375 7.43293 6.92995 7.82054L5.14109 6.92612C5.31351 6.58129 5.5416 6.12416 5.84835 5.7638C6.18554 5.36768 6.69303 5 7.40885 5V7ZM6.92995 7.82054L5.55662 10.5672L3.76776 9.67278L5.14109 6.92612L6.92995 7.82054ZM4.66219 10.12C5.51968 10.6345 5.51924 10.6352 5.51879 10.636C5.51864 10.6362 5.51819 10.637 5.51789 10.6375C5.51728 10.6385 5.51667 10.6395 5.51605 10.6405C5.51481 10.6425 5.51355 10.6446 5.51225 10.6467C5.50966 10.6509 5.50696 10.6552 5.50413 10.6596C5.49849 10.6684 5.49237 10.6777 5.48576 10.6874C5.47254 10.7069 5.45736 10.728 5.44002 10.7505C5.40532 10.7955 5.36216 10.8457 5.30921 10.8986C5.20259 11.0052 5.05982 11.1193 4.87317 11.223C4.49568 11.4328 3.97981 11.5778 3.28886 11.5778V9.57777C3.69657 9.57777 3.86737 9.49389 3.90188 9.47472C3.92122 9.46398 3.91578 9.46362 3.895 9.48441C3.88497 9.49444 3.87185 9.5089 3.85646 9.52886C3.84878 9.53881 3.84057 9.55009 3.83191 9.56282C3.82758 9.56919 3.82314 9.57592 3.8186 9.58302C3.81633 9.58658 3.81404 9.59022 3.81172 9.59397C3.81056 9.59584 3.80939 9.59774 3.80822 9.59966C3.80764 9.60062 3.80705 9.60159 3.80646 9.60256C3.80617 9.60305 3.80573 9.60378 3.80558 9.60402C3.80514 9.60476 3.8047 9.6055 4.66219 10.12ZM3.28886 11.5778C3.02864 11.5778 2.64172 11.6468 2.35743 11.8105C2.2256 11.8865 2.14172 11.9676 2.09074 12.0467C2.04459 12.1183 1.99998 12.2261 1.99998 12.4089H-2.38419e-05C-2.38419e-05 11.2471 0.640046 10.4917 1.35918 10.0775C2.02859 9.69188 2.78612 9.57777 3.28886 9.57777V11.5778ZM1.99998 12.4089V15.6133H-2.38419e-05V12.4089H1.99998ZM1.99998 15.6133C1.99998 15.542 1.98145 15.5045 1.98091 15.5034C1.97975 15.501 1.98535 15.5122 2.001 15.5278C2.01664 15.5435 2.02779 15.5491 2.02541 15.5479C2.0243 15.5474 1.98688 15.5289 1.91553 15.5289L1.91553 17.5289C1.35171 17.5289 0.883102 17.2384 0.586783 16.9421C0.290463 16.6457 -2.38419e-05 16.1771 -2.38419e-05 15.6133H1.99998ZM1.91553 15.5289H2.43573V17.5289H1.91553V15.5289ZM8.3244 15.5289H14.7333V17.5289H8.3244V15.5289ZM7.40885 5H14.7333V7H7.40885V5ZM4.83108 16.5289C4.83108 16.6884 4.96042 16.8177 5.11997 16.8177V20.8177C2.75128 20.8177 0.831083 18.8975 0.831083 16.5289H4.83108ZM5.11997 16.8177C5.27951 16.8177 5.40885 16.6884 5.40885 16.5289H9.40885C9.40885 18.8975 7.48865 20.8177 5.11997 20.8177V16.8177ZM5.40885 16.5289C5.40885 16.3693 5.27951 16.24 5.11997 16.24V12.24C7.48865 12.24 9.40885 14.1602 9.40885 16.5289H5.40885ZM5.11997 16.24C4.96042 16.24 4.83108 16.3693 4.83108 16.5289H0.831083C0.831083 14.1602 2.75128 12.24 5.11997 12.24V16.24Z" fill="black" fill-opacity="0.2" mask="url(#path-1-outside-1_1770_29864)"/>
<path d="M6.03552 7.37333L6.92995 7.82054L6.92995 7.82054L6.03552 7.37333ZM4.66219 10.12L5.55662 10.5672C5.54517 10.5901 5.53285 10.6125 5.51968 10.6345L4.66219 10.12ZM1.91553 16.5289L1.91553 15.5289H1.91553V16.5289ZM2.43573 15.5289C2.98802 15.5289 3.43573 15.9766 3.43573 16.5289C3.43573 17.0811 2.98802 17.5289 2.43573 17.5289V15.5289ZM8.3244 17.5289C7.77212 17.5289 7.3244 17.0811 7.3244 16.5289C7.3244 15.9766 7.77212 15.5289 8.3244 15.5289V17.5289ZM14.7333 15.5289C15.2856 15.5289 15.7333 15.9766 15.7333 16.5289C15.7333 17.0811 15.2856 17.5289 14.7333 17.5289V15.5289ZM7.40885 7C7.40689 7 7.41247 7.0001 7.42254 6.99751C7.43256 6.99493 7.43995 6.99153 7.4431 6.98981C7.4478 6.98725 7.42296 6.9995 7.37129 7.0602C7.2494 7.20339 7.12375 7.43293 6.92995 7.82054L5.14109 6.92612C5.31351 6.58129 5.5416 6.12416 5.84835 5.7638C6.18554 5.36768 6.69303 5 7.40885 5V7ZM6.92995 7.82054L5.55662 10.5672L3.76776 9.67278L5.14109 6.92612L6.92995 7.82054ZM4.66219 10.12C5.51968 10.6345 5.51924 10.6352 5.51879 10.636C5.51864 10.6362 5.51819 10.637 5.51789 10.6375C5.51728 10.6385 5.51667 10.6395 5.51605 10.6405C5.51481 10.6425 5.51355 10.6446 5.51225 10.6467C5.50966 10.6509 5.50696 10.6552 5.50413 10.6596C5.49849 10.6684 5.49237 10.6777 5.48576 10.6874C5.47254 10.7069 5.45736 10.728 5.44002 10.7505C5.40532 10.7955 5.36216 10.8457 5.30921 10.8986C5.20259 11.0052 5.05982 11.1193 4.87317 11.223C4.49568 11.4328 3.97981 11.5778 3.28886 11.5778V9.57777C3.69657 9.57777 3.86737 9.49389 3.90188 9.47472C3.92122 9.46398 3.91578 9.46362 3.895 9.48441C3.88497 9.49444 3.87185 9.5089 3.85646 9.52886C3.84878 9.53881 3.84057 9.55009 3.83191 9.56282C3.82758 9.56919 3.82314 9.57592 3.8186 9.58302C3.81633 9.58658 3.81404 9.59022 3.81172 9.59397C3.81056 9.59584 3.80939 9.59774 3.80822 9.59966C3.80764 9.60062 3.80705 9.60159 3.80646 9.60256C3.80617 9.60305 3.80573 9.60378 3.80558 9.60402C3.80514 9.60476 3.8047 9.6055 4.66219 10.12ZM3.28886 11.5778C3.02864 11.5778 2.64172 11.6468 2.35743 11.8105C2.2256 11.8865 2.14172 11.9676 2.09074 12.0467C2.04459 12.1183 1.99998 12.2261 1.99998 12.4089H-2.38419e-05C-2.38419e-05 11.2471 0.640046 10.4917 1.35918 10.0775C2.02859 9.69188 2.78612 9.57777 3.28886 9.57777V11.5778ZM1.99998 12.4089V15.6133H-2.38419e-05V12.4089H1.99998ZM1.99998 15.6133C1.99998 15.542 1.98145 15.5045 1.98091 15.5034C1.97975 15.501 1.98535 15.5122 2.001 15.5278C2.01664 15.5435 2.02779 15.5491 2.02541 15.5479C2.0243 15.5474 1.98688 15.5289 1.91553 15.5289L1.91553 17.5289C1.35171 17.5289 0.883102 17.2384 0.586783 16.9421C0.290463 16.6457 -2.38419e-05 16.1771 -2.38419e-05 15.6133H1.99998ZM1.91553 15.5289H2.43573V17.5289H1.91553V15.5289ZM8.3244 15.5289H14.7333V17.5289H8.3244V15.5289ZM7.40885 5H14.7333V7H7.40885V5ZM4.83108 16.5289C4.83108 16.6884 4.96042 16.8177 5.11997 16.8177V20.8177C2.75128 20.8177 0.831083 18.8975 0.831083 16.5289H4.83108ZM5.11997 16.8177C5.27951 16.8177 5.40885 16.6884 5.40885 16.5289H9.40885C9.40885 18.8975 7.48865 20.8177 5.11997 20.8177V16.8177ZM5.40885 16.5289C5.40885 16.3693 5.27951 16.24 5.11997 16.24V12.24C7.48865 12.24 9.40885 14.1602 9.40885 16.5289H5.40885ZM5.11997 16.24C4.96042 16.24 4.83108 16.3693 4.83108 16.5289H0.831083C0.831083 14.1602 2.75128 12.24 5.11997 12.24V16.24Z" fill="black" fill-opacity="0.2" mask="url(#path-1-outside-1_1770_29864)"/>
<mask id="path-3-outside-2_1770_29864" maskUnits="userSpaceOnUse" x="8.6145" y="5" width="16" height="16" fill="black">
<rect fill="white" x="8.6145" y="5" width="16" height="16"/>
<path d="M21.5167 16.5289C21.5167 17.793 20.4919 18.8177 19.2278 18.8177C17.9637 18.8177 16.9389 17.793 16.9389 16.5289C16.9389 15.2647 17.9637 14.24 19.2278 14.24C20.4919 14.24 21.5167 15.2647 21.5167 16.5289Z"/>
</mask>
<path d="M18.3123 7.37333L17.4178 7.82054L17.4178 7.82054L18.3123 7.37333ZM19.6856 10.12L18.7912 10.5672C18.8026 10.5901 18.8149 10.6125 18.8281 10.6345L19.6856 10.12ZM22.4322 16.5289L22.4323 15.5289H22.4322V16.5289ZM21.912 15.5289C21.3598 15.5289 20.912 15.9766 20.912 16.5289C20.912 17.0811 21.3598 17.5289 21.912 17.5289V15.5289ZM16.0234 17.5289C16.5757 17.5289 17.0234 17.0811 17.0234 16.5289C17.0234 15.9766 16.5757 15.5289 16.0234 15.5289V17.5289ZM9.6145 15.5289C9.06222 15.5289 8.6145 15.9766 8.6145 16.5289C8.6145 17.0811 9.06222 17.5289 9.6145 17.5289V15.5289ZM16.9389 7C16.9409 7 16.9353 7.0001 16.9252 6.99751C16.9152 6.99493 16.9078 6.99153 16.9047 6.98981C16.9 6.98725 16.9248 6.9995 16.9765 7.0602C17.0984 7.20339 17.224 7.43293 17.4178 7.82054L19.2067 6.92612C19.0343 6.58129 18.8062 6.12416 18.4994 5.7638C18.1622 5.36768 17.6547 5 16.9389 5V7ZM17.4178 7.82054L18.7912 10.5672L20.58 9.67278L19.2067 6.92612L17.4178 7.82054ZM19.6856 10.12C18.8281 10.6345 18.8285 10.6352 18.829 10.636C18.8291 10.6362 18.8296 10.637 18.8299 10.6375C18.8305 10.6385 18.8311 10.6395 18.8317 10.6405C18.833 10.6425 18.8342 10.6446 18.8355 10.6467C18.8381 10.6509 18.8408 10.6552 18.8436 10.6596C18.8493 10.6684 18.8554 10.6777 18.862 10.6874C18.8752 10.7069 18.8904 10.728 18.9078 10.7505C18.9425 10.7955 18.9856 10.8457 19.0386 10.8986C19.1452 11.0052 19.288 11.1193 19.4746 11.223C19.8521 11.4328 20.368 11.5778 21.0589 11.5778V9.57777C20.6512 9.57777 20.4804 9.49389 20.4459 9.47472C20.4266 9.46398 20.432 9.46362 20.4528 9.48441C20.4628 9.49444 20.4759 9.5089 20.4913 9.52886C20.499 9.53881 20.5072 9.55009 20.5159 9.56282C20.5202 9.56919 20.5246 9.57592 20.5292 9.58302C20.5314 9.58658 20.5337 9.59022 20.5361 9.59397C20.5372 9.59584 20.5384 9.59774 20.5396 9.59966C20.5401 9.60062 20.5407 9.60159 20.5413 9.60256C20.5416 9.60305 20.5421 9.60378 20.5422 9.60402C20.5426 9.60476 20.5431 9.6055 19.6856 10.12ZM21.0589 11.5778C21.3191 11.5778 21.7061 11.6468 21.9903 11.8105C22.1222 11.8865 22.2061 11.9676 22.257 12.0467C22.3032 12.1183 22.3478 12.2261 22.3478 12.4089H24.3478C24.3478 11.2471 23.7077 10.4917 22.9886 10.0775C22.3192 9.69188 21.5617 9.57777 21.0589 9.57777V11.5778ZM22.3478 12.4089V15.6133H24.3478V12.4089H22.3478ZM22.3478 15.6133C22.3478 15.542 22.3663 15.5045 22.3669 15.5034C22.368 15.501 22.3624 15.5122 22.3468 15.5278C22.3311 15.5435 22.32 15.5491 22.3224 15.5479C22.3235 15.5474 22.3609 15.5289 22.4323 15.5289L22.4322 17.5289C22.9961 17.5289 23.4647 17.2384 23.761 16.9421C24.0573 16.6457 24.3478 16.1771 24.3478 15.6133H22.3478ZM22.4322 15.5289H21.912V17.5289H22.4322V15.5289ZM16.0234 15.5289H9.6145V17.5289H16.0234V15.5289ZM16.9389 5H9.6145V7H16.9389V5ZM19.5167 16.5289C19.5167 16.6884 19.3874 16.8177 19.2278 16.8177V20.8177C21.5965 20.8177 23.5167 18.8975 23.5167 16.5289H19.5167ZM19.2278 16.8177C19.0683 16.8177 18.9389 16.6884 18.9389 16.5289H14.9389C14.9389 18.8975 16.8591 20.8177 19.2278 20.8177V16.8177ZM18.9389 16.5289C18.9389 16.3693 19.0683 16.24 19.2278 16.24V12.24C16.8591 12.24 14.9389 14.1602 14.9389 16.5289H18.9389ZM19.2278 16.24C19.3874 16.24 19.5167 16.3693 19.5167 16.5289H23.5167C23.5167 14.1602 21.5965 12.24 19.2278 12.24V16.24Z" fill="#202020" mask="url(#path-3-outside-2_1770_29864)"/>
<path d="M18.3123 7.37333L17.4178 7.82054L17.4178 7.82054L18.3123 7.37333ZM19.6856 10.12L18.7912 10.5672C18.8026 10.5901 18.8149 10.6125 18.8281 10.6345L19.6856 10.12ZM22.4322 16.5289L22.4323 15.5289H22.4322V16.5289ZM21.912 15.5289C21.3598 15.5289 20.912 15.9766 20.912 16.5289C20.912 17.0811 21.3598 17.5289 21.912 17.5289V15.5289ZM16.0234 17.5289C16.5757 17.5289 17.0234 17.0811 17.0234 16.5289C17.0234 15.9766 16.5757 15.5289 16.0234 15.5289V17.5289ZM9.6145 15.5289C9.06222 15.5289 8.6145 15.9766 8.6145 16.5289C8.6145 17.0811 9.06222 17.5289 9.6145 17.5289V15.5289ZM16.9389 7C16.9409 7 16.9353 7.0001 16.9252 6.99751C16.9152 6.99493 16.9078 6.99153 16.9047 6.98981C16.9 6.98725 16.9248 6.9995 16.9765 7.0602C17.0984 7.20339 17.224 7.43293 17.4178 7.82054L19.2067 6.92612C19.0343 6.58129 18.8062 6.12416 18.4994 5.7638C18.1622 5.36768 17.6547 5 16.9389 5V7ZM17.4178 7.82054L18.7912 10.5672L20.58 9.67278L19.2067 6.92612L17.4178 7.82054ZM19.6856 10.12C18.8281 10.6345 18.8285 10.6352 18.829 10.636C18.8291 10.6362 18.8296 10.637 18.8299 10.6375C18.8305 10.6385 18.8311 10.6395 18.8317 10.6405C18.833 10.6425 18.8342 10.6446 18.8355 10.6467C18.8381 10.6509 18.8408 10.6552 18.8436 10.6596C18.8493 10.6684 18.8554 10.6777 18.862 10.6874C18.8752 10.7069 18.8904 10.728 18.9078 10.7505C18.9425 10.7955 18.9856 10.8457 19.0386 10.8986C19.1452 11.0052 19.288 11.1193 19.4746 11.223C19.8521 11.4328 20.368 11.5778 21.0589 11.5778V9.57777C20.6512 9.57777 20.4804 9.49389 20.4459 9.47472C20.4266 9.46398 20.432 9.46362 20.4528 9.48441C20.4628 9.49444 20.4759 9.5089 20.4913 9.52886C20.499 9.53881 20.5072 9.55009 20.5159 9.56282C20.5202 9.56919 20.5246 9.57592 20.5292 9.58302C20.5314 9.58658 20.5337 9.59022 20.5361 9.59397C20.5372 9.59584 20.5384 9.59774 20.5396 9.59966C20.5401 9.60062 20.5407 9.60159 20.5413 9.60256C20.5416 9.60305 20.5421 9.60378 20.5422 9.60402C20.5426 9.60476 20.5431 9.6055 19.6856 10.12ZM21.0589 11.5778C21.3191 11.5778 21.7061 11.6468 21.9903 11.8105C22.1222 11.8865 22.2061 11.9676 22.257 12.0467C22.3032 12.1183 22.3478 12.2261 22.3478 12.4089H24.3478C24.3478 11.2471 23.7077 10.4917 22.9886 10.0775C22.3192 9.69188 21.5617 9.57777 21.0589 9.57777V11.5778ZM22.3478 12.4089V15.6133H24.3478V12.4089H22.3478ZM22.3478 15.6133C22.3478 15.542 22.3663 15.5045 22.3669 15.5034C22.368 15.501 22.3624 15.5122 22.3468 15.5278C22.3311 15.5435 22.32 15.5491 22.3224 15.5479C22.3235 15.5474 22.3609 15.5289 22.4323 15.5289L22.4322 17.5289C22.9961 17.5289 23.4647 17.2384 23.761 16.9421C24.0573 16.6457 24.3478 16.1771 24.3478 15.6133H22.3478ZM22.4322 15.5289H21.912V17.5289H22.4322V15.5289ZM16.0234 15.5289H9.6145V17.5289H16.0234V15.5289ZM16.9389 5H9.6145V7H16.9389V5ZM19.5167 16.5289C19.5167 16.6884 19.3874 16.8177 19.2278 16.8177V20.8177C21.5965 20.8177 23.5167 18.8975 23.5167 16.5289H19.5167ZM19.2278 16.8177C19.0683 16.8177 18.9389 16.6884 18.9389 16.5289H14.9389C14.9389 18.8975 16.8591 20.8177 19.2278 20.8177V16.8177ZM18.9389 16.5289C18.9389 16.3693 19.0683 16.24 19.2278 16.24V12.24C16.8591 12.24 14.9389 14.1602 14.9389 16.5289H18.9389ZM19.2278 16.24C19.3874 16.24 19.5167 16.3693 19.5167 16.5289H23.5167C23.5167 14.1602 21.5965 12.24 19.2278 12.24V16.24Z" fill="black" fill-opacity="0.2" mask="url(#path-3-outside-2_1770_29864)"/>
<path d="M18.3123 7.37333L17.4178 7.82054L17.4178 7.82054L18.3123 7.37333ZM19.6856 10.12L18.7912 10.5672C18.8026 10.5901 18.8149 10.6125 18.8281 10.6345L19.6856 10.12ZM22.4322 16.5289L22.4323 15.5289H22.4322V16.5289ZM21.912 15.5289C21.3598 15.5289 20.912 15.9766 20.912 16.5289C20.912 17.0811 21.3598 17.5289 21.912 17.5289V15.5289ZM16.0234 17.5289C16.5757 17.5289 17.0234 17.0811 17.0234 16.5289C17.0234 15.9766 16.5757 15.5289 16.0234 15.5289V17.5289ZM9.6145 15.5289C9.06222 15.5289 8.6145 15.9766 8.6145 16.5289C8.6145 17.0811 9.06222 17.5289 9.6145 17.5289V15.5289ZM16.9389 7C16.9409 7 16.9353 7.0001 16.9252 6.99751C16.9152 6.99493 16.9078 6.99153 16.9047 6.98981C16.9 6.98725 16.9248 6.9995 16.9765 7.0602C17.0984 7.20339 17.224 7.43293 17.4178 7.82054L19.2067 6.92612C19.0343 6.58129 18.8062 6.12416 18.4994 5.7638C18.1622 5.36768 17.6547 5 16.9389 5V7ZM17.4178 7.82054L18.7912 10.5672L20.58 9.67278L19.2067 6.92612L17.4178 7.82054ZM19.6856 10.12C18.8281 10.6345 18.8285 10.6352 18.829 10.636C18.8291 10.6362 18.8296 10.637 18.8299 10.6375C18.8305 10.6385 18.8311 10.6395 18.8317 10.6405C18.833 10.6425 18.8342 10.6446 18.8355 10.6467C18.8381 10.6509 18.8408 10.6552 18.8436 10.6596C18.8493 10.6684 18.8554 10.6777 18.862 10.6874C18.8752 10.7069 18.8904 10.728 18.9078 10.7505C18.9425 10.7955 18.9856 10.8457 19.0386 10.8986C19.1452 11.0052 19.288 11.1193 19.4746 11.223C19.8521 11.4328 20.368 11.5778 21.0589 11.5778V9.57777C20.6512 9.57777 20.4804 9.49389 20.4459 9.47472C20.4266 9.46398 20.432 9.46362 20.4528 9.48441C20.4628 9.49444 20.4759 9.5089 20.4913 9.52886C20.499 9.53881 20.5072 9.55009 20.5159 9.56282C20.5202 9.56919 20.5246 9.57592 20.5292 9.58302C20.5314 9.58658 20.5337 9.59022 20.5361 9.59397C20.5372 9.59584 20.5384 9.59774 20.5396 9.59966C20.5401 9.60062 20.5407 9.60159 20.5413 9.60256C20.5416 9.60305 20.5421 9.60378 20.5422 9.60402C20.5426 9.60476 20.5431 9.6055 19.6856 10.12ZM21.0589 11.5778C21.3191 11.5778 21.7061 11.6468 21.9903 11.8105C22.1222 11.8865 22.2061 11.9676 22.257 12.0467C22.3032 12.1183 22.3478 12.2261 22.3478 12.4089H24.3478C24.3478 11.2471 23.7077 10.4917 22.9886 10.0775C22.3192 9.69188 21.5617 9.57777 21.0589 9.57777V11.5778ZM22.3478 12.4089V15.6133H24.3478V12.4089H22.3478ZM22.3478 15.6133C22.3478 15.542 22.3663 15.5045 22.3669 15.5034C22.368 15.501 22.3624 15.5122 22.3468 15.5278C22.3311 15.5435 22.32 15.5491 22.3224 15.5479C22.3235 15.5474 22.3609 15.5289 22.4323 15.5289L22.4322 17.5289C22.9961 17.5289 23.4647 17.2384 23.761 16.9421C24.0573 16.6457 24.3478 16.1771 24.3478 15.6133H22.3478ZM22.4322 15.5289H21.912V17.5289H22.4322V15.5289ZM16.0234 15.5289H9.6145V17.5289H16.0234V15.5289ZM16.9389 5H9.6145V7H16.9389V5ZM19.5167 16.5289C19.5167 16.6884 19.3874 16.8177 19.2278 16.8177V20.8177C21.5965 20.8177 23.5167 18.8975 23.5167 16.5289H19.5167ZM19.2278 16.8177C19.0683 16.8177 18.9389 16.6884 18.9389 16.5289H14.9389C14.9389 18.8975 16.8591 20.8177 19.2278 20.8177V16.8177ZM18.9389 16.5289C18.9389 16.3693 19.0683 16.24 19.2278 16.24V12.24C16.8591 12.24 14.9389 14.1602 14.9389 16.5289H18.9389ZM19.2278 16.24C19.3874 16.24 19.5167 16.3693 19.5167 16.5289H23.5167C23.5167 14.1602 21.5965 12.24 19.2278 12.24V16.24Z" fill="black" fill-opacity="0.2" mask="url(#path-3-outside-2_1770_29864)"/>
<path d="M18.3123 7.37333L17.4178 7.82054L17.4178 7.82054L18.3123 7.37333ZM19.6856 10.12L18.7912 10.5672C18.8026 10.5901 18.8149 10.6125 18.8281 10.6345L19.6856 10.12ZM22.4322 16.5289L22.4323 15.5289H22.4322V16.5289ZM21.912 15.5289C21.3598 15.5289 20.912 15.9766 20.912 16.5289C20.912 17.0811 21.3598 17.5289 21.912 17.5289V15.5289ZM16.0234 17.5289C16.5757 17.5289 17.0234 17.0811 17.0234 16.5289C17.0234 15.9766 16.5757 15.5289 16.0234 15.5289V17.5289ZM9.6145 15.5289C9.06222 15.5289 8.6145 15.9766 8.6145 16.5289C8.6145 17.0811 9.06222 17.5289 9.6145 17.5289V15.5289ZM16.9389 7C16.9409 7 16.9353 7.0001 16.9252 6.99751C16.9152 6.99493 16.9078 6.99153 16.9047 6.98981C16.9 6.98725 16.9248 6.9995 16.9765 7.0602C17.0984 7.20339 17.224 7.43293 17.4178 7.82054L19.2067 6.92612C19.0343 6.58129 18.8062 6.12416 18.4994 5.7638C18.1622 5.36768 17.6547 5 16.9389 5V7ZM17.4178 7.82054L18.7912 10.5672L20.58 9.67278L19.2067 6.92612L17.4178 7.82054ZM19.6856 10.12C18.8281 10.6345 18.8285 10.6352 18.829 10.636C18.8291 10.6362 18.8296 10.637 18.8299 10.6375C18.8305 10.6385 18.8311 10.6395 18.8317 10.6405C18.833 10.6425 18.8342 10.6446 18.8355 10.6467C18.8381 10.6509 18.8408 10.6552 18.8436 10.6596C18.8493 10.6684 18.8554 10.6777 18.862 10.6874C18.8752 10.7069 18.8904 10.728 18.9078 10.7505C18.9425 10.7955 18.9856 10.8457 19.0386 10.8986C19.1452 11.0052 19.288 11.1193 19.4746 11.223C19.8521 11.4328 20.368 11.5778 21.0589 11.5778V9.57777C20.6512 9.57777 20.4804 9.49389 20.4459 9.47472C20.4266 9.46398 20.432 9.46362 20.4528 9.48441C20.4628 9.49444 20.4759 9.5089 20.4913 9.52886C20.499 9.53881 20.5072 9.55009 20.5159 9.56282C20.5202 9.56919 20.5246 9.57592 20.5292 9.58302C20.5314 9.58658 20.5337 9.59022 20.5361 9.59397C20.5372 9.59584 20.5384 9.59774 20.5396 9.59966C20.5401 9.60062 20.5407 9.60159 20.5413 9.60256C20.5416 9.60305 20.5421 9.60378 20.5422 9.60402C20.5426 9.60476 20.5431 9.6055 19.6856 10.12ZM21.0589 11.5778C21.3191 11.5778 21.7061 11.6468 21.9903 11.8105C22.1222 11.8865 22.2061 11.9676 22.257 12.0467C22.3032 12.1183 22.3478 12.2261 22.3478 12.4089H24.3478C24.3478 11.2471 23.7077 10.4917 22.9886 10.0775C22.3192 9.69188 21.5617 9.57777 21.0589 9.57777V11.5778ZM22.3478 12.4089V15.6133H24.3478V12.4089H22.3478ZM22.3478 15.6133C22.3478 15.542 22.3663 15.5045 22.3669 15.5034C22.368 15.501 22.3624 15.5122 22.3468 15.5278C22.3311 15.5435 22.32 15.5491 22.3224 15.5479C22.3235 15.5474 22.3609 15.5289 22.4323 15.5289L22.4322 17.5289C22.9961 17.5289 23.4647 17.2384 23.761 16.9421C24.0573 16.6457 24.3478 16.1771 24.3478 15.6133H22.3478ZM22.4322 15.5289H21.912V17.5289H22.4322V15.5289ZM16.0234 15.5289H9.6145V17.5289H16.0234V15.5289ZM16.9389 5H9.6145V7H16.9389V5ZM19.5167 16.5289C19.5167 16.6884 19.3874 16.8177 19.2278 16.8177V20.8177C21.5965 20.8177 23.5167 18.8975 23.5167 16.5289H19.5167ZM19.2278 16.8177C19.0683 16.8177 18.9389 16.6884 18.9389 16.5289H14.9389C14.9389 18.8975 16.8591 20.8177 19.2278 20.8177V16.8177ZM18.9389 16.5289C18.9389 16.3693 19.0683 16.24 19.2278 16.24V12.24C16.8591 12.24 14.9389 14.1602 14.9389 16.5289H18.9389ZM19.2278 16.24C19.3874 16.24 19.5167 16.3693 19.5167 16.5289H23.5167C23.5167 14.1602 21.5965 12.24 19.2278 12.24V16.24Z" fill="black" fill-opacity="0.2" mask="url(#path-3-outside-2_1770_29864)"/>
<path d="M18.3123 7.37333L17.4178 7.82054L17.4178 7.82054L18.3123 7.37333ZM19.6856 10.12L18.7912 10.5672C18.8026 10.5901 18.8149 10.6125 18.8281 10.6345L19.6856 10.12ZM22.4322 16.5289L22.4323 15.5289H22.4322V16.5289ZM21.912 15.5289C21.3598 15.5289 20.912 15.9766 20.912 16.5289C20.912 17.0811 21.3598 17.5289 21.912 17.5289V15.5289ZM16.0234 17.5289C16.5757 17.5289 17.0234 17.0811 17.0234 16.5289C17.0234 15.9766 16.5757 15.5289 16.0234 15.5289V17.5289ZM9.6145 15.5289C9.06222 15.5289 8.6145 15.9766 8.6145 16.5289C8.6145 17.0811 9.06222 17.5289 9.6145 17.5289V15.5289ZM16.9389 7C16.9409 7 16.9353 7.0001 16.9252 6.99751C16.9152 6.99493 16.9078 6.99153 16.9047 6.98981C16.9 6.98725 16.9248 6.9995 16.9765 7.0602C17.0984 7.20339 17.224 7.43293 17.4178 7.82054L19.2067 6.92612C19.0343 6.58129 18.8062 6.12416 18.4994 5.7638C18.1622 5.36768 17.6547 5 16.9389 5V7ZM17.4178 7.82054L18.7912 10.5672L20.58 9.67278L19.2067 6.92612L17.4178 7.82054ZM19.6856 10.12C18.8281 10.6345 18.8285 10.6352 18.829 10.636C18.8291 10.6362 18.8296 10.637 18.8299 10.6375C18.8305 10.6385 18.8311 10.6395 18.8317 10.6405C18.833 10.6425 18.8342 10.6446 18.8355 10.6467C18.8381 10.6509 18.8408 10.6552 18.8436 10.6596C18.8493 10.6684 18.8554 10.6777 18.862 10.6874C18.8752 10.7069 18.8904 10.728 18.9078 10.7505C18.9425 10.7955 18.9856 10.8457 19.0386 10.8986C19.1452 11.0052 19.288 11.1193 19.4746 11.223C19.8521 11.4328 20.368 11.5778 21.0589 11.5778V9.57777C20.6512 9.57777 20.4804 9.49389 20.4459 9.47472C20.4266 9.46398 20.432 9.46362 20.4528 9.48441C20.4628 9.49444 20.4759 9.5089 20.4913 9.52886C20.499 9.53881 20.5072 9.55009 20.5159 9.56282C20.5202 9.56919 20.5246 9.57592 20.5292 9.58302C20.5314 9.58658 20.5337 9.59022 20.5361 9.59397C20.5372 9.59584 20.5384 9.59774 20.5396 9.59966C20.5401 9.60062 20.5407 9.60159 20.5413 9.60256C20.5416 9.60305 20.5421 9.60378 20.5422 9.60402C20.5426 9.60476 20.5431 9.6055 19.6856 10.12ZM21.0589 11.5778C21.3191 11.5778 21.7061 11.6468 21.9903 11.8105C22.1222 11.8865 22.2061 11.9676 22.257 12.0467C22.3032 12.1183 22.3478 12.2261 22.3478 12.4089H24.3478C24.3478 11.2471 23.7077 10.4917 22.9886 10.0775C22.3192 9.69188 21.5617 9.57777 21.0589 9.57777V11.5778ZM22.3478 12.4089V15.6133H24.3478V12.4089H22.3478ZM22.3478 15.6133C22.3478 15.542 22.3663 15.5045 22.3669 15.5034C22.368 15.501 22.3624 15.5122 22.3468 15.5278C22.3311 15.5435 22.32 15.5491 22.3224 15.5479C22.3235 15.5474 22.3609 15.5289 22.4323 15.5289L22.4322 17.5289C22.9961 17.5289 23.4647 17.2384 23.761 16.9421C24.0573 16.6457 24.3478 16.1771 24.3478 15.6133H22.3478ZM22.4322 15.5289H21.912V17.5289H22.4322V15.5289ZM16.0234 15.5289H9.6145V17.5289H16.0234V15.5289ZM16.9389 5H9.6145V7H16.9389V5ZM19.5167 16.5289C19.5167 16.6884 19.3874 16.8177 19.2278 16.8177V20.8177C21.5965 20.8177 23.5167 18.8975 23.5167 16.5289H19.5167ZM19.2278 16.8177C19.0683 16.8177 18.9389 16.6884 18.9389 16.5289H14.9389C14.9389 18.8975 16.8591 20.8177 19.2278 20.8177V16.8177ZM18.9389 16.5289C18.9389 16.3693 19.0683 16.24 19.2278 16.24V12.24C16.8591 12.24 14.9389 14.1602 14.9389 16.5289H18.9389ZM19.2278 16.24C19.3874 16.24 19.5167 16.3693 19.5167 16.5289H23.5167C23.5167 14.1602 21.5965 12.24 19.2278 12.24V16.24Z" fill="black" fill-opacity="0.2" mask="url(#path-3-outside-2_1770_29864)"/>
<path d="M18.3123 7.37333L17.4178 7.82054L17.4178 7.82054L18.3123 7.37333ZM19.6856 10.12L18.7912 10.5672C18.8026 10.5901 18.8149 10.6125 18.8281 10.6345L19.6856 10.12ZM22.4322 16.5289L22.4323 15.5289H22.4322V16.5289ZM21.912 15.5289C21.3598 15.5289 20.912 15.9766 20.912 16.5289C20.912 17.0811 21.3598 17.5289 21.912 17.5289V15.5289ZM16.0234 17.5289C16.5757 17.5289 17.0234 17.0811 17.0234 16.5289C17.0234 15.9766 16.5757 15.5289 16.0234 15.5289V17.5289ZM9.6145 15.5289C9.06222 15.5289 8.6145 15.9766 8.6145 16.5289C8.6145 17.0811 9.06222 17.5289 9.6145 17.5289V15.5289ZM16.9389 7C16.9409 7 16.9353 7.0001 16.9252 6.99751C16.9152 6.99493 16.9078 6.99153 16.9047 6.98981C16.9 6.98725 16.9248 6.9995 16.9765 7.0602C17.0984 7.20339 17.224 7.43293 17.4178 7.82054L19.2067 6.92612C19.0343 6.58129 18.8062 6.12416 18.4994 5.7638C18.1622 5.36768 17.6547 5 16.9389 5V7ZM17.4178 7.82054L18.7912 10.5672L20.58 9.67278L19.2067 6.92612L17.4178 7.82054ZM19.6856 10.12C18.8281 10.6345 18.8285 10.6352 18.829 10.636C18.8291 10.6362 18.8296 10.637 18.8299 10.6375C18.8305 10.6385 18.8311 10.6395 18.8317 10.6405C18.833 10.6425 18.8342 10.6446 18.8355 10.6467C18.8381 10.6509 18.8408 10.6552 18.8436 10.6596C18.8493 10.6684 18.8554 10.6777 18.862 10.6874C18.8752 10.7069 18.8904 10.728 18.9078 10.7505C18.9425 10.7955 18.9856 10.8457 19.0386 10.8986C19.1452 11.0052 19.288 11.1193 19.4746 11.223C19.8521 11.4328 20.368 11.5778 21.0589 11.5778V9.57777C20.6512 9.57777 20.4804 9.49389 20.4459 9.47472C20.4266 9.46398 20.432 9.46362 20.4528 9.48441C20.4628 9.49444 20.4759 9.5089 20.4913 9.52886C20.499 9.53881 20.5072 9.55009 20.5159 9.56282C20.5202 9.56919 20.5246 9.57592 20.5292 9.58302C20.5314 9.58658 20.5337 9.59022 20.5361 9.59397C20.5372 9.59584 20.5384 9.59774 20.5396 9.59966C20.5401 9.60062 20.5407 9.60159 20.5413 9.60256C20.5416 9.60305 20.5421 9.60378 20.5422 9.60402C20.5426 9.60476 20.5431 9.6055 19.6856 10.12ZM21.0589 11.5778C21.3191 11.5778 21.7061 11.6468 21.9903 11.8105C22.1222 11.8865 22.2061 11.9676 22.257 12.0467C22.3032 12.1183 22.3478 12.2261 22.3478 12.4089H24.3478C24.3478 11.2471 23.7077 10.4917 22.9886 10.0775C22.3192 9.69188 21.5617 9.57777 21.0589 9.57777V11.5778ZM22.3478 12.4089V15.6133H24.3478V12.4089H22.3478ZM22.3478 15.6133C22.3478 15.542 22.3663 15.5045 22.3669 15.5034C22.368 15.501 22.3624 15.5122 22.3468 15.5278C22.3311 15.5435 22.32 15.5491 22.3224 15.5479C22.3235 15.5474 22.3609 15.5289 22.4323 15.5289L22.4322 17.5289C22.9961 17.5289 23.4647 17.2384 23.761 16.9421C24.0573 16.6457 24.3478 16.1771 24.3478 15.6133H22.3478ZM22.4322 15.5289H21.912V17.5289H22.4322V15.5289ZM16.0234 15.5289H9.6145V17.5289H16.0234V15.5289ZM16.9389 5H9.6145V7H16.9389V5ZM19.5167 16.5289C19.5167 16.6884 19.3874 16.8177 19.2278 16.8177V20.8177C21.5965 20.8177 23.5167 18.8975 23.5167 16.5289H19.5167ZM19.2278 16.8177C19.0683 16.8177 18.9389 16.6884 18.9389 16.5289H14.9389C14.9389 18.8975 16.8591 20.8177 19.2278 20.8177V16.8177ZM18.9389 16.5289C18.9389 16.3693 19.0683 16.24 19.2278 16.24V12.24C16.8591 12.24 14.9389 14.1602 14.9389 16.5289H18.9389ZM19.2278 16.24C19.3874 16.24 19.5167 16.3693 19.5167 16.5289H23.5167C23.5167 14.1602 21.5965 12.24 19.2278 12.24V16.24Z" fill="black" fill-opacity="0.2" mask="url(#path-3-outside-2_1770_29864)"/>
<path d="M18.3123 7.37333L17.4178 7.82054L17.4178 7.82054L18.3123 7.37333ZM19.6856 10.12L18.7912 10.5672C18.8026 10.5901 18.8149 10.6125 18.8281 10.6345L19.6856 10.12ZM22.4322 16.5289L22.4323 15.5289H22.4322V16.5289ZM21.912 15.5289C21.3598 15.5289 20.912 15.9766 20.912 16.5289C20.912 17.0811 21.3598 17.5289 21.912 17.5289V15.5289ZM16.0234 17.5289C16.5757 17.5289 17.0234 17.0811 17.0234 16.5289C17.0234 15.9766 16.5757 15.5289 16.0234 15.5289V17.5289ZM9.6145 15.5289C9.06222 15.5289 8.6145 15.9766 8.6145 16.5289C8.6145 17.0811 9.06222 17.5289 9.6145 17.5289V15.5289ZM16.9389 7C16.9409 7 16.9353 7.0001 16.9252 6.99751C16.9152 6.99493 16.9078 6.99153 16.9047 6.98981C16.9 6.98725 16.9248 6.9995 16.9765 7.0602C17.0984 7.20339 17.224 7.43293 17.4178 7.82054L19.2067 6.92612C19.0343 6.58129 18.8062 6.12416 18.4994 5.7638C18.1622 5.36768 17.6547 5 16.9389 5V7ZM17.4178 7.82054L18.7912 10.5672L20.58 9.67278L19.2067 6.92612L17.4178 7.82054ZM19.6856 10.12C18.8281 10.6345 18.8285 10.6352 18.829 10.636C18.8291 10.6362 18.8296 10.637 18.8299 10.6375C18.8305 10.6385 18.8311 10.6395 18.8317 10.6405C18.833 10.6425 18.8342 10.6446 18.8355 10.6467C18.8381 10.6509 18.8408 10.6552 18.8436 10.6596C18.8493 10.6684 18.8554 10.6777 18.862 10.6874C18.8752 10.7069 18.8904 10.728 18.9078 10.7505C18.9425 10.7955 18.9856 10.8457 19.0386 10.8986C19.1452 11.0052 19.288 11.1193 19.4746 11.223C19.8521 11.4328 20.368 11.5778 21.0589 11.5778V9.57777C20.6512 9.57777 20.4804 9.49389 20.4459 9.47472C20.4266 9.46398 20.432 9.46362 20.4528 9.48441C20.4628 9.49444 20.4759 9.5089 20.4913 9.52886C20.499 9.53881 20.5072 9.55009 20.5159 9.56282C20.5202 9.56919 20.5246 9.57592 20.5292 9.58302C20.5314 9.58658 20.5337 9.59022 20.5361 9.59397C20.5372 9.59584 20.5384 9.59774 20.5396 9.59966C20.5401 9.60062 20.5407 9.60159 20.5413 9.60256C20.5416 9.60305 20.5421 9.60378 20.5422 9.60402C20.5426 9.60476 20.5431 9.6055 19.6856 10.12ZM21.0589 11.5778C21.3191 11.5778 21.7061 11.6468 21.9903 11.8105C22.1222 11.8865 22.2061 11.9676 22.257 12.0467C22.3032 12.1183 22.3478 12.2261 22.3478 12.4089H24.3478C24.3478 11.2471 23.7077 10.4917 22.9886 10.0775C22.3192 9.69188 21.5617 9.57777 21.0589 9.57777V11.5778ZM22.3478 12.4089V15.6133H24.3478V12.4089H22.3478ZM22.3478 15.6133C22.3478 15.542 22.3663 15.5045 22.3669 15.5034C22.368 15.501 22.3624 15.5122 22.3468 15.5278C22.3311 15.5435 22.32 15.5491 22.3224 15.5479C22.3235 15.5474 22.3609 15.5289 22.4323 15.5289L22.4322 17.5289C22.9961 17.5289 23.4647 17.2384 23.761 16.9421C24.0573 16.6457 24.3478 16.1771 24.3478 15.6133H22.3478ZM22.4322 15.5289H21.912V17.5289H22.4322V15.5289ZM16.0234 15.5289H9.6145V17.5289H16.0234V15.5289ZM16.9389 5H9.6145V7H16.9389V5ZM19.5167 16.5289C19.5167 16.6884 19.3874 16.8177 19.2278 16.8177V20.8177C21.5965 20.8177 23.5167 18.8975 23.5167 16.5289H19.5167ZM19.2278 16.8177C19.0683 16.8177 18.9389 16.6884 18.9389 16.5289H14.9389C14.9389 18.8975 16.8591 20.8177 19.2278 20.8177V16.8177ZM18.9389 16.5289C18.9389 16.3693 19.0683 16.24 19.2278 16.24V12.24C16.8591 12.24 14.9389 14.1602 14.9389 16.5289H18.9389ZM19.2278 16.24C19.3874 16.24 19.5167 16.3693 19.5167 16.5289H23.5167C23.5167 14.1602 21.5965 12.24 19.2278 12.24V16.24Z" fill="black" fill-opacity="0.2" mask="url(#path-3-outside-2_1770_29864)"/>
<path d="M18.3123 7.37333L17.4178 7.82054L17.4178 7.82054L18.3123 7.37333ZM19.6856 10.12L18.7912 10.5672C18.8026 10.5901 18.8149 10.6125 18.8281 10.6345L19.6856 10.12ZM22.4322 16.5289L22.4323 15.5289H22.4322V16.5289ZM21.912 15.5289C21.3598 15.5289 20.912 15.9766 20.912 16.5289C20.912 17.0811 21.3598 17.5289 21.912 17.5289V15.5289ZM16.0234 17.5289C16.5757 17.5289 17.0234 17.0811 17.0234 16.5289C17.0234 15.9766 16.5757 15.5289 16.0234 15.5289V17.5289ZM9.6145 15.5289C9.06222 15.5289 8.6145 15.9766 8.6145 16.5289C8.6145 17.0811 9.06222 17.5289 9.6145 17.5289V15.5289ZM16.9389 7C16.9409 7 16.9353 7.0001 16.9252 6.99751C16.9152 6.99493 16.9078 6.99153 16.9047 6.98981C16.9 6.98725 16.9248 6.9995 16.9765 7.0602C17.0984 7.20339 17.224 7.43293 17.4178 7.82054L19.2067 6.92612C19.0343 6.58129 18.8062 6.12416 18.4994 5.7638C18.1622 5.36768 17.6547 5 16.9389 5V7ZM17.4178 7.82054L18.7912 10.5672L20.58 9.67278L19.2067 6.92612L17.4178 7.82054ZM19.6856 10.12C18.8281 10.6345 18.8285 10.6352 18.829 10.636C18.8291 10.6362 18.8296 10.637 18.8299 10.6375C18.8305 10.6385 18.8311 10.6395 18.8317 10.6405C18.833 10.6425 18.8342 10.6446 18.8355 10.6467C18.8381 10.6509 18.8408 10.6552 18.8436 10.6596C18.8493 10.6684 18.8554 10.6777 18.862 10.6874C18.8752 10.7069 18.8904 10.728 18.9078 10.7505C18.9425 10.7955 18.9856 10.8457 19.0386 10.8986C19.1452 11.0052 19.288 11.1193 19.4746 11.223C19.8521 11.4328 20.368 11.5778 21.0589 11.5778V9.57777C20.6512 9.57777 20.4804 9.49389 20.4459 9.47472C20.4266 9.46398 20.432 9.46362 20.4528 9.48441C20.4628 9.49444 20.4759 9.5089 20.4913 9.52886C20.499 9.53881 20.5072 9.55009 20.5159 9.56282C20.5202 9.56919 20.5246 9.57592 20.5292 9.58302C20.5314 9.58658 20.5337 9.59022 20.5361 9.59397C20.5372 9.59584 20.5384 9.59774 20.5396 9.59966C20.5401 9.60062 20.5407 9.60159 20.5413 9.60256C20.5416 9.60305 20.5421 9.60378 20.5422 9.60402C20.5426 9.60476 20.5431 9.6055 19.6856 10.12ZM21.0589 11.5778C21.3191 11.5778 21.7061 11.6468 21.9903 11.8105C22.1222 11.8865 22.2061 11.9676 22.257 12.0467C22.3032 12.1183 22.3478 12.2261 22.3478 12.4089H24.3478C24.3478 11.2471 23.7077 10.4917 22.9886 10.0775C22.3192 9.69188 21.5617 9.57777 21.0589 9.57777V11.5778ZM22.3478 12.4089V15.6133H24.3478V12.4089H22.3478ZM22.3478 15.6133C22.3478 15.542 22.3663 15.5045 22.3669 15.5034C22.368 15.501 22.3624 15.5122 22.3468 15.5278C22.3311 15.5435 22.32 15.5491 22.3224 15.5479C22.3235 15.5474 22.3609 15.5289 22.4323 15.5289L22.4322 17.5289C22.9961 17.5289 23.4647 17.2384 23.761 16.9421C24.0573 16.6457 24.3478 16.1771 24.3478 15.6133H22.3478ZM22.4322 15.5289H21.912V17.5289H22.4322V15.5289ZM16.0234 15.5289H9.6145V17.5289H16.0234V15.5289ZM16.9389 5H9.6145V7H16.9389V5ZM19.5167 16.5289C19.5167 16.6884 19.3874 16.8177 19.2278 16.8177V20.8177C21.5965 20.8177 23.5167 18.8975 23.5167 16.5289H19.5167ZM19.2278 16.8177C19.0683 16.8177 18.9389 16.6884 18.9389 16.5289H14.9389C14.9389 18.8975 16.8591 20.8177 19.2278 20.8177V16.8177ZM18.9389 16.5289C18.9389 16.3693 19.0683 16.24 19.2278 16.24V12.24C16.8591 12.24 14.9389 14.1602 14.9389 16.5289H18.9389ZM19.2278 16.24C19.3874 16.24 19.5167 16.3693 19.5167 16.5289H23.5167C23.5167 14.1602 21.5965 12.24 19.2278 12.24V16.24Z" fill="black" fill-opacity="0.2" mask="url(#path-3-outside-2_1770_29864)"/>
<path d="M18.3123 7.37333L17.4178 7.82054L17.4178 7.82054L18.3123 7.37333ZM19.6856 10.12L18.7912 10.5672C18.8026 10.5901 18.8149 10.6125 18.8281 10.6345L19.6856 10.12ZM22.4322 16.5289L22.4323 15.5289H22.4322V16.5289ZM21.912 15.5289C21.3598 15.5289 20.912 15.9766 20.912 16.5289C20.912 17.0811 21.3598 17.5289 21.912 17.5289V15.5289ZM16.0234 17.5289C16.5757 17.5289 17.0234 17.0811 17.0234 16.5289C17.0234 15.9766 16.5757 15.5289 16.0234 15.5289V17.5289ZM9.6145 15.5289C9.06222 15.5289 8.6145 15.9766 8.6145 16.5289C8.6145 17.0811 9.06222 17.5289 9.6145 17.5289V15.5289ZM16.9389 7C16.9409 7 16.9353 7.0001 16.9252 6.99751C16.9152 6.99493 16.9078 6.99153 16.9047 6.98981C16.9 6.98725 16.9248 6.9995 16.9765 7.0602C17.0984 7.20339 17.224 7.43293 17.4178 7.82054L19.2067 6.92612C19.0343 6.58129 18.8062 6.12416 18.4994 5.7638C18.1622 5.36768 17.6547 5 16.9389 5V7ZM17.4178 7.82054L18.7912 10.5672L20.58 9.67278L19.2067 6.92612L17.4178 7.82054ZM19.6856 10.12C18.8281 10.6345 18.8285 10.6352 18.829 10.636C18.8291 10.6362 18.8296 10.637 18.8299 10.6375C18.8305 10.6385 18.8311 10.6395 18.8317 10.6405C18.833 10.6425 18.8342 10.6446 18.8355 10.6467C18.8381 10.6509 18.8408 10.6552 18.8436 10.6596C18.8493 10.6684 18.8554 10.6777 18.862 10.6874C18.8752 10.7069 18.8904 10.728 18.9078 10.7505C18.9425 10.7955 18.9856 10.8457 19.0386 10.8986C19.1452 11.0052 19.288 11.1193 19.4746 11.223C19.8521 11.4328 20.368 11.5778 21.0589 11.5778V9.57777C20.6512 9.57777 20.4804 9.49389 20.4459 9.47472C20.4266 9.46398 20.432 9.46362 20.4528 9.48441C20.4628 9.49444 20.4759 9.5089 20.4913 9.52886C20.499 9.53881 20.5072 9.55009 20.5159 9.56282C20.5202 9.56919 20.5246 9.57592 20.5292 9.58302C20.5314 9.58658 20.5337 9.59022 20.5361 9.59397C20.5372 9.59584 20.5384 9.59774 20.5396 9.59966C20.5401 9.60062 20.5407 9.60159 20.5413 9.60256C20.5416 9.60305 20.5421 9.60378 20.5422 9.60402C20.5426 9.60476 20.5431 9.6055 19.6856 10.12ZM21.0589 11.5778C21.3191 11.5778 21.7061 11.6468 21.9903 11.8105C22.1222 11.8865 22.2061 11.9676 22.257 12.0467C22.3032 12.1183 22.3478 12.2261 22.3478 12.4089H24.3478C24.3478 11.2471 23.7077 10.4917 22.9886 10.0775C22.3192 9.69188 21.5617 9.57777 21.0589 9.57777V11.5778ZM22.3478 12.4089V15.6133H24.3478V12.4089H22.3478ZM22.3478 15.6133C22.3478 15.542 22.3663 15.5045 22.3669 15.5034C22.368 15.501 22.3624 15.5122 22.3468 15.5278C22.3311 15.5435 22.32 15.5491 22.3224 15.5479C22.3235 15.5474 22.3609 15.5289 22.4323 15.5289L22.4322 17.5289C22.9961 17.5289 23.4647 17.2384 23.761 16.9421C24.0573 16.6457 24.3478 16.1771 24.3478 15.6133H22.3478ZM22.4322 15.5289H21.912V17.5289H22.4322V15.5289ZM16.0234 15.5289H9.6145V17.5289H16.0234V15.5289ZM16.9389 5H9.6145V7H16.9389V5ZM19.5167 16.5289C19.5167 16.6884 19.3874 16.8177 19.2278 16.8177V20.8177C21.5965 20.8177 23.5167 18.8975 23.5167 16.5289H19.5167ZM19.2278 16.8177C19.0683 16.8177 18.9389 16.6884 18.9389 16.5289H14.9389C14.9389 18.8975 16.8591 20.8177 19.2278 20.8177V16.8177ZM18.9389 16.5289C18.9389 16.3693 19.0683 16.24 19.2278 16.24V12.24C16.8591 12.24 14.9389 14.1602 14.9389 16.5289H18.9389ZM19.2278 16.24C19.3874 16.24 19.5167 16.3693 19.5167 16.5289H23.5167C23.5167 14.1602 21.5965 12.24 19.2278 12.24V16.24Z" fill="black" fill-opacity="0.2" mask="url(#path-3-outside-2_1770_29864)"/>
<path d="M16.7018 7.5H12.8806C12.8254 7.5 12.7806 7.54477 12.7806 7.6V11.2287C12.7806 11.2839 12.8254 11.3287 12.8806 11.3287H18.5887C18.6637 11.3287 18.712 11.2491 18.6774 11.1825L16.7905 7.55386C16.7733 7.52077 16.7391 7.5 16.7018 7.5Z" stroke="#202020" stroke-width="2"/>
<path d="M16.7018 7.5H12.8806C12.8254 7.5 12.7806 7.54477 12.7806 7.6V11.2287C12.7806 11.2839 12.8254 11.3287 12.8806 11.3287H18.5887C18.6637 11.3287 18.712 11.2491 18.6774 11.1825L16.7905 7.55386C16.7733 7.52077 16.7391 7.5 16.7018 7.5Z" stroke="black" stroke-opacity="0.2" stroke-width="2"/>
<path d="M16.7018 7.5H12.8806C12.8254 7.5 12.7806 7.54477 12.7806 7.6V11.2287C12.7806 11.2839 12.8254 11.3287 12.8806 11.3287H18.5887C18.6637 11.3287 18.712 11.2491 18.6774 11.1825L16.7905 7.55386C16.7733 7.52077 16.7391 7.5 16.7018 7.5Z" stroke="black" stroke-opacity="0.2" stroke-width="2"/>
<path d="M16.7018 7.5H12.8806C12.8254 7.5 12.7806 7.54477 12.7806 7.6V11.2287C12.7806 11.2839 12.8254 11.3287 12.8806 11.3287H18.5887C18.6637 11.3287 18.712 11.2491 18.6774 11.1825L16.7905 7.55386C16.7733 7.52077 16.7391 7.5 16.7018 7.5Z" stroke="black" stroke-opacity="0.2" stroke-width="2"/>
<path d="M16.7018 7.5H12.8806C12.8254 7.5 12.7806 7.54477 12.7806 7.6V11.2287C12.7806 11.2839 12.8254 11.3287 12.8806 11.3287H18.5887C18.6637 11.3287 18.712 11.2491 18.6774 11.1825L16.7905 7.55386C16.7733 7.52077 16.7391 7.5 16.7018 7.5Z" stroke="black" stroke-opacity="0.2" stroke-width="2"/>
<path d="M16.7018 7.5H12.8806C12.8254 7.5 12.7806 7.54477 12.7806 7.6V11.2287C12.7806 11.2839 12.8254 11.3287 12.8806 11.3287H18.5887C18.6637 11.3287 18.712 11.2491 18.6774 11.1825L16.7905 7.55386C16.7733 7.52077 16.7391 7.5 16.7018 7.5Z" stroke="black" stroke-opacity="0.2" stroke-width="2"/>
<path d="M16.7018 7.5H12.8806C12.8254 7.5 12.7806 7.54477 12.7806 7.6V11.2287C12.7806 11.2839 12.8254 11.3287 12.8806 11.3287H18.5887C18.6637 11.3287 18.712 11.2491 18.6774 11.1825L16.7905 7.55386C16.7733 7.52077 16.7391 7.5 16.7018 7.5Z" stroke="black" stroke-opacity="0.2" stroke-width="2"/>
<path d="M16.7018 7.5H12.8806C12.8254 7.5 12.7806 7.54477 12.7806 7.6V11.2287C12.7806 11.2839 12.8254 11.3287 12.8806 11.3287H18.5887C18.6637 11.3287 18.712 11.2491 18.6774 11.1825L16.7905 7.55386C16.7733 7.52077 16.7391 7.5 16.7018 7.5Z" stroke="black" stroke-opacity="0.2" stroke-width="2"/>
<path d="M16.7018 7.5H12.8806C12.8254 7.5 12.7806 7.54477 12.7806 7.6V11.2287C12.7806 11.2839 12.8254 11.3287 12.8806 11.3287H18.5887C18.6637 11.3287 18.712 11.2491 18.6774 11.1825L16.7905 7.55386C16.7733 7.52077 16.7391 7.5 16.7018 7.5Z" stroke="black" stroke-opacity="0.2" stroke-width="2"/>
<path d="M7.83743 7.5H11.6585C11.7138 7.5 11.7585 7.54477 11.7585 7.6V11.2287C11.7585 11.2839 11.7138 11.3287 11.6585 11.3287H5.95052C5.87549 11.3287 5.82718 11.2491 5.8618 11.1825L7.74871 7.55386C7.76592 7.52077 7.80013 7.5 7.83743 7.5Z" stroke="#202020" stroke-width="2"/>
<path d="M7.83743 7.5H11.6585C11.7138 7.5 11.7585 7.54477 11.7585 7.6V11.2287C11.7585 11.2839 11.7138 11.3287 11.6585 11.3287H5.95052C5.87549 11.3287 5.82718 11.2491 5.8618 11.1825L7.74871 7.55386C7.76592 7.52077 7.80013 7.5 7.83743 7.5Z" stroke="black" stroke-opacity="0.2" stroke-width="2"/>
<path d="M7.83743 7.5H11.6585C11.7138 7.5 11.7585 7.54477 11.7585 7.6V11.2287C11.7585 11.2839 11.7138 11.3287 11.6585 11.3287H5.95052C5.87549 11.3287 5.82718 11.2491 5.8618 11.1825L7.74871 7.55386C7.76592 7.52077 7.80013 7.5 7.83743 7.5Z" stroke="black" stroke-opacity="0.2" stroke-width="2"/>
<path d="M7.83743 7.5H11.6585C11.7138 7.5 11.7585 7.54477 11.7585 7.6V11.2287C11.7585 11.2839 11.7138 11.3287 11.6585 11.3287H5.95052C5.87549 11.3287 5.82718 11.2491 5.8618 11.1825L7.74871 7.55386C7.76592 7.52077 7.80013 7.5 7.83743 7.5Z" stroke="black" stroke-opacity="0.2" stroke-width="2"/>
<path d="M7.83743 7.5H11.6585C11.7138 7.5 11.7585 7.54477 11.7585 7.6V11.2287C11.7585 11.2839 11.7138 11.3287 11.6585 11.3287H5.95052C5.87549 11.3287 5.82718 11.2491 5.8618 11.1825L7.74871 7.55386C7.76592 7.52077 7.80013 7.5 7.83743 7.5Z" stroke="black" stroke-opacity="0.2" stroke-width="2"/>
<path d="M7.83743 7.5H11.6585C11.7138 7.5 11.7585 7.54477 11.7585 7.6V11.2287C11.7585 11.2839 11.7138 11.3287 11.6585 11.3287H5.95052C5.87549 11.3287 5.82718 11.2491 5.8618 11.1825L7.74871 7.55386C7.76592 7.52077 7.80013 7.5 7.83743 7.5Z" stroke="black" stroke-opacity="0.2" stroke-width="2"/>
<path d="M7.83743 7.5H11.6585C11.7138 7.5 11.7585 7.54477 11.7585 7.6V11.2287C11.7585 11.2839 11.7138 11.3287 11.6585 11.3287H5.95052C5.87549 11.3287 5.82718 11.2491 5.8618 11.1825L7.74871 7.55386C7.76592 7.52077 7.80013 7.5 7.83743 7.5Z" stroke="black" stroke-opacity="0.2" stroke-width="2"/>
<path d="M7.83743 7.5H11.6585C11.7138 7.5 11.7585 7.54477 11.7585 7.6V11.2287C11.7585 11.2839 11.7138 11.3287 11.6585 11.3287H5.95052C5.87549 11.3287 5.82718 11.2491 5.8618 11.1825L7.74871 7.55386C7.76592 7.52077 7.80013 7.5 7.83743 7.5Z" stroke="black" stroke-opacity="0.2" stroke-width="2"/>
<path d="M7.83743 7.5H11.6585C11.7138 7.5 11.7585 7.54477 11.7585 7.6V11.2287C11.7585 11.2839 11.7138 11.3287 11.6585 11.3287H5.95052C5.87549 11.3287 5.82718 11.2491 5.8618 11.1825L7.74871 7.55386C7.76592 7.52077 7.80013 7.5 7.83743 7.5Z" stroke="black" stroke-opacity="0.2" stroke-width="2"/>
</g>
<defs>
<clipPath id="clip0_1770_29864">
<rect width="24" height="24" fill="white"/>
</clipPath>
</defs>
</svg>
