<svg width="42" height="42" viewBox="0 0 42 42" fill="none" xmlns="http://www.w3.org/2000/svg">
<mask id="path-1-outside-1_1421_26614" maskUnits="userSpaceOnUse" x="-0.216797" y="9.5" width="27" height="26" fill="black">
<rect fill="white" x="-0.216797" y="9.5" width="27" height="26"/>
<path d="M4.95436 28.9255C4.95436 31.1377 6.74771 32.9311 8.95991 32.9311C11.1721 32.9311 12.9655 31.1377 12.9655 28.9255C12.9655 26.7133 11.1721 24.92 8.95991 24.92C6.74771 24.92 4.95436 26.7133 4.95436 28.9255Z"/>
</mask>
<path d="M10.5621 12.9033L11.4566 13.3505L11.4566 13.3505L10.5621 12.9033ZM8.1588 17.71L9.05323 18.1572C9.04178 18.1801 9.02946 18.2025 9.01629 18.2245L8.1588 17.71ZM3.35215 28.9255L3.35214 27.9255H3.35215V28.9255ZM4.2625 27.9255C4.81478 27.9255 5.2625 28.3732 5.2625 28.9255C5.2625 29.4778 4.81478 29.9255 4.2625 29.9255V27.9255ZM14.5677 29.9255C14.0154 29.9255 13.5677 29.4778 13.5677 28.9255C13.5677 28.3732 14.0154 27.9255 14.5677 27.9255V29.9255ZM25.7832 27.9255C26.3355 27.9255 26.7832 28.3732 26.7832 28.9255C26.7832 29.4778 26.3355 29.9255 25.7832 29.9255V27.9255ZM12.9655 11.5C12.7657 11.5 12.5808 11.5729 12.3286 11.8692C12.046 12.2012 11.7877 12.6883 11.4566 13.3505L9.6677 12.4561C9.97745 11.8366 10.3382 11.122 10.8057 10.5728C11.3036 9.98785 11.9999 9.5 12.9655 9.5V11.5ZM11.4566 13.3505L9.05323 18.1572L7.26437 17.2628L9.6677 12.4561L11.4566 13.3505ZM8.1588 17.71C9.01629 18.2245 9.01585 18.2252 9.0154 18.226C9.01525 18.2262 9.0148 18.227 9.01449 18.2275C9.01388 18.2285 9.01326 18.2295 9.01262 18.2305C9.01136 18.2326 9.01006 18.2347 9.00871 18.2369C9.00602 18.2413 9.00316 18.2458 9.00013 18.2506C8.99407 18.26 8.98732 18.2703 8.97986 18.2813C8.96493 18.3032 8.94713 18.328 8.92617 18.3552C8.88423 18.4096 8.8298 18.4732 8.76076 18.5423C8.62196 18.6811 8.42769 18.8381 8.16378 18.9847C7.63179 19.2802 6.85843 19.5111 5.75547 19.5111V17.5111C6.57518 17.5111 7.00349 17.3414 7.19249 17.2364C7.28908 17.1827 7.33515 17.1395 7.34655 17.128C7.35261 17.122 7.35076 17.123 7.34261 17.1336C7.33855 17.1389 7.33295 17.1465 7.326 17.1567C7.32253 17.1618 7.31872 17.1675 7.3146 17.174C7.31253 17.1772 7.31039 17.1806 7.30818 17.1842C7.30707 17.186 7.30594 17.1878 7.3048 17.1897C7.30422 17.1907 7.30365 17.1916 7.30307 17.1926C7.30277 17.193 7.30233 17.1938 7.30219 17.194C7.30175 17.1948 7.30131 17.1955 8.1588 17.71ZM5.75547 19.5111C5.20914 19.5111 4.39306 19.6488 3.75113 20.0185C3.15893 20.3596 2.74993 20.8631 2.74993 21.7155H0.749928C0.749928 20.0044 1.67611 18.9057 2.75288 18.2854C3.77993 17.6939 4.96662 17.5111 5.75547 17.5111V19.5111ZM2.74993 21.7155V27.3233H0.749928V21.7155H2.74993ZM2.74993 27.3233C2.74993 27.3603 2.78847 27.5211 2.97138 27.7041C3.1543 27.887 3.31514 27.9255 3.35214 27.9255L3.35215 29.9255C2.62446 29.9255 1.98419 29.5453 1.55717 29.1183C1.13015 28.6912 0.749928 28.051 0.749928 27.3233H2.74993ZM3.35215 27.9255H4.2625V29.9255H3.35215V27.9255ZM14.5677 27.9255H25.7832V29.9255H14.5677V27.9255ZM12.9655 9.5H25.7832V11.5H12.9655V9.5ZM6.95436 28.9255C6.95436 30.0331 7.85228 30.9311 8.95991 30.9311V34.9311C5.64314 34.9311 2.95436 32.2423 2.95436 28.9255H6.95436ZM8.95991 30.9311C10.0675 30.9311 10.9655 30.0331 10.9655 28.9255H14.9655C14.9655 32.2423 12.2767 34.9311 8.95991 34.9311V30.9311ZM10.9655 28.9255C10.9655 27.8179 10.0675 26.92 8.95991 26.92V22.92C12.2767 22.92 14.9655 25.6087 14.9655 28.9255H10.9655ZM8.95991 26.92C7.85228 26.92 6.95436 27.8179 6.95436 28.9255H2.95436C2.95436 25.6087 5.64314 22.92 8.95991 22.92V26.92Z" fill="black" mask="url(#path-1-outside-1_1421_26614)"/>
<mask id="path-3-outside-2_1421_26614" maskUnits="userSpaceOnUse" x="15.8252" y="9.5" width="27" height="26" fill="black">
<rect fill="white" x="15.8252" y="9.5" width="27" height="26"/>
<path d="M37.654 28.9255C37.654 31.1377 35.8607 32.9311 33.6485 32.9311C31.4363 32.9311 29.6429 31.1377 29.6429 28.9255C29.6429 26.7133 31.4363 24.92 33.6485 24.92C35.8607 24.92 37.654 26.7133 37.654 28.9255Z"/>
</mask>
<path d="M32.0463 12.9033L31.1518 13.3505L31.1518 13.3505L32.0463 12.9033ZM34.4496 17.71L33.5552 18.1572C33.5666 18.1801 33.5789 18.2025 33.5921 18.2245L34.4496 17.71ZM39.2563 28.9255L39.2563 27.9255H39.2563V28.9255ZM38.3459 27.9255C37.7936 27.9255 37.3459 28.3732 37.3459 28.9255C37.3459 29.4778 37.7936 29.9255 38.3459 29.9255V27.9255ZM28.0407 29.9255C28.593 29.9255 29.0407 29.4778 29.0407 28.9255C29.0407 28.3732 28.593 27.9255 28.0407 27.9255V29.9255ZM16.8252 27.9255C16.2729 27.9255 15.8252 28.3732 15.8252 28.9255C15.8252 29.4778 16.2729 29.9255 16.8252 29.9255V27.9255ZM29.6429 11.5C29.8427 11.5 30.0276 11.5729 30.2798 11.8692C30.5624 12.2012 30.8207 12.6883 31.1518 13.3505L32.9407 12.4561C32.6309 11.8366 32.2702 11.122 31.8027 10.5728C31.3048 9.98785 30.6085 9.5 29.6429 9.5V11.5ZM31.1518 13.3505L33.5552 18.1572L35.344 17.2628L32.9407 12.4561L31.1518 13.3505ZM34.4496 17.71C33.5921 18.2245 33.5926 18.2252 33.593 18.226C33.5932 18.2262 33.5936 18.227 33.5939 18.2275C33.5945 18.2285 33.5951 18.2295 33.5958 18.2305C33.597 18.2326 33.5983 18.2347 33.5997 18.2369C33.6024 18.2413 33.6052 18.2458 33.6083 18.2506C33.6143 18.26 33.6211 18.2703 33.6285 18.2813C33.6435 18.3032 33.6613 18.328 33.6822 18.3552C33.7242 18.4096 33.7786 18.4732 33.8476 18.5423C33.9864 18.6811 34.1807 18.8381 34.4446 18.9847C34.9766 19.2802 35.75 19.5111 36.8529 19.5111V17.5111C36.0332 17.5111 35.6049 17.3414 35.4159 17.2364C35.3193 17.1827 35.2733 17.1395 35.2619 17.128C35.2558 17.122 35.2576 17.123 35.2658 17.1336C35.2698 17.1389 35.2754 17.1465 35.2824 17.1567C35.2859 17.1618 35.2897 17.1675 35.2938 17.174C35.2959 17.1772 35.298 17.1806 35.3002 17.1842C35.3013 17.186 35.3025 17.1878 35.3036 17.1897C35.3042 17.1907 35.3048 17.1916 35.3053 17.1926C35.3056 17.193 35.3061 17.1938 35.3062 17.194C35.3067 17.1948 35.3071 17.1955 34.4496 17.71ZM36.8529 19.5111C37.3993 19.5111 38.2153 19.6488 38.8573 20.0185C39.4495 20.3596 39.8585 20.8631 39.8585 21.7155H41.8585C41.8585 20.0044 40.9323 18.9057 39.8555 18.2854C38.8285 17.6939 37.6418 17.5111 36.8529 17.5111V19.5111ZM39.8585 21.7155V27.3233H41.8585V21.7155H39.8585ZM39.8585 27.3233C39.8585 27.3603 39.8199 27.5211 39.637 27.7041C39.4541 27.887 39.2933 27.9255 39.2563 27.9255L39.2562 29.9255C39.9839 29.9255 40.6242 29.5453 41.0512 29.1183C41.4782 28.6912 41.8585 28.051 41.8585 27.3233H39.8585ZM39.2563 27.9255H38.3459V29.9255H39.2563V27.9255ZM28.0407 27.9255H16.8252V29.9255H28.0407V27.9255ZM29.6429 9.5H16.8252V11.5H29.6429V9.5ZM35.654 28.9255C35.654 30.0331 34.7561 30.9311 33.6485 30.9311V34.9311C36.9653 34.9311 39.654 32.2423 39.654 28.9255H35.654ZM33.6485 30.9311C32.5409 30.9311 31.6429 30.0331 31.6429 28.9255H27.6429C27.6429 32.2423 30.3317 34.9311 33.6485 34.9311V30.9311ZM31.6429 28.9255C31.6429 27.8179 32.5409 26.92 33.6485 26.92V22.92C30.3317 22.92 27.6429 25.6087 27.6429 28.9255H31.6429ZM33.6485 26.92C34.7561 26.92 35.654 27.8179 35.654 28.9255H39.654C39.654 25.6087 36.9653 22.92 33.6485 22.92V26.92Z" fill="black" mask="url(#path-3-outside-2_1421_26614)"/>
<path d="M29.2737 13.125H22.4662C22.411 13.125 22.3662 13.1698 22.3662 13.225V19.7252C22.3662 19.7804 22.411 19.8252 22.4662 19.8252H32.6538C32.7288 19.8252 32.7771 19.7456 32.7425 19.6791L29.3624 13.1789C29.3452 13.1458 29.311 13.125 29.2737 13.125Z" stroke="black" stroke-width="2"/>
<path d="M13.6697 13.125H20.4771C20.5324 13.125 20.5771 13.1698 20.5771 13.225V19.7252C20.5771 19.7804 20.5324 19.8252 20.4771 19.8252H10.2896C10.2145 19.8252 10.1662 19.7456 10.2008 19.6791L13.5809 13.1789C13.5982 13.1458 13.6324 13.125 13.6697 13.125Z" stroke="black" stroke-width="2"/>
</svg>
