<svg width="24" height="24" viewBox="0 0 24 24" fill="none" xmlns="http://www.w3.org/2000/svg">
<g clip-path="url(#clip0_1770_29900)">
<path d="M8.6223 16.1644C8.70267 16.6466 9.11986 17 9.6087 17H13.913C14.3963 17 14.8105 16.6544 14.8969 16.1789C15.0281 15.4574 15.4592 14.3203 16.3057 13.3817C17.1267 12.4712 18.3408 11.7391 20.1304 11.7391C20.6827 11.7391 21.1304 11.2914 21.1304 10.7391C21.1304 8.89954 20.0321 4.91705 15.5439 4.01942C15.1798 3.94659 14.8053 4.08155 14.5713 4.36993C14.3373 4.6583 14.2824 5.05259 14.4287 5.39392C14.6582 5.92939 14.9559 6.78801 15.0864 7.55835C15.1178 7.74363 15.1373 7.91134 15.1458 8.05925C14.5733 7.94522 13.9087 7.89813 13.2187 7.99033C12.2018 8.12618 11.127 8.56801 10.2495 9.52412C9.52611 9.23896 8.60538 8.92043 7.64866 8.67138C6.37316 8.33934 4.86797 8.08486 3.67345 8.32377C3.6579 8.32688 3.64242 8.33036 3.62703 8.3342C3.28227 8.42039 2.74572 8.57356 2.23588 8.75935C1.98127 8.85213 1.71708 8.9589 1.48015 9.07614C1.26442 9.18289 0.98611 9.33881 0.771157 9.55376C0.583621 9.7413 0.478264 9.99565 0.478264 10.2609V11.6956C0.478264 12.0036 0.620135 12.2943 0.862851 12.4839C1.10557 12.6734 1.42206 12.7405 1.7208 12.6658C2.02184 12.5905 2.52721 12.4756 3.04601 12.3803C3.58402 12.2814 4.06403 12.2174 4.34783 12.2174C4.96977 12.2174 5.69732 12.5218 7.14095 13.4842C7.21491 13.5335 7.2951 13.5727 7.37942 13.6009C7.37932 13.6008 7.37971 13.601 7.38058 13.6016C7.41686 13.6225 8.28203 14.1227 8.6223 16.1644Z" stroke="#202020" stroke-width="2" stroke-linecap="round" stroke-linejoin="round"/>
<path d="M8.6223 16.1644C8.70267 16.6466 9.11986 17 9.6087 17H13.913C14.3963 17 14.8105 16.6544 14.8969 16.1789C15.0281 15.4574 15.4592 14.3203 16.3057 13.3817C17.1267 12.4712 18.3408 11.7391 20.1304 11.7391C20.6827 11.7391 21.1304 11.2914 21.1304 10.7391C21.1304 8.89954 20.0321 4.91705 15.5439 4.01942C15.1798 3.94659 14.8053 4.08155 14.5713 4.36993C14.3373 4.6583 14.2824 5.05259 14.4287 5.39392C14.6582 5.92939 14.9559 6.78801 15.0864 7.55835C15.1178 7.74363 15.1373 7.91134 15.1458 8.05925C14.5733 7.94522 13.9087 7.89813 13.2187 7.99033C12.2018 8.12618 11.127 8.56801 10.2495 9.52412C9.52611 9.23896 8.60538 8.92043 7.64866 8.67138C6.37316 8.33934 4.86797 8.08486 3.67345 8.32377C3.6579 8.32688 3.64242 8.33036 3.62703 8.3342C3.28227 8.42039 2.74572 8.57356 2.23588 8.75935C1.98127 8.85213 1.71708 8.9589 1.48015 9.07614C1.26442 9.18289 0.98611 9.33881 0.771157 9.55376C0.583621 9.7413 0.478264 9.99565 0.478264 10.2609V11.6956C0.478264 12.0036 0.620135 12.2943 0.862851 12.4839C1.10557 12.6734 1.42206 12.7405 1.7208 12.6658C2.02184 12.5905 2.52721 12.4756 3.04601 12.3803C3.58402 12.2814 4.06403 12.2174 4.34783 12.2174C4.96977 12.2174 5.69732 12.5218 7.14095 13.4842C7.21491 13.5335 7.2951 13.5727 7.37942 13.6009C7.37932 13.6008 7.37971 13.601 7.38058 13.6016C7.41686 13.6225 8.28203 14.1227 8.6223 16.1644Z" stroke="black" stroke-opacity="0.2" stroke-width="2" stroke-linecap="round" stroke-linejoin="round"/>
<path d="M8.6223 16.1644C8.70267 16.6466 9.11986 17 9.6087 17H13.913C14.3963 17 14.8105 16.6544 14.8969 16.1789C15.0281 15.4574 15.4592 14.3203 16.3057 13.3817C17.1267 12.4712 18.3408 11.7391 20.1304 11.7391C20.6827 11.7391 21.1304 11.2914 21.1304 10.7391C21.1304 8.89954 20.0321 4.91705 15.5439 4.01942C15.1798 3.94659 14.8053 4.08155 14.5713 4.36993C14.3373 4.6583 14.2824 5.05259 14.4287 5.39392C14.6582 5.92939 14.9559 6.78801 15.0864 7.55835C15.1178 7.74363 15.1373 7.91134 15.1458 8.05925C14.5733 7.94522 13.9087 7.89813 13.2187 7.99033C12.2018 8.12618 11.127 8.56801 10.2495 9.52412C9.52611 9.23896 8.60538 8.92043 7.64866 8.67138C6.37316 8.33934 4.86797 8.08486 3.67345 8.32377C3.6579 8.32688 3.64242 8.33036 3.62703 8.3342C3.28227 8.42039 2.74572 8.57356 2.23588 8.75935C1.98127 8.85213 1.71708 8.9589 1.48015 9.07614C1.26442 9.18289 0.98611 9.33881 0.771157 9.55376C0.583621 9.7413 0.478264 9.99565 0.478264 10.2609V11.6956C0.478264 12.0036 0.620135 12.2943 0.862851 12.4839C1.10557 12.6734 1.42206 12.7405 1.7208 12.6658C2.02184 12.5905 2.52721 12.4756 3.04601 12.3803C3.58402 12.2814 4.06403 12.2174 4.34783 12.2174C4.96977 12.2174 5.69732 12.5218 7.14095 13.4842C7.21491 13.5335 7.2951 13.5727 7.37942 13.6009C7.37932 13.6008 7.37971 13.601 7.38058 13.6016C7.41686 13.6225 8.28203 14.1227 8.6223 16.1644Z" stroke="black" stroke-opacity="0.2" stroke-width="2" stroke-linecap="round" stroke-linejoin="round"/>
<path d="M8.6223 16.1644C8.70267 16.6466 9.11986 17 9.6087 17H13.913C14.3963 17 14.8105 16.6544 14.8969 16.1789C15.0281 15.4574 15.4592 14.3203 16.3057 13.3817C17.1267 12.4712 18.3408 11.7391 20.1304 11.7391C20.6827 11.7391 21.1304 11.2914 21.1304 10.7391C21.1304 8.89954 20.0321 4.91705 15.5439 4.01942C15.1798 3.94659 14.8053 4.08155 14.5713 4.36993C14.3373 4.6583 14.2824 5.05259 14.4287 5.39392C14.6582 5.92939 14.9559 6.78801 15.0864 7.55835C15.1178 7.74363 15.1373 7.91134 15.1458 8.05925C14.5733 7.94522 13.9087 7.89813 13.2187 7.99033C12.2018 8.12618 11.127 8.56801 10.2495 9.52412C9.52611 9.23896 8.60538 8.92043 7.64866 8.67138C6.37316 8.33934 4.86797 8.08486 3.67345 8.32377C3.6579 8.32688 3.64242 8.33036 3.62703 8.3342C3.28227 8.42039 2.74572 8.57356 2.23588 8.75935C1.98127 8.85213 1.71708 8.9589 1.48015 9.07614C1.26442 9.18289 0.98611 9.33881 0.771157 9.55376C0.583621 9.7413 0.478264 9.99565 0.478264 10.2609V11.6956C0.478264 12.0036 0.620135 12.2943 0.862851 12.4839C1.10557 12.6734 1.42206 12.7405 1.7208 12.6658C2.02184 12.5905 2.52721 12.4756 3.04601 12.3803C3.58402 12.2814 4.06403 12.2174 4.34783 12.2174C4.96977 12.2174 5.69732 12.5218 7.14095 13.4842C7.21491 13.5335 7.2951 13.5727 7.37942 13.6009C7.37932 13.6008 7.37971 13.601 7.38058 13.6016C7.41686 13.6225 8.28203 14.1227 8.6223 16.1644Z" stroke="black" stroke-opacity="0.2" stroke-width="2" stroke-linecap="round" stroke-linejoin="round"/>
<path d="M8.6223 16.1644C8.70267 16.6466 9.11986 17 9.6087 17H13.913C14.3963 17 14.8105 16.6544 14.8969 16.1789C15.0281 15.4574 15.4592 14.3203 16.3057 13.3817C17.1267 12.4712 18.3408 11.7391 20.1304 11.7391C20.6827 11.7391 21.1304 11.2914 21.1304 10.7391C21.1304 8.89954 20.0321 4.91705 15.5439 4.01942C15.1798 3.94659 14.8053 4.08155 14.5713 4.36993C14.3373 4.6583 14.2824 5.05259 14.4287 5.39392C14.6582 5.92939 14.9559 6.78801 15.0864 7.55835C15.1178 7.74363 15.1373 7.91134 15.1458 8.05925C14.5733 7.94522 13.9087 7.89813 13.2187 7.99033C12.2018 8.12618 11.127 8.56801 10.2495 9.52412C9.52611 9.23896 8.60538 8.92043 7.64866 8.67138C6.37316 8.33934 4.86797 8.08486 3.67345 8.32377C3.6579 8.32688 3.64242 8.33036 3.62703 8.3342C3.28227 8.42039 2.74572 8.57356 2.23588 8.75935C1.98127 8.85213 1.71708 8.9589 1.48015 9.07614C1.26442 9.18289 0.98611 9.33881 0.771157 9.55376C0.583621 9.7413 0.478264 9.99565 0.478264 10.2609V11.6956C0.478264 12.0036 0.620135 12.2943 0.862851 12.4839C1.10557 12.6734 1.42206 12.7405 1.7208 12.6658C2.02184 12.5905 2.52721 12.4756 3.04601 12.3803C3.58402 12.2814 4.06403 12.2174 4.34783 12.2174C4.96977 12.2174 5.69732 12.5218 7.14095 13.4842C7.21491 13.5335 7.2951 13.5727 7.37942 13.6009C7.37932 13.6008 7.37971 13.601 7.38058 13.6016C7.41686 13.6225 8.28203 14.1227 8.6223 16.1644Z" stroke="black" stroke-opacity="0.2" stroke-width="2" stroke-linecap="round" stroke-linejoin="round"/>
<path d="M8.6223 16.1644C8.70267 16.6466 9.11986 17 9.6087 17H13.913C14.3963 17 14.8105 16.6544 14.8969 16.1789C15.0281 15.4574 15.4592 14.3203 16.3057 13.3817C17.1267 12.4712 18.3408 11.7391 20.1304 11.7391C20.6827 11.7391 21.1304 11.2914 21.1304 10.7391C21.1304 8.89954 20.0321 4.91705 15.5439 4.01942C15.1798 3.94659 14.8053 4.08155 14.5713 4.36993C14.3373 4.6583 14.2824 5.05259 14.4287 5.39392C14.6582 5.92939 14.9559 6.78801 15.0864 7.55835C15.1178 7.74363 15.1373 7.91134 15.1458 8.05925C14.5733 7.94522 13.9087 7.89813 13.2187 7.99033C12.2018 8.12618 11.127 8.56801 10.2495 9.52412C9.52611 9.23896 8.60538 8.92043 7.64866 8.67138C6.37316 8.33934 4.86797 8.08486 3.67345 8.32377C3.6579 8.32688 3.64242 8.33036 3.62703 8.3342C3.28227 8.42039 2.74572 8.57356 2.23588 8.75935C1.98127 8.85213 1.71708 8.9589 1.48015 9.07614C1.26442 9.18289 0.98611 9.33881 0.771157 9.55376C0.583621 9.7413 0.478264 9.99565 0.478264 10.2609V11.6956C0.478264 12.0036 0.620135 12.2943 0.862851 12.4839C1.10557 12.6734 1.42206 12.7405 1.7208 12.6658C2.02184 12.5905 2.52721 12.4756 3.04601 12.3803C3.58402 12.2814 4.06403 12.2174 4.34783 12.2174C4.96977 12.2174 5.69732 12.5218 7.14095 13.4842C7.21491 13.5335 7.2951 13.5727 7.37942 13.6009C7.37932 13.6008 7.37971 13.601 7.38058 13.6016C7.41686 13.6225 8.28203 14.1227 8.6223 16.1644Z" stroke="black" stroke-opacity="0.2" stroke-width="2" stroke-linecap="round" stroke-linejoin="round"/>
<path d="M8.6223 16.1644C8.70267 16.6466 9.11986 17 9.6087 17H13.913C14.3963 17 14.8105 16.6544 14.8969 16.1789C15.0281 15.4574 15.4592 14.3203 16.3057 13.3817C17.1267 12.4712 18.3408 11.7391 20.1304 11.7391C20.6827 11.7391 21.1304 11.2914 21.1304 10.7391C21.1304 8.89954 20.0321 4.91705 15.5439 4.01942C15.1798 3.94659 14.8053 4.08155 14.5713 4.36993C14.3373 4.6583 14.2824 5.05259 14.4287 5.39392C14.6582 5.92939 14.9559 6.78801 15.0864 7.55835C15.1178 7.74363 15.1373 7.91134 15.1458 8.05925C14.5733 7.94522 13.9087 7.89813 13.2187 7.99033C12.2018 8.12618 11.127 8.56801 10.2495 9.52412C9.52611 9.23896 8.60538 8.92043 7.64866 8.67138C6.37316 8.33934 4.86797 8.08486 3.67345 8.32377C3.6579 8.32688 3.64242 8.33036 3.62703 8.3342C3.28227 8.42039 2.74572 8.57356 2.23588 8.75935C1.98127 8.85213 1.71708 8.9589 1.48015 9.07614C1.26442 9.18289 0.98611 9.33881 0.771157 9.55376C0.583621 9.7413 0.478264 9.99565 0.478264 10.2609V11.6956C0.478264 12.0036 0.620135 12.2943 0.862851 12.4839C1.10557 12.6734 1.42206 12.7405 1.7208 12.6658C2.02184 12.5905 2.52721 12.4756 3.04601 12.3803C3.58402 12.2814 4.06403 12.2174 4.34783 12.2174C4.96977 12.2174 5.69732 12.5218 7.14095 13.4842C7.21491 13.5335 7.2951 13.5727 7.37942 13.6009C7.37932 13.6008 7.37971 13.601 7.38058 13.6016C7.41686 13.6225 8.28203 14.1227 8.6223 16.1644Z" stroke="black" stroke-opacity="0.2" stroke-width="2" stroke-linecap="round" stroke-linejoin="round"/>
<path d="M8.6223 16.1644C8.70267 16.6466 9.11986 17 9.6087 17H13.913C14.3963 17 14.8105 16.6544 14.8969 16.1789C15.0281 15.4574 15.4592 14.3203 16.3057 13.3817C17.1267 12.4712 18.3408 11.7391 20.1304 11.7391C20.6827 11.7391 21.1304 11.2914 21.1304 10.7391C21.1304 8.89954 20.0321 4.91705 15.5439 4.01942C15.1798 3.94659 14.8053 4.08155 14.5713 4.36993C14.3373 4.6583 14.2824 5.05259 14.4287 5.39392C14.6582 5.92939 14.9559 6.78801 15.0864 7.55835C15.1178 7.74363 15.1373 7.91134 15.1458 8.05925C14.5733 7.94522 13.9087 7.89813 13.2187 7.99033C12.2018 8.12618 11.127 8.56801 10.2495 9.52412C9.52611 9.23896 8.60538 8.92043 7.64866 8.67138C6.37316 8.33934 4.86797 8.08486 3.67345 8.32377C3.6579 8.32688 3.64242 8.33036 3.62703 8.3342C3.28227 8.42039 2.74572 8.57356 2.23588 8.75935C1.98127 8.85213 1.71708 8.9589 1.48015 9.07614C1.26442 9.18289 0.98611 9.33881 0.771157 9.55376C0.583621 9.7413 0.478264 9.99565 0.478264 10.2609V11.6956C0.478264 12.0036 0.620135 12.2943 0.862851 12.4839C1.10557 12.6734 1.42206 12.7405 1.7208 12.6658C2.02184 12.5905 2.52721 12.4756 3.04601 12.3803C3.58402 12.2814 4.06403 12.2174 4.34783 12.2174C4.96977 12.2174 5.69732 12.5218 7.14095 13.4842C7.21491 13.5335 7.2951 13.5727 7.37942 13.6009C7.37932 13.6008 7.37971 13.601 7.38058 13.6016C7.41686 13.6225 8.28203 14.1227 8.6223 16.1644Z" stroke="black" stroke-opacity="0.2" stroke-width="2" stroke-linecap="round" stroke-linejoin="round"/>
<path d="M8.6223 16.1644C8.70267 16.6466 9.11986 17 9.6087 17H13.913C14.3963 17 14.8105 16.6544 14.8969 16.1789C15.0281 15.4574 15.4592 14.3203 16.3057 13.3817C17.1267 12.4712 18.3408 11.7391 20.1304 11.7391C20.6827 11.7391 21.1304 11.2914 21.1304 10.7391C21.1304 8.89954 20.0321 4.91705 15.5439 4.01942C15.1798 3.94659 14.8053 4.08155 14.5713 4.36993C14.3373 4.6583 14.2824 5.05259 14.4287 5.39392C14.6582 5.92939 14.9559 6.78801 15.0864 7.55835C15.1178 7.74363 15.1373 7.91134 15.1458 8.05925C14.5733 7.94522 13.9087 7.89813 13.2187 7.99033C12.2018 8.12618 11.127 8.56801 10.2495 9.52412C9.52611 9.23896 8.60538 8.92043 7.64866 8.67138C6.37316 8.33934 4.86797 8.08486 3.67345 8.32377C3.6579 8.32688 3.64242 8.33036 3.62703 8.3342C3.28227 8.42039 2.74572 8.57356 2.23588 8.75935C1.98127 8.85213 1.71708 8.9589 1.48015 9.07614C1.26442 9.18289 0.98611 9.33881 0.771157 9.55376C0.583621 9.7413 0.478264 9.99565 0.478264 10.2609V11.6956C0.478264 12.0036 0.620135 12.2943 0.862851 12.4839C1.10557 12.6734 1.42206 12.7405 1.7208 12.6658C2.02184 12.5905 2.52721 12.4756 3.04601 12.3803C3.58402 12.2814 4.06403 12.2174 4.34783 12.2174C4.96977 12.2174 5.69732 12.5218 7.14095 13.4842C7.21491 13.5335 7.2951 13.5727 7.37942 13.6009C7.37932 13.6008 7.37971 13.601 7.38058 13.6016C7.41686 13.6225 8.28203 14.1227 8.6223 16.1644Z" stroke="black" stroke-opacity="0.2" stroke-width="2" stroke-linecap="round" stroke-linejoin="round"/>
</g>
<defs>
<clipPath id="clip0_1770_29900">
<rect width="24" height="24" fill="white"/>
</clipPath>
</defs>
</svg>
