<svg width="42" height="42" viewBox="0 0 42 42" fill="none" xmlns="http://www.w3.org/2000/svg">
<path d="M15.8288 28.1644C15.9092 28.6466 16.3264 29 16.8152 29H24.3478C24.8311 29 25.2452 28.6544 25.3317 28.1789C25.5824 26.7998 26.3902 24.6763 27.9779 22.9156C29.5403 21.1832 31.8604 19.7935 35.2283 19.7935C35.7805 19.7935 36.2283 19.3458 36.2283 18.7935C36.2283 15.7582 34.4125 9.24096 27.0548 7.76942C26.6907 7.69659 26.3161 7.83155 26.0822 8.11993C25.8482 8.4083 25.7933 8.80259 25.9395 9.14392C26.3561 10.1158 26.8993 11.6773 27.1406 13.1018L28.1266 12.9348L27.1406 13.1018C27.2515 13.7563 27.2906 14.3363 27.2453 14.7958C27.236 14.8899 27.2238 14.9739 27.2094 15.0488C26.1279 14.7287 24.7138 14.5285 23.232 14.7265C21.473 14.9615 19.6152 15.7617 18.1539 17.5632C16.8561 17.0292 15.0649 16.3872 13.1962 15.9007C10.9791 15.3236 8.48753 14.9196 6.57563 15.302C6.56007 15.3051 6.5446 15.3086 6.52921 15.3125C5.94531 15.4584 5.03214 15.7192 4.16958 16.0335C3.73861 16.1906 3.30403 16.3669 2.92288 16.5555C2.56292 16.7336 2.16655 16.9627 1.87985 17.2494C1.69232 17.4369 1.58696 17.6913 1.58696 17.9565V20.4674C1.58696 20.7753 1.72883 21.0661 1.97155 21.2556C2.21427 21.4451 2.53076 21.5122 2.8295 21.4375C3.36966 21.3025 4.2696 21.0979 5.19493 20.9278C6.13946 20.7542 7.03794 20.6304 7.6087 20.6304C8.94803 20.6304 10.393 21.2935 12.9127 22.9734C12.9866 23.0227 13.0668 23.0619 13.1512 23.09C13.5054 23.2081 15.1934 24.3519 15.8288 28.1644Z" stroke="#202020" stroke-width="2" stroke-linecap="round" stroke-linejoin="round"/>
</svg>
