<svg width="42" height="42" viewBox="0 0 42 42" fill="none" xmlns="http://www.w3.org/2000/svg">
<circle cx="10.1193" cy="30.4357" r="3.34783" stroke="#202020" stroke-width="2"/>
<circle cx="31.5461" cy="30.4357" r="3.34783" stroke="#202020" stroke-width="2"/>
<path d="M27.6956 12.8587L27.6957 8C27.6957 7.44772 27.2479 7 26.6957 7H2.75C2.19772 7 1.75 7.44772 1.75 8V24.5761C1.75 25.0383 2.12472 25.4131 2.58696 25.4131V25.4131M27.6956 12.8587L27.7707 25.4131M27.6956 12.8587H31.8805M36.2336 29.9094H39.25C39.8023 29.9094 40.25 29.4617 40.25 28.9094V22.0652M27.0582 29.9094H23.6609M14.7843 29.9094H17.6522M5.7122 29.9094C5.7122 29.9094 3.9024 29.9094 2.74276 29.9094V29.9094C2.65671 29.9094 2.58696 29.8397 2.58696 29.7536V25.4131M2.58696 25.4131H17.6522M27.6957 25.4131H27.7707M17.6522 29.9094V25.4131M17.6522 29.9094H23.6609M17.6522 25.4131H23.6609M23.6609 29.9094V25.4131M23.6609 25.4131H27.7707M31.8805 12.8587H34.3913L38.7855 17.2529C39.7232 18.1906 40.25 19.4624 40.25 20.7885V22.0652M31.8805 12.8587V21.0652C31.8805 21.6175 32.3282 22.0652 32.8805 22.0652H40.25" stroke="#202020" stroke-width="2" stroke-linecap="round" stroke-linejoin="round"/>
</svg>
